<svg viewBox="0 0 330 200" xmlns="http://www.w3.org/2000/svg"><g><g><g><g><g><line x1="70" y1="178" x2="65" y2="178" style="visibility: inherit;" fill="rgb(0, 0, 0)" stroke="rgb(204, 204, 204)" stroke-width="1px"></line><line x1="70" y1="164.30769230769232" x2="65" y2="164.30769230769232" style="visibility: inherit;" fill="rgb(0, 0, 0)" stroke="rgb(204, 204, 204)" stroke-width="1px"></line><line x1="70" y1="150.6153846153846" x2="65" y2="150.6153846153846" style="visibility: inherit;" fill="rgb(0, 0, 0)" stroke="rgb(204, 204, 204)" stroke-width="1px"></line><line x1="70" y1="136.9230769230769" x2="65" y2="136.9230769230769" style="visibility: inherit;" fill="rgb(0, 0, 0)" stroke="rgb(204, 204, 204)" stroke-width="1px"></line><line x1="70" y1="123.23076923076923" x2="65" y2="123.23076923076923" style="visibility: inherit;" fill="rgb(0, 0, 0)" stroke="rgb(204, 204, 204)" stroke-width="1px"></line><line x1="70" y1="109.53846153846153" x2="65" y2="109.53846153846153" style="visibility: inherit;" fill="rgb(0, 0, 0)" stroke="rgb(204, 204, 204)" stroke-width="1px"></line><line x1="70" y1="95.84615384615384" x2="65" y2="95.84615384615384" style="visibility: inherit;" fill="rgb(0, 0, 0)" stroke="rgb(204, 204, 204)" stroke-width="1px"></line><line x1="70" y1="82.15384615384616" x2="65" y2="82.15384615384616" style="visibility: inherit;" fill="rgb(0, 0, 0)" stroke="rgb(204, 204, 204)" stroke-width="1px"></line><line x1="70" y1="68.46153846153845" x2="65" y2="68.46153846153845" style="visibility: inherit;" fill="rgb(0, 0, 0)" stroke="rgb(204, 204, 204)" stroke-width="1px"></line><line x1="70" y1="54.769230769230774" x2="65" y2="54.769230769230774" style="visibility: inherit;" fill="rgb(0, 0, 0)" stroke="rgb(204, 204, 204)" stroke-width="1px"></line><line x1="70" y1="41.076923076923066" x2="65" y2="41.076923076923066" style="visibility: inherit;" fill="rgb(0, 0, 0)" stroke="rgb(204, 204, 204)" stroke-width="1px"></line><line x1="70" y1="27.384615384615387" x2="65" y2="27.384615384615387" style="visibility: inherit;" fill="rgb(0, 0, 0)" stroke="rgb(204, 204, 204)" stroke-width="1px"></line><line x1="70" y1="13.69230769230768" x2="65" y2="13.69230769230768" style="visibility: inherit;" fill="rgb(0, 0, 0)" stroke="rgb(204, 204, 204)" stroke-width="1px"></line><line x1="70" y1="0" x2="65" y2="0" style="visibility: inherit;" fill="rgb(0, 0, 0)" stroke="rgb(204, 204, 204)" stroke-width="1px"></line></g><g transform="translate(60, 0)"><text x="0" y="178" dx="0em" dy="0.3em" style="text-anchor: end; visibility: hidden; font-family: &quot;Helvetica Neue&quot;, sans-serif; font-size: 12px; font-weight: 200;" fill="rgb(50, 49, 63)" stroke="none" stroke-width="1px">0.088</text><text x="0" y="164.30769230769232" dx="0em" dy="0.3em" style="text-anchor: end; visibility: inherit; font-family: &quot;Helvetica Neue&quot;, sans-serif; font-size: 12px; font-weight: 200;" fill="rgb(50, 49, 63)" stroke="none" stroke-width="1px">0.089</text><text x="0" y="150.6153846153846" dx="0em" dy="0.3em" style="text-anchor: end; visibility: hidden; font-family: &quot;Helvetica Neue&quot;, sans-serif; font-size: 12px; font-weight: 200;" fill="rgb(50, 49, 63)" stroke="none" stroke-width="1px">0.09</text><text x="0" y="136.9230769230769" dx="0em" dy="0.3em" style="text-anchor: end; visibility: inherit; font-family: &quot;Helvetica Neue&quot;, sans-serif; font-size: 12px; font-weight: 200;" fill="rgb(50, 49, 63)" stroke="none" stroke-width="1px">0.091</text><text x="0" y="123.23076923076923" dx="0em" dy="0.3em" style="text-anchor: end; visibility: hidden; font-family: &quot;Helvetica Neue&quot;, sans-serif; font-size: 12px; font-weight: 200;" fill="rgb(50, 49, 63)" stroke="none" stroke-width="1px">0.092</text><text x="0" y="109.53846153846153" dx="0em" dy="0.3em" style="text-anchor: end; visibility: inherit; font-family: &quot;Helvetica Neue&quot;, sans-serif; font-size: 12px; font-weight: 200;" fill="rgb(50, 49, 63)" stroke="none" stroke-width="1px">0.093</text><text x="0" y="95.84615384615384" dx="0em" dy="0.3em" style="text-anchor: end; visibility: hidden; font-family: &quot;Helvetica Neue&quot;, sans-serif; font-size: 12px; font-weight: 200;" fill="rgb(50, 49, 63)" stroke="none" stroke-width="1px">0.094</text><text x="0" y="82.15384615384616" dx="0em" dy="0.3em" style="text-anchor: end; visibility: inherit; font-family: &quot;Helvetica Neue&quot;, sans-serif; font-size: 12px; font-weight: 200;" fill="rgb(50, 49, 63)" stroke="none" stroke-width="1px">0.095</text><text x="0" y="68.46153846153845" dx="0em" dy="0.3em" style="text-anchor: end; visibility: hidden; font-family: &quot;Helvetica Neue&quot;, sans-serif; font-size: 12px; font-weight: 200;" fill="rgb(50, 49, 63)" stroke="none" stroke-width="1px">0.096</text><text x="0" y="54.769230769230774" dx="0em" dy="0.3em" style="text-anchor: end; visibility: inherit; font-family: &quot;Helvetica Neue&quot;, sans-serif; font-size: 12px; font-weight: 200;" fill="rgb(50, 49, 63)" stroke="none" stroke-width="1px">0.097</text><text x="0" y="41.076923076923066" dx="0em" dy="0.3em" style="text-anchor: end; visibility: hidden; font-family: &quot;Helvetica Neue&quot;, sans-serif; font-size: 12px; font-weight: 200;" fill="rgb(50, 49, 63)" stroke="none" stroke-width="1px">0.098</text><text x="0" y="27.384615384615387" dx="0em" dy="0.3em" style="text-anchor: end; visibility: inherit; font-family: &quot;Helvetica Neue&quot;, sans-serif; font-size: 12px; font-weight: 200;" fill="rgb(50, 49, 63)" stroke="none" stroke-width="1px">0.099</text><text x="0" y="13.69230769230768" dx="0em" dy="0.3em" style="text-anchor: end; visibility: hidden; font-family: &quot;Helvetica Neue&quot;, sans-serif; font-size: 12px; font-weight: 200;" fill="rgb(50, 49, 63)" stroke="none" stroke-width="1px">0.1</text><text x="0" y="0" dx="0em" dy="0.3em" style="text-anchor: end; visibility: hidden; font-family: &quot;Helvetica Neue&quot;, sans-serif; font-size: 12px; font-weight: 200;" fill="rgb(50, 49, 63)" stroke="none" stroke-width="1px">0.101</text></g><line x1="70" y1="0" x2="70" y2="178" fill="rgb(0, 0, 0)" stroke="rgb(204, 204, 204)" stroke-width="1px"></line></g></g><g transform="translate(70, 0)" clip-path="url(#clip_0)"><clipPath id="clip_0"><rect width="260" height="178"></rect></clipPath><g><g><g><line x1="0" y1="0" x2="0" y2="178" fill="rgb(0, 0, 0)" stroke="rgb(60, 60, 60)" stroke-width="1px" opacity="0.25"></line><line x1="23.636363636363637" y1="0" x2="23.636363636363637" y2="178" fill="rgb(0, 0, 0)" stroke="rgb(60, 60, 60)" stroke-width="1px" opacity="0.25"></line><line x1="47.27272727272727" y1="0" x2="47.27272727272727" y2="178" fill="rgb(0, 0, 0)" stroke="rgb(60, 60, 60)" stroke-width="1px" opacity="0.25"></line><line x1="70.9090909090909" y1="0" x2="70.9090909090909" y2="178" fill="rgb(0, 0, 0)" stroke="rgb(60, 60, 60)" stroke-width="1px" opacity="0.25"></line><line x1="94.54545454545455" y1="0" x2="94.54545454545455" y2="178" fill="rgb(0, 0, 0)" stroke="rgb(60, 60, 60)" stroke-width="1px" opacity="0.25"></line><line x1="118.18181818181817" y1="0" x2="118.18181818181817" y2="178" fill="rgb(0, 0, 0)" stroke="rgb(60, 60, 60)" stroke-width="1px" opacity="0.25"></line><line x1="141.8181818181818" y1="0" x2="141.8181818181818" y2="178" fill="rgb(0, 0, 0)" stroke="rgb(60, 60, 60)" stroke-width="1px" opacity="0.25"></line><line x1="165.45454545454544" y1="0" x2="165.45454545454544" y2="178" fill="rgb(0, 0, 0)" stroke="rgb(60, 60, 60)" stroke-width="1px" opacity="0.25"></line><line x1="189.0909090909091" y1="0" x2="189.0909090909091" y2="178" fill="rgb(0, 0, 0)" stroke="rgb(60, 60, 60)" stroke-width="1px" opacity="0.25"></line><line x1="212.72727272727275" y1="0" x2="212.72727272727275" y2="178" fill="rgb(0, 0, 0)" stroke="rgb(60, 60, 60)" stroke-width="1px" opacity="0.25"></line><line x1="236.36363636363635" y1="0" x2="236.36363636363635" y2="178" fill="rgb(0, 0, 0)" stroke="rgb(60, 60, 60)" stroke-width="1px" opacity="0.25"></line><line x1="260" y1="0" x2="260" y2="178" fill="rgb(0, 0, 0)" stroke="rgb(60, 60, 60)" stroke-width="1px" opacity="0.25"></line></g><g><line x1="0" y1="178" x2="260" y2="178" fill="rgb(0, 0, 0)" stroke="rgb(60, 60, 60)" stroke-width="1px" opacity="0.25"></line><line x1="0" y1="164.30769230769232" x2="260" y2="164.30769230769232" fill="rgb(0, 0, 0)" stroke="rgb(60, 60, 60)" stroke-width="1px" opacity="0.25"></line><line x1="0" y1="150.6153846153846" x2="260" y2="150.6153846153846" fill="rgb(0, 0, 0)" stroke="rgb(60, 60, 60)" stroke-width="1px" opacity="0.25"></line><line x1="0" y1="136.9230769230769" x2="260" y2="136.9230769230769" fill="rgb(0, 0, 0)" stroke="rgb(60, 60, 60)" stroke-width="1px" opacity="0.25"></line><line x1="0" y1="123.23076923076923" x2="260" y2="123.23076923076923" fill="rgb(0, 0, 0)" stroke="rgb(60, 60, 60)" stroke-width="1px" opacity="0.25"></line><line x1="0" y1="109.53846153846153" x2="260" y2="109.53846153846153" fill="rgb(0, 0, 0)" stroke="rgb(60, 60, 60)" stroke-width="1px" opacity="0.25"></line><line x1="0" y1="95.84615384615384" x2="260" y2="95.84615384615384" fill="rgb(0, 0, 0)" stroke="rgb(60, 60, 60)" stroke-width="1px" opacity="0.25"></line><line x1="0" y1="82.15384615384616" x2="260" y2="82.15384615384616" fill="rgb(0, 0, 0)" stroke="rgb(60, 60, 60)" stroke-width="1px" opacity="0.25"></line><line x1="0" y1="68.46153846153845" x2="260" y2="68.46153846153845" fill="rgb(0, 0, 0)" stroke="rgb(60, 60, 60)" stroke-width="1px" opacity="0.25"></line><line x1="0" y1="54.769230769230774" x2="260" y2="54.769230769230774" fill="rgb(0, 0, 0)" stroke="rgb(60, 60, 60)" stroke-width="1px" opacity="0.25"></line><line x1="0" y1="41.076923076923066" x2="260" y2="41.076923076923066" fill="rgb(0, 0, 0)" stroke="rgb(60, 60, 60)" stroke-width="1px" opacity="0.25"></line><line x1="0" y1="27.384615384615387" x2="260" y2="27.384615384615387" fill="rgb(0, 0, 0)" stroke="rgb(60, 60, 60)" stroke-width="1px" opacity="0.25"></line><line x1="0" y1="13.69230769230768" x2="260" y2="13.69230769230768" fill="rgb(0, 0, 0)" stroke="rgb(60, 60, 60)" stroke-width="1px" opacity="0.25"></line><line x1="0" y1="0" x2="260" y2="0" fill="rgb(0, 0, 0)" stroke="rgb(60, 60, 60)" stroke-width="1px" opacity="0.25"></line></g></g></g><g><g><line x1="0" y1="1382.9230769230758" x2="260" y2="1382.9230769230758" fill="rgb(0, 0, 0)" stroke="rgb(153, 153, 153)" stroke-width="1.5px"></line></g></g><g><g><line x1="23.636363636363637" y1="0" x2="23.636363636363637" y2="178" fill="rgb(0, 0, 0)" stroke="rgb(153, 153, 153)" stroke-width="1.5px"></line></g></g><g><g><g><g><g><path stroke="rgb(255, 112, 67)" stroke-width="2px" d="M33.282363636363634,-0.7371651050398214L33.72081818181819,17.521923502190788L34.15927272727273,20.34606870057891L34.59772727272727,36.27013752175739L35.03618181818182,38.27415526322531L35.474636363636364,38.89576767268713L35.91309090909091,50.449125460990004L36.35154545454545,35.165589107801935L36.79,30.641876358549496L37.22845454545455,35.69581506917356L37.66690909090909,41.99516785280235L38.10536363636364,44.555080127892126L38.54381818181818,44.116330978693185L38.98227272727273,49.661036128511284L39.42072727272727,52.407063698263656L39.85918181818182,49.64062658951764L40.297636363636364,46.04234471088989L40.736090909090905,53.72066236160032L41.17454545454546,51.64848481785434L41.613,52.437941977888855L42.05145454545454,53.78282985676928L42.489909090909094,54.88013990721146L42.928363636363635,56.99053497351626L43.36681818181818,49.29588124217534L43.80527272727272,50.54237681992922L44.24372727272728,51.19348172538005L44.68218181818182,50.132176438868456L45.12063636363636,51.23777962643527L45.55909090909091,50.08612004239815L45.99754545454545,54.69491850743009L46.436,49.6194385658269L46.87445454545455,44.57766368029405L47.312909090909095,49.18279748444547L47.751363636363635,48.344970441185865L48.18981818181818,50.74625148095626L48.62827272727273,51.85514281820066L49.06672727272727,58.079513985469816L49.50518181818182,55.23176101268315L49.943636363636365,52.26472588157314L50.382090909090905,54.550072974921875L50.82054545454545,61.148481115492814L51.259,62.49392605755442L51.69745454545455,60.4698100879276L52.13590909090909,62.37714157071636L52.57436363636364,63.521540460389275L53.01281818181818,65.36977070048319L53.45127272727272,65.02669980854864L53.88972727272727,60.46487097167221L54.32818181818182,62.664555424406885L54.766636363636366,67.46917962117419L55.205090909090906,64.54395880152849L55.64354545454545,63.47853366230578L56.082,65.634343945077L56.52045454545454,62.47505137187619L56.958909090909096,63.870663664529346L57.397363636363636,64.12723558697641L57.83581818181818,70.37955140159492L58.27427272727273,66.87097732292577L58.71272727272727,69.9930327602856L59.15118181818182,67.80065704443011L59.58963636363636,65.90443616177195L60.02809090909091,67.76751414530646L60.466545454545454,69.8257003173054L60.905,69.15226661463272L61.34345454545455,80.50934492390714L61.78190909090909,76.1432488317389L62.220363636363636,74.06288666640934L62.658818181818184,75.39717494180455L63.09727272727273,78.8839013739268L63.53572727272727,78.07195996747524L63.97418181818181,79.47241095101808L64.41263636363637,77.8442702605852L64.85109090909091,75.2909585333278L65.28954545454546,73.59301245053607L65.72800000000001,69.81545619685845L66.16645454545454,69.43649746580857L66.60490909090909,68.3379494505897L67.04336363636364,66.22681160546759L67.48181818181817,63.50811986240346L67.92027272727273,64.78092288854656L68.35872727272728,62.350209308806996L68.79718181818183,59.05260236038019L69.23563636363636,64.09197984963748L69.6740909090909,71.51998886548158L70.11254545454545,69.97521405498549L70.55099999999999,72.50896458352756L70.98945454545455,76.94355695560668L71.4279090909091,69.84137463133885L71.86636363636363,70.61363943278684L72.30481818181818,69.04423463077663L72.74327272727272,75.6529734467117L73.18172727272727,81.6509804191516L73.62018181818182,82.63618466033503L74.05863636363637,77.7097299970394L74.49709090909091,80.48925820590748L74.93554545454545,81.06797855579933L75.374,85.77119706745013L75.81245454545454,85.39873277901496L76.25090909090909,74.62410280194001L76.68936363636364,75.51608082428316L77.12781818181818,75.99320033425184L77.56627272727273,72.27197117165575L78.00472727272727,71.69866091344272L78.44318181818181,73.66402325003688L78.88163636363636,73.39123161600263L79.32009090909092,81.16514890357213L79.75854545454546,84.37749024012312L80.197,86.01451771860962L80.63545454545455,82.35032977428509L81.07390909090908,77.24783974196558L81.51236363636363,77.96153657114434L81.95081818181818,80.4225183515306L82.38927272727274,77.30717934118445L82.82772727272727,75.96433584154005L83.26618181818182,78.64340246062311L83.70463636363637,79.96046510862891L84.1430909090909,80.89589135915429L84.58154545454545,76.79001309959477L85.02000000000001,77.39642245602094L85.45845454545454,78.6314816527225L85.89690909090909,74.43573541588317L86.33536363636364,77.20355486177819L86.77381818181819,84.90451108077139L87.21227272727272,83.13633482757274L87.65072727272727,81.20421549280779L88.08918181818183,84.40093019366431L88.52763636363636,92.12695435188482L88.96609090909091,85.14661897766118L89.40454545454546,82.41038598286086L89.843,79.6070552796909L90.28145454545454,81.40982957665858L90.71990909090908,74.26352456340493L91.15836363636365,84.59250193773833L91.59681818181818,82.07791575890714L92.03527272727273,86.66753671275896L92.47372727272727,88.90506933019503L92.91218181818182,84.3750788709372L93.35063636363635,83.39947095481723L93.78909090909092,88.12426520979687L94.22754545454546,89.03696303585488L94.666,84.16379696463216L95.10445454545454,82.1111109047445L95.54290909090909,91.62423555512188L95.98136363636364,95.10572097391638L96.41981818181817,91.58024257603958L96.85827272727273,84.52817378245315L97.29672727272728,86.39530516745147L97.73518181818181,89.83876581103044L98.17363636363636,86.96806044231722L98.61209090909091,92.21522346508567L99.05054545454544,96.01691106275267L99.489,94.1597611184772L99.92745454545455,97.45952475706491L100.3659090909091,99.20707292021086L100.80436363636363,97.38063780096411L101.24281818181818,94.1067835785581L101.68127272727273,101.14486177824665L102.11972727272726,91.13815888662312L102.55818181818182,93.8461097550802L102.99663636363637,89.95326226189209L103.43509090909092,83.84240372366554L103.87354545454545,93.24380669961943L104.312,96.85188480231281L104.75045454545455,88.56237270106277L105.18890909090908,89.39661997176236L105.62736363636364,96.86675457817843L106.06581818181819,92.63686273859696L106.50427272727273,89.80855031140386L106.94272727272727,87.82114472538728L107.38118181818182,97.95427391948913L107.81963636363636,91.25656985424749L108.25809090909091,93.62673820595396L108.69654545454546,92.22406689571683L109.135,97.81646823296886L109.57345454545454,104.31443967834316L110.01190909090909,103.49426458954687L110.45036363636363,99.51734601114279L110.88881818181818,100.47077892124796L111.32727272727273,99.73605909929911L111.76572727272728,97.88471813331256L112.20418181818182,92.08604996538735L112.64263636363636,93.834008142937L113.0810909090909,94.01161027287772L113.51954545454545,94.98934432743103L113.95800000000001,91.80083471784948L114.39645454545455,85.82211997382893L114.8349090909091,91.52765918399257L115.27336363636364,88.56219191923954L115.71181818181817,85.83914445293776L116.15027272727272,90.95707841831292L116.58872727272727,90.83344340211252L117.02718181818183,92.50164875182699L117.46563636363636,98.43935371651625L117.90409090909091,97.45240551131825L118.34254545454546,101.11943044876698L118.78099999999999,101.5772590518013L119.21945454545454,94.01115638677976L119.6579090909091,90.63312650031354L120.09636363636365,97.89903581875318L120.53481818181818,98.77380869094719L120.97327272727273,100.16988599710945L121.41172727272728,98.97472789167087L121.85018181818181,92.74005582040238L122.28863636363636,90.10277618049395L122.72709090909092,92.35366654855673L123.16554545454545,103.2873461494146L123.604,108.68596300363927L124.04245454545455,96.24361507500363L124.4809090909091,98.65176982754335L124.91936363636363,101.06462789680411L125.35781818181817,99.22115490178693L125.79627272727274,101.8902619533473L126.23472727272727,100.00695346541384L126.67318181818182,99.45776382579872L127.11163636363636,95.06268187001483L127.55009090909091,96.2492197656891L127.98854545454545,97.78391905910883L128.427,104.22231584316609L128.86545454545455,107.98856147245235L129.3039090909091,98.77065138518964L129.74236363636362,101.69255417425006L130.18081818181818,100.75954238080125L130.61927272727272,99.03810359218511L131.05772727272728,108.16922195843762L131.4961818181818,104.79073171303574L131.93463636363637,102.32803077437175L132.3730909090909,103.89961694487711L132.81154545454547,102.76136793747047L133.25,110.47577489646977L133.68845454545453,104.28704764844149L134.1269090909091,106.67218396077494L134.56536363636363,99.10091582129968L135.0038181818182,101.23732305190997L135.44227272727272,99.32477199485048L135.88072727272728,107.17963209374686L136.31918181818182,107.53656185136904L136.75763636363635,98.45795164936628L137.1960909090909,101.72275813159582L137.63454545454545,107.16641473980309L138.073,109.60983214871258L138.51145454545457,108.12346830150254L138.9499090909091,107.81244544632166L139.38836363636364,102.10825452520774L139.82681818181817,99.55695355538512L140.26527272727273,103.54375018149685L140.70372727272726,101.57984185544852L141.14218181818183,107.37108310381585L141.5806363636364,106.19942342141975L142.0190909090909,107.81960942456189L142.45754545454545,110.82452551558283L142.896,114.66027965933108L143.33445454545455,114.34813220329931L143.77290909090908,116.19364821881601L144.21136363636364,112.36417607326575L144.6498181818182,117.90725180652066L145.0882727272727,116.5141392904529L145.52672727272727,116.91245701796328L145.9651818181818,111.63387044646397L146.40363636363637,113.98429571157L146.8420909090909,113.18750366492878L147.28054545454546,112.01245757066727L147.71900000000002,108.11307532494146L148.15745454545453,108.96780056667477L148.5959090909091,101.34949936768544L149.03436363636362,96.48810051859093L149.47281818181818,102.34130111600297L149.91127272727272,107.24716320700334L150.34972727272728,104.96348057704233L150.78818181818184,103.32709178590854L151.22663636363635,108.41943306209167L151.6650909090909,106.538056072941L152.10354545454544,109.76521618116615L152.542,114.02469405868106L152.98045454545456,108.73962176460466L153.4189090909091,109.92456468987449L153.85736363636366,112.08749867477036L154.29581818181816,105.8348773685668L154.73427272727272,108.18171805225181L155.17272727272726,107.26659984362627L155.61118181818182,113.2515083710242L156.04963636363638,113.79328756001618L156.48809090909091,112.37592790771978L156.92654545454548,113.55831660547743L157.36499999999998,116.49413919556403L157.80345454545454,112.54447065931456L158.24190909090908,109.4279150379825L158.68036363636364,108.30473616476542L159.1188181818182,110.3896174448379L159.55727272727273,106.92154745060392L159.9957272727273,108.15609140092434L160.4341818181818,105.79925562309576L160.87263636363636,112.22591317698387L161.3110909090909,112.30671686074605L161.74954545454545,111.19360816471337L162.18800000000002,111.68733385338382L162.62645454545455,108.3535670797376L163.0649090909091,110.9513152263923L163.50336363636362,115.31714893896185L163.94181818181818,118.73522761223145L164.3802727272727,121.72988272989997L164.81872727272727,115.6859167799159L165.25718181818183,106.83233732536429L165.69563636363637,109.65136680291924L166.13409090909093,113.23040031686585L166.57254545454543,116.0312102092401L167.011,117.78429047552547L167.44945454545456,121.44973857757745L167.8879090909091,118.7122256839481L168.32636363636365,119.10248163064958L168.76481818181819,123.69262150038602L169.20327272727272,124.12352360964788L169.64172727272725,122.34926038606926L170.0801818181818,125.05989330049276L170.51863636363638,121.16869584114141L170.9570909090909,119.05180116437026L171.39554545454547,114.65986329374306L171.834,116.38068687308233L172.27245454545454,120.80116129840746L172.71090909090907,119.19425209303499L173.14936363636363,121.13412464179315L173.5878181818182,119.97482555221143L174.02627272727273,124.65163464474593L174.4647272727273,122.95654513682913L174.90318181818182,123.39150046806975L175.34163636363635,117.26368287596279L175.7800909090909,115.03900135668937L176.21854545454545,118.49574473200686L176.657,124.56280540460796L177.09545454545454,120.3864400916136L177.5339090909091,124.17261925352021L177.97236363636364,129.3483040163889L178.41081818181817,133.03451032725513L178.8492727272727,121.65558786517738L179.28772727272727,121.0137284073658L179.72618181818183,118.45061958182112L180.16463636363636,125.04389063052369L180.60309090909092,125.41828809972736L181.04154545454546,130.96691890695908L181.48,129.64969295988158L181.91845454545455,128.85935739163511L182.35690909090908,127.8043605975423L182.79536363636365,124.2673852553618L183.23381818181818,123.01637282664274L183.67227272727274,121.4526598962596L184.11072727272727,123.94113755346194L184.5491818181818,122.8206242055028L184.98763636363637,124.76191613900798L185.4260909090909,125.0555185225219L185.86454545454546,125.52205727607424L186.303,126.60059978019062L186.74145454545456,126.15872870723156L187.1799090909091,125.02239248061029L187.61836363636363,125.35699298920548L188.0568181818182,115.24858299321866L188.49527272727272,123.70350493676378L188.93372727272728,131.39001723891496L189.37218181818182,131.35556099504598L189.81063636363638,133.65806906130445L190.2490909090909,132.52276639992692L190.68754545454544,133.29359383909116L191.126,133.6592978614416L191.56445454545454,131.2070530291336L192.0029090909091,127.00597158059327L192.44136363636363,130.1771018297869L192.8798181818182,135.27417537472863L193.3182727272727,131.94366951709927L193.75672727272726,128.4933569665309L194.19518181818182,127.29438301903582L194.63363636363636,126.86537597398264L195.07209090909092,125.73679897036175L195.51054545454545,130.28681184649383L195.949,136.50159229104278L196.38745454545455,137.61690142174828L196.82590909090908,138.03716873364414L197.26436363636364,140.28063364674395L197.70281818181817,130.30114004889202L198.14127272727274,124.42961930331272L198.57972727272727,131.88379396853853L199.01818181818183,132.71662549796196L199.45663636363636,134.47470776305386L199.8950909090909,130.47659995411684L200.33354545454546,130.37190383274427L200.772,126.67908397307207L201.21045454545455,129.01300404753715L201.6489090909091,131.8169281013763L202.08736363636365,131.321289382822L202.52581818181818,134.21830154711512L202.96427272727271,131.96353500453722L203.40272727272728,139.41597159174094L203.8411818181818,144.59268808047176L204.27963636363637,136.37318623425526L204.7180909090909,140.1534169236996L205.15654545454547,143.2927689202122L205.595,144.305166535274L206.03345454545453,142.87984142143205L206.4719090909091,142.31502367657086L206.91036363636363,138.78173763422848L207.3488181818182,139.17857350995587L207.78727272727275,141.25585383597505L208.22572727272728,142.50222203158648L208.66418181818182,143.83083840209858L209.10263636363635,137.85204766896246L209.5410909090909,142.49274282051488L209.97954545454544,148.23924528686535L210.418,144.65949321924185L210.85645454545457,139.99483447753514L211.2949090909091,145.23042394164918L211.73336363636363,144.01579131840202L212.17181818181817,140.96382993187382L212.61027272727273,139.13265309995694L213.04872727272726,141.51871971967654L213.48718181818182,140.3367597492277L213.9256363636364,142.45896670182213L214.36409090909092,135.52851939223171L214.80254545454545,134.4194577401809L215.24099999999999,136.6579980146754L215.67945454545455,138.58191763251688L216.11790909090908,130.44350134664586L216.55636363636364,134.65963474940307L216.9948181818182,138.54449057964342L217.43327272727274,138.55222226520797L217.87172727272727,143.49364303140698L218.3101818181818,139.19853192368615L218.74863636363636,142.42941979050332L219.1870909090909,139.72158888543382L219.62554545454546,136.3545039829574L220.06400000000002,135.7862212712055L220.50245454545453,133.99328341442038L220.9409090909091,139.59668881464452L221.37936363636362,144.4107410907699L221.81781818181818,142.07197257188375L222.25627272727274,143.70469696704984L222.69472727272728,146.00433239936737L223.13318181818184,143.318545486743L223.57163636363634,148.095823323763L224.0100909090909,149.21980366654003L224.44854545454544,145.5382055704907L224.887,147.68523301457677L225.32545454545456,150.13504038731827L225.7639090909091,148.99132486868243L226.20236363636366,145.98191374492112L226.64081818181816,151.04024672204218L227.07927272727272,146.0496759506471L227.51772727272726,143.34575161751104L227.95618181818182,141.43297888792839L228.39463636363638,142.0277016096135L228.8330909090909,147.14707428091612L229.27154545454547,149.52176782367775L229.70999999999998,148.91377946019904L230.14845454545454,146.51618195297607L230.58690909090907,143.3352370892075L231.02536363636364,148.57049913151167L231.4638181818182,152.40858641691395" style="fill: none;" fill="none"></path></g></g></g></g><g opacity="0.2"><g><g><g><path stroke="rgb(255, 112, 67)" stroke-width="2px" d="M31.528545454545455,-18.00958354656501L31.967000000000002,3.528366859142693L32.405454545454546,44.54722426487854L32.843909090909094,-30.593519036586372L33.282363636363634,23.85630973485806L33.72081818181819,44.91019591918362L34.15927272727273,24.582253043468256L34.59772727272727,60.156127572059674L35.03618181818182,41.28017332920666L35.474636363636364,39.828184696344266L35.91309090909091,67.77914440631868L36.35154545454545,12.24029865631698L36.79,23.85630973485806L37.22845454545455,43.2767214591687L37.66690909090909,51.44419577488536L38.10536363636364,48.394948234924954L38.54381818181818,43.458207286321255L38.98227272727273,57.97809361494508L39.42072727272727,56.526104982082714L39.85918181818182,45.49097096920016L40.297636363636364,40.64492192635174L40.736090909090905,65.23813879489903L41.17454545454546,48.54021850916058L41.613,53.62212771635792L42.05145454545454,55.800161673472516L42.489909090909094,56.526104982082714L42.928363636363635,60.156127572059674L43.36681818181818,37.75390064716345L43.80527272727272,52.41212018636561L44.24372727272728,52.170139083495556L44.68218181818182,48.54021850916058L45.12063636363636,52.896184407747754L45.55909090909091,48.358630666366025L45.99754545454545,61.60811620492204L46.436,42.00621865345886L46.87445454545455,37.01500135201678L47.312909090909095,56.09049819065977L47.751363636363635,47.088229876298215L48.18981818181818,54.348173040610135L48.62827272727273,53.518479824066205L49.06672727272727,67.4160707363716L49.50518181818182,50.96013155350322L49.943636363636365,47.814173184908384L50.382090909090905,57.97809361494508L50.82054545454545,71.04609332634855L51.259,64.5120934706468L51.69745454545455,57.43363613348744L52.13590909090909,65.23813879489903L52.57436363636364,65.23813879489903L53.01281818181818,68.14211606062379L53.45127272727272,64.5120934706468L53.88972727272727,53.62212771635792L54.32818181818182,65.9640821035092L54.766636363636366,74.67611591632551L55.205090909090906,60.156127572059674L55.64354545454545,61.880395953471876L56.082,68.86805936923396L56.52045454545454,57.736112512075024L56.958909090909096,65.9640821035092L57.397363636363636,64.5120934706468L57.83581818181818,79.75802512352284L58.27427272727273,61.60811620492204L58.71272727272727,74.67611591632551L59.15118181818182,64.5120934706468L59.58963636363636,63.060104837784436L60.02809090909091,70.56213112060841L60.466545454545454,72.91297957530391L60.905,68.14211606062379L61.34345454545455,97.54496238781856L61.78190909090909,69.59410469348616L62.220363636363636,70.94234341841481L62.658818181818184,77.39860735489773L63.09727272727273,84.11399102211L63.53572727272727,76.85404785779808L63.97418181818181,81.57308742633234L64.41263636363637,75.4020592249357L64.85109090909091,71.46099094244151L65.28954545454546,71.04609332634855L65.72800000000001,64.14912181634172L66.16645454545454,68.86805936923396L66.60490909090909,66.6901274277614L67.04336363636364,63.060104837784436L67.48181818181817,59.430082247807476L67.92027272727273,66.6901274277614L68.35872727272728,58.70413893919728L68.79718181818183,54.106191937740064L69.23563636363636,71.6510460835237L69.6740909090909,82.66200238924762L70.11254545454545,67.65805183924165L70.55099999999999,76.30959037634044L70.98945454545455,83.5954455137253L71.4279090909091,59.18810114493739L71.86636363636363,71.77203663495872L72.30481818181818,66.6901274277614L72.74327272727272,85.56608167061441L73.18172727272727,90.64799087781174L73.62018181818182,84.11399102211L74.05863636363637,70.32004800209636L74.49709090909091,84.65855051920965L74.93554545454545,81.93605908063743L75.374,92.82602483492632L75.81245454545454,84.8400363463622L76.25090909090909,58.46215783632722L76.68936363636364,76.85404785779808L77.12781818181818,76.70887959920445L77.56627272727273,66.6901274277614L78.00472727272727,70.83869552612306L78.44318181818181,76.61206675492802L78.88163636363636,72.98204416495106L79.32009090909092,92.82602483492632L79.75854545454546,89.19600224494936L80.197,88.47005893633917L80.63545454545455,76.85404785779808L81.07390909090908,69.59410469348616L81.51236363636363,79.03208181491267L81.95081818181818,84.11399102211L82.38927272727274,72.63417082566484L82.82772727272727,73.95007059207332L83.26618181818182,82.66200238924762L83.70463636363637,81.93605908063743L84.1430909090909,82.29903073494252L84.58154545454545,70.63119571025557L85.02000000000001,78.30603649066046L85.45845454545454,80.48407044777505L85.89690909090909,68.14211606062379L86.33536363636364,81.35528403062088L86.77381818181819,96.45594540926126L87.21227272727272,80.48407044777505L87.65072727272727,78.30603649066046L88.08918181818183,89.19600224494936L88.52763636363636,103.7159905892152L88.96609090909091,74.67611591632551L89.40454545454546,78.30603649066046L89.843,75.4020592249357L90.28145454545454,84.11399102211L90.71990909090908,63.54406704352455L91.15836363636365,100.08596799923824L91.59681818181818,78.30603649066046L92.03527272727273,93.5519681435365L92.47372727272727,92.26136825634885L92.91218181818182,77.58009318205028L93.35063636363635,81.93605908063743L93.78909090909092,95.21145659226639L94.22754545454546,90.40600977494168L94.666,76.85404785779808L95.10445454545454,79.03208181491267L95.54290909090909,105.89392253068776L95.98136363636364,100.32794910210829L96.41981818181817,86.29202497922458L96.85827272727273,73.95007059207332L97.29672727272728,89.19600224494936L97.73518181818181,95.00395677639888L98.17363636363636,82.66200238924762L98.61209090909091,100.08596799923824L99.05054545454544,101.71944245925316L99.489,91.37403620206393L99.92745454545455,102.40917021494644L100.3659090909091,101.8283951649299L100.80436363636363,94.6409851220938L101.24281818181818,89.19600224494936L101.68127272727273,111.70197907777931L102.11972727272726,76.12810454918791L102.55818181818182,97.90803605776567L102.99663636363637,84.11399102211L103.43509090909092,74.67611591632551L103.87354545454545,107.34591116355014L104.312,102.26400195635281L104.75045454545455,76.12810454918791L105.18890909090908,90.64799087781174L105.62736363636364,108.07195648780235L106.06581818181819,86.29202497922458L106.50427272727273,85.56608167061441L106.94272727272727,84.8400363463622L107.38118181818182,113.1539677106417L107.81963636363636,81.21001375638524L108.25809090909091,97.18199073351347L108.69654545454546,90.12005993036125L109.135,106.20507023884699L109.57345454545454,114.06139684640442L110.01190909090909,102.26400195635281L110.45036363636363,93.5519681435365L110.88881818181818,101.9009282864057L111.32727272727273,98.63397936637585L111.76572727272728,95.10770668433263L112.20418181818182,83.38804771349982L112.64263636363636,96.45594540926126L113.0810909090909,94.2780134677887L113.51954545454545,96.45594540926126L113.95800000000001,87.01807030347678L114.39645454545455,76.85404785779808L114.8349090909091,100.08596799923824L115.27336363636364,84.11399102211L115.71181818181817,81.75457325348489L116.15027272727272,98.63397936637585L116.58872727272727,90.64799087781174L117.02718181818183,95.00395677639888L117.46563636363636,107.34591116355014L117.90409090909091,95.97198320352115L118.34254545454546,106.61996785493996L118.78099999999999,102.26400195635281L119.21945454545454,82.66200238924762L119.6579090909091,85.56608167061441L120.09636363636365,108.79789979641252L120.53481818181818,100.08596799923824L120.97327272727273,102.26400195635281L121.41172727272728,97.18199073351347L121.85018181818181,83.38804771349982L122.28863636363636,86.14685672063095L122.72709090909092,95.73000210065109L123.16554545454545,119.68786555070142L123.604,116.78388828497665L124.04245454545455,77.58009318205028L124.4809090909091,102.26400195635281L124.91936363636363,104.68391500069544L125.35781818181817,96.45594540926126L125.79627272727274,105.89392253068776L126.23472727272727,97.18199073351347L126.67318181818182,98.63397936637585L127.11163636363636,88.47005893633917L127.55009090909091,98.0290266092007L127.98854545454545,100.08596799923824L128.427,113.87991101925188L128.86545454545455,113.63792991638182L129.3039090909091,84.94378625429596L129.74236363636362,106.0754083578403L130.18081818181818,99.36002469062805L130.61927272727272,96.45594540926126L131.05772727272728,121.86589950781601L131.4961818181818,99.72299634493314L131.93463636363637,98.63397936637585L132.3730909090909,106.25699620063487L132.81154545454547,101.05399442636049L133.25,122.04738533496854L133.68845454545453,95.00395677639888L134.1269090909091,110.24988842927492L134.56536363636363,87.74401361208697L135.0038181818182,104.44193389782538L135.44227272727272,96.45594540926126L135.88072727272728,118.96192224209125L136.31918181818182,108.07195648780235L136.75763636363635,84.8400363463622L137.1960909090909,106.61996785493996L137.63454545454545,115.33189965211426L138.073,113.27495826207672L138.51145454545457,105.89392253068776L138.9499090909091,107.34591116355014L139.38836363636364,93.5519681435365L139.82681818181817,95.73000210065109L140.26527272727273,109.52394512066473L140.70372727272726,98.63397936637585L141.14218181818183,116.05794497636646L141.5806363636364,104.44193389782538L142.0190909090909,110.24988842927492L142.45754545454545,115.33189965211426L142.896,120.41391087495361L143.33445454545455,113.87991101925188L143.77290909090908,118.96192224209125L144.21136363636364,106.61996785493996L144.6498181818182,126.22186540640315L145.0882727272727,114.42447051635153L145.52672727272727,117.50993360922885L145.9651818181818,103.7159905892152L146.40363636363637,117.50993360922885L146.8420909090909,111.99231559496658L147.28054545454546,110.24988842927492L147.71900000000002,102.26400195635281L148.15745454545453,110.24988842927492L148.5959090909091,89.92204756920155L149.03436363636362,89.19600224494936L149.47281818181818,111.12110201212074L149.91127272727272,114.60595634350409L150.34972727272728,101.53795663210062L150.78818181818184,100.87250859920795L151.22663636363635,116.05794497636646L151.6650909090909,103.7159905892152L152.10354545454544,114.60595634350409L152.542,120.41391087495361L152.98045454545456,100.81201332349043L153.4189090909091,111.70197907777931L153.85736363636366,115.33189965211426L154.29581818181816,96.45594540926126L154.73427272727272,111.70197907777931L155.17272727272726,105.89392253068776L155.61118181818182,122.2288711621211L156.04963636363638,114.60595634350409L156.48809090909091,110.24988842927492L156.92654545454548,115.33189965211426L157.36499999999998,120.89787308069373L157.80345454545454,106.61996785493996L158.24190909090908,104.7530816059846L158.68036363636364,106.61996785493996L159.1188181818182,113.5169393649468L159.55727272727273,101.71944245925316L159.9957272727273,110.00790732640485L160.4341818181818,102.26400195635281L160.87263636363636,121.86589950781601L161.3110909090909,112.4279223863895L161.74954545454545,109.52394512066473L162.18800000000002,112.4279223863895L162.62645454545455,103.35291691926808L163.0649090909091,114.84793744637415L163.50336363636362,121.86589950781601L163.94181818181818,123.86234562213602L164.3802727272727,126.22186540640315L164.81872727272727,106.61996785493996L165.25718181818183,93.5519681435365L165.69563636363637,113.87991101925188L166.13409090909093,118.59895058778613L166.57254545454543,120.23242504780106L167.011,120.41391087495361L167.44945454545456,126.94791073065535L167.8879090909091,114.60595634350409L168.32636363636365,119.68786555070142L168.76481818181819,130.5778313049903L169.20327272727272,124.76987677354077L169.64172727272725,119.68786555070142L170.0801818181818,129.12584267212793L170.51863636363638,115.33189965211426L170.9570909090909,115.87645914921393L171.39554545454547,108.07195648780235L171.834,118.96192224209125L172.27245454545454,127.43187293639548L172.71090909090907,116.78388828497665L173.14936363636363,124.04393346493057L173.5878181818182,118.23587691783902L174.02627272727273,131.6668482835476L174.4647272727273,120.41391087495361L174.90318181818182,124.04393346493057L175.34163636363635,108.07195648780235L175.7800909090909,111.70197907777931L176.21854545454545,123.68085979498348L176.657,133.66339641350964L177.09545454545454,114.12189212212195L177.5339090909091,129.85188799638013L177.97236363636364,137.11183116069202L178.41081818181817,138.56381979355442L178.8492727272727,104.58720417206104L179.28772727272727,120.05093922064853L179.72618181818183,114.60595634350409L180.16463636363636,134.93379720357746L180.60309090909092,125.97988430353308L181.04154545454546,139.2898651178066L181.48,127.67385403926554L181.91845454545455,127.67385403926554L182.35690909090908,126.22186540640315L182.79536363636365,118.96192224209125L183.23381818181818,121.1398541835638L183.67227272727274,119.10709050068488L184.11072727272727,127.67385403926554L184.5491818181818,121.1398541835638L184.98763636363637,127.67385403926554L185.4260909090909,125.49592209779297L185.86454545454546,126.22186540640315L186.303,128.21841353636518L186.74145454545456,125.49592209779297L187.1799090909091,123.31788814067838L187.61836363636363,125.85889375209806L188.0568181818182,100.08596799923824L188.49527272727272,136.38588785208185L188.93372727272728,142.91978569214157L189.37218181818182,131.3038766292425L189.81063636363638,137.11183116069202L190.2490909090909,130.81981240786035L190.68754545454544,134.44983499783734L191.126,134.2078538949673L191.56445454545454,127.5286857806719L192.0029090909091,120.7043494077829L192.44136363636363,134.93379720357746L192.8798181818182,142.91978569214157L193.3182727272727,126.94791073065535L193.75672727272726,123.31788814067838L194.19518181818182,125.49592209779297L194.63363636363636,126.22186540640315L195.07209090909092,124.04393346493057L195.51054545454545,137.11183116069202L195.949,145.82376295786634L196.38745454545455,139.2898651178066L196.82590909090908,138.66756970148816L197.26436363636364,143.64583101639377L197.70281818181817,115.33189965211426L198.14127272727274,115.62233818494354L198.57972727272727,143.0650559663772L199.01818181818183,133.9658727920972L199.45663636363636,137.11183116069202L199.8950909090909,124.47943824071149L200.33354545454546,130.2148596506852L200.772,121.1398541835638L201.21045454545455,132.5138841592348L201.6489090909091,136.02281418213474L202.08736363636365,130.5778313049903L202.52581818181818,138.56381979355442L202.96427272727271,128.5813851906703L203.40272727272728,150.59462647254645L203.8411818181818,152.35776281356806L204.27963636363637,124.04393346493057L204.7180909090909,145.82376295786634L205.15654545454547,148.00179691498093L205.595,145.82376295786634L206.03345454545453,140.741853750669L206.4719090909091,141.46779705927918L206.91036363636363,133.4818085707151L207.3488181818182,139.77382732354675L207.78727272727275,144.37177432500394L208.22572727272728,144.37177432500394L208.66418181818182,145.82376295786634L209.10263636363635,128.88386156925787L209.5410909090909,149.4537855478433L209.97954545454544,156.85899898639087L210.418,139.2898651178066L210.85645454545457,132.99784636497495L211.2949090909091,153.08380813782026L211.73336363636363,142.19384238353138L212.17181818181817,136.38588785208185L212.61027272727273,136.38588785208185L213.04872727272726,145.09781964925617L213.48718181818182,138.56381979355442L213.9256363636364,145.64227713071378L214.36409090909092,125.13284842784586L214.80254545454545,132.7558652621049L215.24099999999999,140.0158084264168L215.67945454545455,141.46779705927918L216.11790909090908,118.23587691783902L216.55636363636364,140.98383485353907L216.9948181818182,144.37177432500394L217.43327272727274,138.56381979355442L217.87172727272727,150.9057741807057L218.3101818181818,132.7558652621049L218.74863636363636,147.2757515907287L219.1870909090909,135.65984252782965L219.62554545454546,131.3038766292425L220.06400000000002,134.93379720357746L220.50245454545453,131.3038766292425L220.9409090909091,148.00179691498093L221.37936363636362,151.6318195049579L221.81781818181818,138.56381979355442L222.25627272727274,146.15378355979917L222.69472727272728,149.4537855478433L223.13318181818184,139.2898651178066L223.57163636363634,155.26174007929285L224.0100909090909,150.9057741807057L224.44854545454544,140.0158084264168L224.887,150.9057741807057L225.32545454545456,153.80975144643045L225.7639090909091,147.2757515907287L226.20236363636366,141.46779705927918L226.64081818181816,158.62774618772355L227.07927272727272,138.56381979355442L227.51772727272726,139.2898651178066L227.95618181818182,138.56381979355442L228.39463636363638,142.91978569214157L228.8330909090909,154.8261332878699L229.27154545454547,153.08380813782026L229.70999999999998,148.00179691498093L230.14845454545454,142.91978569214157L230.58690909090907,138.56381979355442L231.02536363636364,156.42339219496796L231.4638181818182,158.1657173450176" style="fill: none;" fill="none"></path></g></g></g></g></g></g><g transform="translate(70, 178)" clip-path="url(#clip_1)"><clipPath id="clip_1"><rect width="260" height="22"></rect></clipPath><g><g><line x1="0" y1="0" x2="0" y2="5" style="visibility: inherit;" fill="rgb(0, 0, 0)" stroke="rgb(204, 204, 204)" stroke-width="1px"></line><line x1="23.636363636363637" y1="0" x2="23.636363636363637" y2="5" style="visibility: inherit;" fill="rgb(0, 0, 0)" stroke="rgb(204, 204, 204)" stroke-width="1px"></line><line x1="47.27272727272727" y1="0" x2="47.27272727272727" y2="5" style="visibility: inherit;" fill="rgb(0, 0, 0)" stroke="rgb(204, 204, 204)" stroke-width="1px"></line><line x1="70.9090909090909" y1="0" x2="70.9090909090909" y2="5" style="visibility: inherit;" fill="rgb(0, 0, 0)" stroke="rgb(204, 204, 204)" stroke-width="1px"></line><line x1="94.54545454545455" y1="0" x2="94.54545454545455" y2="5" style="visibility: inherit;" fill="rgb(0, 0, 0)" stroke="rgb(204, 204, 204)" stroke-width="1px"></line><line x1="118.18181818181817" y1="0" x2="118.18181818181817" y2="5" style="visibility: inherit;" fill="rgb(0, 0, 0)" stroke="rgb(204, 204, 204)" stroke-width="1px"></line><line x1="141.8181818181818" y1="0" x2="141.8181818181818" y2="5" style="visibility: inherit;" fill="rgb(0, 0, 0)" stroke="rgb(204, 204, 204)" stroke-width="1px"></line><line x1="165.45454545454544" y1="0" x2="165.45454545454544" y2="5" style="visibility: inherit;" fill="rgb(0, 0, 0)" stroke="rgb(204, 204, 204)" stroke-width="1px"></line><line x1="189.0909090909091" y1="0" x2="189.0909090909091" y2="5" style="visibility: inherit;" fill="rgb(0, 0, 0)" stroke="rgb(204, 204, 204)" stroke-width="1px"></line><line x1="212.72727272727275" y1="0" x2="212.72727272727275" y2="5" style="visibility: inherit;" fill="rgb(0, 0, 0)" stroke="rgb(204, 204, 204)" stroke-width="1px"></line><line x1="236.36363636363635" y1="0" x2="236.36363636363635" y2="5" style="visibility: inherit;" fill="rgb(0, 0, 0)" stroke="rgb(204, 204, 204)" stroke-width="1px"></line><line x1="260" y1="0" x2="260" y2="5" style="visibility: inherit;" fill="rgb(0, 0, 0)" stroke="rgb(204, 204, 204)" stroke-width="1px"></line></g><g transform="translate(0, 8)"><text x="0" y="0" dx="0em" dy="0.95em" style="text-anchor: middle; visibility: hidden; font-family: &quot;Helvetica Neue&quot;, sans-serif; font-size: 12px; font-weight: 200;" fill="rgb(50, 49, 63)" stroke="none" stroke-width="1px">-20k</text><text x="23.636363636363637" y="0" dx="0em" dy="0.95em" style="text-anchor: middle; visibility: inherit; font-family: &quot;Helvetica Neue&quot;, sans-serif; font-size: 12px; font-weight: 200;" fill="rgb(50, 49, 63)" stroke="none" stroke-width="1px">0</text><text x="47.27272727272727" y="0" dx="0em" dy="0.95em" style="text-anchor: middle; visibility: hidden; font-family: &quot;Helvetica Neue&quot;, sans-serif; font-size: 12px; font-weight: 200;" fill="rgb(50, 49, 63)" stroke="none" stroke-width="1px">20k</text><text x="70.9090909090909" y="0" dx="0em" dy="0.95em" style="text-anchor: middle; visibility: inherit; font-family: &quot;Helvetica Neue&quot;, sans-serif; font-size: 12px; font-weight: 200;" fill="rgb(50, 49, 63)" stroke="none" stroke-width="1px">40k</text><text x="94.54545454545455" y="0" dx="0em" dy="0.95em" style="text-anchor: middle; visibility: hidden; font-family: &quot;Helvetica Neue&quot;, sans-serif; font-size: 12px; font-weight: 200;" fill="rgb(50, 49, 63)" stroke="none" stroke-width="1px">60k</text><text x="118.18181818181817" y="0" dx="0em" dy="0.95em" style="text-anchor: middle; visibility: inherit; font-family: &quot;Helvetica Neue&quot;, sans-serif; font-size: 12px; font-weight: 200;" fill="rgb(50, 49, 63)" stroke="none" stroke-width="1px">80k</text><text x="141.8181818181818" y="0" dx="0em" dy="0.95em" style="text-anchor: middle; visibility: hidden; font-family: &quot;Helvetica Neue&quot;, sans-serif; font-size: 12px; font-weight: 200;" fill="rgb(50, 49, 63)" stroke="none" stroke-width="1px">100k</text><text x="165.45454545454544" y="0" dx="0em" dy="0.95em" style="text-anchor: middle; visibility: inherit; font-family: &quot;Helvetica Neue&quot;, sans-serif; font-size: 12px; font-weight: 200;" fill="rgb(50, 49, 63)" stroke="none" stroke-width="1px">120k</text><text x="189.0909090909091" y="0" dx="0em" dy="0.95em" style="text-anchor: middle; visibility: hidden; font-family: &quot;Helvetica Neue&quot;, sans-serif; font-size: 12px; font-weight: 200;" fill="rgb(50, 49, 63)" stroke="none" stroke-width="1px">140k</text><text x="212.72727272727275" y="0" dx="0em" dy="0.95em" style="text-anchor: middle; visibility: inherit; font-family: &quot;Helvetica Neue&quot;, sans-serif; font-size: 12px; font-weight: 200;" fill="rgb(50, 49, 63)" stroke="none" stroke-width="1px">160k</text><text x="236.36363636363635" y="0" dx="0em" dy="0.95em" style="text-anchor: middle; visibility: hidden; font-family: &quot;Helvetica Neue&quot;, sans-serif; font-size: 12px; font-weight: 200;" fill="rgb(50, 49, 63)" stroke="none" stroke-width="1px">180k</text><text x="260" y="0" dx="0em" dy="0.95em" style="text-anchor: middle; visibility: hidden; font-family: &quot;Helvetica Neue&quot;, sans-serif; font-size: 12px; font-weight: 200;" fill="rgb(50, 49, 63)" stroke="none" stroke-width="1px">200k</text></g><line x1="0" y1="0" x2="260" y2="0" fill="rgb(0, 0, 0)" stroke="rgb(204, 204, 204)" stroke-width="1px"></line></g></g></g></g></svg>