<svg viewBox="0 0 330 200" xmlns="http://www.w3.org/2000/svg"><g><g><g><g><g><line x1="94" y1="178" x2="89" y2="178" style="visibility: inherit;" fill="rgb(0, 0, 0)" stroke="rgb(204, 204, 204)" stroke-width="1px"></line><line x1="94" y1="158.22222222222223" x2="89" y2="158.22222222222223" style="visibility: inherit;" fill="rgb(0, 0, 0)" stroke="rgb(204, 204, 204)" stroke-width="1px"></line><line x1="94" y1="138.44444444444446" x2="89" y2="138.44444444444446" style="visibility: inherit;" fill="rgb(0, 0, 0)" stroke="rgb(204, 204, 204)" stroke-width="1px"></line><line x1="94" y1="118.66666666666667" x2="89" y2="118.66666666666667" style="visibility: inherit;" fill="rgb(0, 0, 0)" stroke="rgb(204, 204, 204)" stroke-width="1px"></line><line x1="94" y1="98.8888888888889" x2="89" y2="98.8888888888889" style="visibility: inherit;" fill="rgb(0, 0, 0)" stroke="rgb(204, 204, 204)" stroke-width="1px"></line><line x1="94" y1="79.1111111111111" x2="89" y2="79.1111111111111" style="visibility: inherit;" fill="rgb(0, 0, 0)" stroke="rgb(204, 204, 204)" stroke-width="1px"></line><line x1="94" y1="59.33333333333334" x2="89" y2="59.33333333333334" style="visibility: inherit;" fill="rgb(0, 0, 0)" stroke="rgb(204, 204, 204)" stroke-width="1px"></line><line x1="94" y1="39.55555555555554" x2="89" y2="39.55555555555554" style="visibility: inherit;" fill="rgb(0, 0, 0)" stroke="rgb(204, 204, 204)" stroke-width="1px"></line><line x1="94" y1="19.7777777777778" x2="89" y2="19.7777777777778" style="visibility: inherit;" fill="rgb(0, 0, 0)" stroke="rgb(204, 204, 204)" stroke-width="1px"></line><line x1="94" y1="0" x2="89" y2="0" style="visibility: inherit;" fill="rgb(0, 0, 0)" stroke="rgb(204, 204, 204)" stroke-width="1px"></line></g><g transform="translate(84, 0)"><text x="0" y="178" dx="0em" dy="0.3em" style="text-anchor: end; visibility: hidden; font-family: &quot;Helvetica Neue&quot;, sans-serif; font-size: 12px; font-weight: 200;" fill="rgb(50, 49, 63)" stroke="none" stroke-width="1px">3.68e+3</text><text x="0" y="158.22222222222223" dx="0em" dy="0.3em" style="text-anchor: end; visibility: inherit; font-family: &quot;Helvetica Neue&quot;, sans-serif; font-size: 12px; font-weight: 200;" fill="rgb(50, 49, 63)" stroke="none" stroke-width="1px">3.69e+3</text><text x="0" y="138.44444444444446" dx="0em" dy="0.3em" style="text-anchor: end; visibility: hidden; font-family: &quot;Helvetica Neue&quot;, sans-serif; font-size: 12px; font-weight: 200;" fill="rgb(50, 49, 63)" stroke="none" stroke-width="1px">3.7e+3</text><text x="0" y="118.66666666666667" dx="0em" dy="0.3em" style="text-anchor: end; visibility: inherit; font-family: &quot;Helvetica Neue&quot;, sans-serif; font-size: 12px; font-weight: 200;" fill="rgb(50, 49, 63)" stroke="none" stroke-width="1px">3.71e+3</text><text x="0" y="98.8888888888889" dx="0em" dy="0.3em" style="text-anchor: end; visibility: hidden; font-family: &quot;Helvetica Neue&quot;, sans-serif; font-size: 12px; font-weight: 200;" fill="rgb(50, 49, 63)" stroke="none" stroke-width="1px">3.72e+3</text><text x="0" y="79.1111111111111" dx="0em" dy="0.3em" style="text-anchor: end; visibility: inherit; font-family: &quot;Helvetica Neue&quot;, sans-serif; font-size: 12px; font-weight: 200;" fill="rgb(50, 49, 63)" stroke="none" stroke-width="1px">3.73e+3</text><text x="0" y="59.33333333333334" dx="0em" dy="0.3em" style="text-anchor: end; visibility: hidden; font-family: &quot;Helvetica Neue&quot;, sans-serif; font-size: 12px; font-weight: 200;" fill="rgb(50, 49, 63)" stroke="none" stroke-width="1px">3.74e+3</text><text x="0" y="39.55555555555554" dx="0em" dy="0.3em" style="text-anchor: end; visibility: inherit; font-family: &quot;Helvetica Neue&quot;, sans-serif; font-size: 12px; font-weight: 200;" fill="rgb(50, 49, 63)" stroke="none" stroke-width="1px">3.75e+3</text><text x="0" y="19.7777777777778" dx="0em" dy="0.3em" style="text-anchor: end; visibility: hidden; font-family: &quot;Helvetica Neue&quot;, sans-serif; font-size: 12px; font-weight: 200;" fill="rgb(50, 49, 63)" stroke="none" stroke-width="1px">3.76e+3</text><text x="0" y="0" dx="0em" dy="0.3em" style="text-anchor: end; visibility: hidden; font-family: &quot;Helvetica Neue&quot;, sans-serif; font-size: 12px; font-weight: 200;" fill="rgb(50, 49, 63)" stroke="none" stroke-width="1px">3.77e+3</text></g><line x1="94" y1="0" x2="94" y2="178" fill="rgb(0, 0, 0)" stroke="rgb(204, 204, 204)" stroke-width="1px"></line></g></g><g transform="translate(94, 0)" clip-path="url(#clip_0)"><clipPath id="clip_0"><rect width="236" height="178"></rect></clipPath><g><g><g><line x1="0" y1="0" x2="0" y2="178" fill="rgb(0, 0, 0)" stroke="rgb(60, 60, 60)" stroke-width="1px" opacity="0.25"></line><line x1="21.454545454545457" y1="0" x2="21.454545454545457" y2="178" fill="rgb(0, 0, 0)" stroke="rgb(60, 60, 60)" stroke-width="1px" opacity="0.25"></line><line x1="42.909090909090914" y1="0" x2="42.909090909090914" y2="178" fill="rgb(0, 0, 0)" stroke="rgb(60, 60, 60)" stroke-width="1px" opacity="0.25"></line><line x1="64.36363636363636" y1="0" x2="64.36363636363636" y2="178" fill="rgb(0, 0, 0)" stroke="rgb(60, 60, 60)" stroke-width="1px" opacity="0.25"></line><line x1="85.81818181818183" y1="0" x2="85.81818181818183" y2="178" fill="rgb(0, 0, 0)" stroke="rgb(60, 60, 60)" stroke-width="1px" opacity="0.25"></line><line x1="107.27272727272727" y1="0" x2="107.27272727272727" y2="178" fill="rgb(0, 0, 0)" stroke="rgb(60, 60, 60)" stroke-width="1px" opacity="0.25"></line><line x1="128.72727272727272" y1="0" x2="128.72727272727272" y2="178" fill="rgb(0, 0, 0)" stroke="rgb(60, 60, 60)" stroke-width="1px" opacity="0.25"></line><line x1="150.1818181818182" y1="0" x2="150.1818181818182" y2="178" fill="rgb(0, 0, 0)" stroke="rgb(60, 60, 60)" stroke-width="1px" opacity="0.25"></line><line x1="171.63636363636365" y1="0" x2="171.63636363636365" y2="178" fill="rgb(0, 0, 0)" stroke="rgb(60, 60, 60)" stroke-width="1px" opacity="0.25"></line><line x1="193.0909090909091" y1="0" x2="193.0909090909091" y2="178" fill="rgb(0, 0, 0)" stroke="rgb(60, 60, 60)" stroke-width="1px" opacity="0.25"></line><line x1="214.54545454545453" y1="0" x2="214.54545454545453" y2="178" fill="rgb(0, 0, 0)" stroke="rgb(60, 60, 60)" stroke-width="1px" opacity="0.25"></line><line x1="236" y1="0" x2="236" y2="178" fill="rgb(0, 0, 0)" stroke="rgb(60, 60, 60)" stroke-width="1px" opacity="0.25"></line></g><g><line x1="0" y1="178" x2="236" y2="178" fill="rgb(0, 0, 0)" stroke="rgb(60, 60, 60)" stroke-width="1px" opacity="0.25"></line><line x1="0" y1="158.22222222222223" x2="236" y2="158.22222222222223" fill="rgb(0, 0, 0)" stroke="rgb(60, 60, 60)" stroke-width="1px" opacity="0.25"></line><line x1="0" y1="138.44444444444446" x2="236" y2="138.44444444444446" fill="rgb(0, 0, 0)" stroke="rgb(60, 60, 60)" stroke-width="1px" opacity="0.25"></line><line x1="0" y1="118.66666666666667" x2="236" y2="118.66666666666667" fill="rgb(0, 0, 0)" stroke="rgb(60, 60, 60)" stroke-width="1px" opacity="0.25"></line><line x1="0" y1="98.8888888888889" x2="236" y2="98.8888888888889" fill="rgb(0, 0, 0)" stroke="rgb(60, 60, 60)" stroke-width="1px" opacity="0.25"></line><line x1="0" y1="79.1111111111111" x2="236" y2="79.1111111111111" fill="rgb(0, 0, 0)" stroke="rgb(60, 60, 60)" stroke-width="1px" opacity="0.25"></line><line x1="0" y1="59.33333333333334" x2="236" y2="59.33333333333334" fill="rgb(0, 0, 0)" stroke="rgb(60, 60, 60)" stroke-width="1px" opacity="0.25"></line><line x1="0" y1="39.55555555555554" x2="236" y2="39.55555555555554" fill="rgb(0, 0, 0)" stroke="rgb(60, 60, 60)" stroke-width="1px" opacity="0.25"></line><line x1="0" y1="19.7777777777778" x2="236" y2="19.7777777777778" fill="rgb(0, 0, 0)" stroke="rgb(60, 60, 60)" stroke-width="1px" opacity="0.25"></line><line x1="0" y1="0" x2="236" y2="0" fill="rgb(0, 0, 0)" stroke="rgb(60, 60, 60)" stroke-width="1px" opacity="0.25"></line></g></g></g><g><g><line x1="0" y1="7456.222222222222" x2="236" y2="7456.222222222222" fill="rgb(0, 0, 0)" stroke="rgb(153, 153, 153)" stroke-width="1.5px"></line></g></g><g><g><line x1="21.454545454545457" y1="0" x2="21.454545454545457" y2="178" fill="rgb(0, 0, 0)" stroke="rgb(153, 153, 153)" stroke-width="1.5px"></line></g></g><g><g><g><g><g><path stroke="rgb(255, 112, 67)" stroke-width="2px" d="M26.08550909090909,-1.8014194080146524L26.174545454545456,0.17457372279451988L26.273236363636364,1.7651891219929325L26.291472727272726,2.7964290152196156L26.787072727272726,5.229938577747362L26.961927272727273,7.339775215440767L27.188272727272725,9.47810124209198L27.593763636363636,12.419417170281037L27.791145454545454,15.134660285591252L27.880181818181818,17.24048150157938L28.105454545454545,19.466788901180564L28.640745454545453,23.21569400066494L28.65361818181818,25.521048344930108L28.80701818181818,27.45587553477975L28.927163636363638,29.133041379918836L29.12990909090909,30.95633307449347L29.45709090909091,33.2616969801239L29.460309090909092,34.652254733217546L29.819672727272724,36.681561173266545L29.85721818181818,38.06273661715565L30.107163636363637,39.78086245640577L30.229454545454544,41.24688769953934L30.273436363636367,42.25262480722432L30.57058181818182,43.7512819155844L30.58130909090909,44.684082951433794L30.978218181818182,46.32690593405562L31.039363636363635,47.45687706737783L31.388,48.97869872306612L31.61112727272727,50.419456647034124L31.70338181818182,51.52070393613731L31.857854545454543,52.508635469321646L32.60983636363636,54.6784017677041L32.695654545454545,56.16123593909593L32.74178181818181,57.1677875704022L32.83296363636363,57.981084868629836L33.01854545454545,58.87466220589886L33.15263636363636,59.65957596937211L33.21807272727273,60.27171129342919L33.275999999999996,60.72223684550214L33.825236363636364,62.01543412119071L33.86170909090909,62.85431689632536L33.989363636363635,63.540552377379086L34.06874545454546,64.08903845767745L34.29401818181818,64.79591656418998L34.299381818181814,65.2358811017079L34.5032,65.9419626888025L34.638363636363636,66.58386250911539L35.26805454545455,68.06238130755274L35.43647272727273,69.22935586786498L35.465436363636364,69.98304103807938L36.04041818181818,71.29241793882021L36.06509090909091,72.11860397509768L36.26890909090909,72.9237296593638L36.78810909090909,74.07411192756273L36.83530909090909,74.81166116695466L37.18930909090909,75.66693593628374L37.308381818181815,76.32553699579854L37.40921818181818,76.86381612108988L38.05285454545455,77.9120331622371L38.36501818181818,78.8859156438702L38.74261818181819,79.91408627868323L38.96252727272727,80.75947607276585L39.53750909090909,81.77370864713208L39.76170909090909,82.61575730633481L39.79496363636364,83.16096697060608L40.03096363636364,83.70557106778102L40.05456363636364,84.07366599136343L40.2734,84.47472476842951L40.28841818181819,84.72714171869643L41.24743636363636,85.62798424996804L41.960800000000006,86.69654098400878L42.01765454545454,87.37514464248842L42.40598181818182,88.05753470215936L42.522909090909096,88.54635024837931L42.62052727272727,88.90550112124998L42.903727272727274,89.28381065538906L42.965945454545455,89.56545566406605L42.9756,89.74776949218945L43.17083636363636,89.9573986744807L43.17941818181818,90.09399215607749L43.25558181818182,90.222688696425L43.38109090909091,90.3570767595213L43.48729090909091,90.49256202793464L43.52912727272727,90.6066873903719L43.74474545454546,90.79201373630575L43.747963636363636,90.90533410983902L43.82627272727273,91.02701991034714L44.06763636363636,91.22538078301402L44.1362909090909,91.384764060086L44.23069090909091,91.55127727285716L44.32401818181818,91.70487877690837L44.891490909090905,92.1736672835065L45.31736363636363,92.7380870888539L45.408545454545454,93.1779455692842L45.43858181818182,93.46812801865367L46.27530909090909,94.07912550910977L46.28603636363636,94.45306341310476L46.33323636363637,94.69983066938991L46.43407272727273,94.88709892246727L46.51452727272727,95.04735917986962L46.58532727272727,95.16591984819937L46.70654545454545,95.2907498255854L46.846000000000004,95.44116647521163L46.8578,95.53759702054364L46.87925454545454,95.6095547401036L47.35769090909091,95.89840645517309L47.502509090909086,96.17968406407572L47.50465454545455,96.3476780599732L47.545418181818185,96.47358296445579L47.86616363636364,96.71059292103494L47.97987272727273,96.90803761025967L48.20192727272727,97.12577959740581L48.54412727272727,97.42735577927682L48.69216363636364,97.68169558562182L49.14378181818182,97.97838367081808L49.18132727272727,98.17184791082418L49.26070909090909,98.32327150691081L49.670490909090915,98.55434701872981L50.20041818181818,98.90989119734918L50.20149090909091,99.12379713160378L50.58338181818182,99.39429346993485L50.959909090909086,99.70453832154442L51.06503636363636,99.93530111792683L51.10258181818182,100.08882389992313L51.30318181818182,100.2485373955098L51.4008,100.36734943383436L51.96076363636364,100.65495610127249L52.07340000000001,100.84876576145757L52.531454545454544,101.1170545957629L52.55934545454546,101.28459473662458L52.630145454545456,101.39960449822439L52.77925454545454,101.52269021629503L52.845763636363635,101.61508331380462L53.06889090909091,101.76535207161592L53.21907272727273,101.90360577421956L53.45292727272727,102.07327891592134L53.64172727272727,102.24615918983058L53.66961818181819,102.36572502778652L53.82301818181818,102.48845411389414L53.987145454545455,102.63548566278165L54.14054545454545,102.78087473100196L54.29287272727273,102.90944063721157L54.39370909090909,103.01651724691064L54.408727272727276,103.08520548703491L55.14461818181818,103.31125567069317L55.18430909090909,103.46890401005497L55.653090909090906,103.73249257964463L55.71316363636363,103.90841481861975L55.78610909090909,104.04680236339443L56.00387272727273,104.20438784164759L56.24845454545455,104.3868189029054L56.36323636363636,104.53239516118805L56.4866,104.65392711407466L56.599236363636365,104.74770566080572L56.74083636363637,104.83294414301122L56.74941818181818,104.8858255135845L56.89101818181818,104.96950963106683L57.04870909090909,105.05255430294548L57.25681818181818,105.16708379704507L57.286854545454545,105.24719689281127L57.64514545454545,105.39048393429769L57.658018181818186,105.48070529113436L57.6784,105.54295008440266L57.696636363636365,105.58512551939195L57.75456363636364,105.62704102344054L57.79425454545455,105.65508746128654L57.83394545454546,105.68215186913304L57.96589090909091,105.72678244092445L58.315599999999996,105.85824394372187L58.49045454545455,105.97265903984425L58.56983636363636,106.06294004196228L59.35721818181818,106.31314813976088L59.37974545454545,106.46926041163466L59.40441818181818,106.5664043372593L59.51812727272728,106.66447801902206L59.82707272727272,106.80154488432991L59.910745454545456,106.90522380559811L60.02230909090908,107.00103792919185L60.112418181818185,107.08518004918213L60.74747272727272,107.26507070312111L60.77965454545455,107.37744736978897L60.895509090909094,107.4746172934008L60.984545454545454,107.55165405659585L61.362145454545455,107.68749417006845L61.67001818181818,107.85687801245773L61.96501818181819,108.0313229880302L62.08516363636364,108.1566562060122L62.68910909090909,108.31664563332919L62.70627272727273,108.41727470638604L62.99054545454546,108.55587480647016L63.11927272727272,108.66047366860468L63.27052727272727,108.74988663171872L63.608436363636365,108.89237989569844L64.04396363636363,109.05667793741888L64.23276363636364,109.2095297659232L64.26601818181818,109.3033654289989L64.3850909090909,109.39848844142766L64.68116363636364,109.50906268291214L64.9,109.61867111669102L65.07485454545454,109.71340753112644L65.07914545454545,109.7721808033988L65.13600000000001,109.82521386398409L65.2143090909091,109.88175592255676L65.47927272727273,109.9467770778398L65.69810909090909,110.0541621668433L65.72707272727273,110.12593262996691L65.80216363636364,110.17382346686885L66.01456363636365,110.26223895859317L66.65283636363637,110.4367747987672L66.99181818181819,110.60890298689867L67.01112727272728,110.70793076783418L67.2364,110.79303537042256L68.13749090909091,111.02719709030944L68.23296363636364,111.18758778543567L68.2672909090909,111.28923018862324L68.34452727272728,111.35890703678433L68.3734909090909,111.40882512484819L68.37778181818182,111.44070740129816L68.44536363636364,111.47895786091743L68.64703636363636,111.54845544571731L68.73285454545454,111.60927509034687L68.8690909090909,111.67048909934755L68.8766,111.70799007419204L68.9238,111.74014777715394L68.98065454545454,111.77682521143107L69.52989090909091,111.90950224491438L69.68865454545455,112.02387409000436L70.05981818181819,112.17825240539169L70.12632727272727,112.28034337031835L70.27114545454546,112.37288701177434L70.43312727272728,112.4564188390085L71.14112727272727,112.62435477562734L71.15829090909091,112.72453691051528L71.24303636363636,112.79874558380935L72.19561818181819,113.01536063153543L72.50027272727273,113.17005188239402L72.55712727272727,113.27252375096347L72.59038181818183,113.33767657696734L72.629,113.37522313368058L72.67083636363635,113.40489733507L72.81887272727273,113.445106369792L72.8886,113.47734376979169L72.91327272727273,113.50132162645781L73.02698181818181,113.52536545851429L73.1396181818182,113.57088767788599L73.18896363636364,113.60959640881457L73.50541818181819,113.709499164733L74.30996363636363,113.87624854397923L74.39470909090909,113.99812325833251L74.52987272727273,114.08457490986045L75.09734545454545,114.21524798411107L75.15098181818182,114.29693524879997L75.2679090909091,114.35251444789091L75.30009090909091,114.38740710623509L75.3784,114.42591865610143L75.76565454545455,114.51913626310568L75.96947272727273,114.60983245230767L76.1411090909091,114.68491639846775L76.30738181818182,114.74715643630287L76.40714545454544,114.79241929580914L77.01967272727272,114.90340079623476L77.18701818181819,115.00784559926899L77.23743636363636,115.07939702970012L77.5496,115.17099976295879L77.61503636363636,115.23754994458082L77.78345454545455,115.30316798758183L77.96796363636363,115.37769072310465L78.20825454545454,115.46914481580689L78.24365454545455,115.53386753184523L78.40778181818183,115.5914359704962L78.42387272727272,115.62713588785311L78.81112727272728,115.6877637375728L79.06643636363637,115.76141692309977L79.07394545454545,115.80773340038782L79.07823636363636,115.83571642912193L79.08252727272728,115.85327881580668L79.23378181818181,115.88081277559476L79.28098181818181,115.8965605820228L79.51376363636363,115.9425131721307L79.64034545454545,115.98862639286104L80.12307272727273,116.09316498502272L80.24750909090909,116.1728846680966L80.38696363636365,116.2408032834974L80.43523636363636,116.28928014718142L80.66158181818182,116.35293874803071L80.77529090909091,116.41585613076288L81.03703636363637,116.48528190762438L81.04561818181818,116.52886879735206L81.21940000000001,116.57472145202269L81.27625454545455,116.61189016288066L81.88878181818183,116.6849878303671L82.07114545454546,116.7425595384984L82.08616363636364,116.77710256337681L82.1794909090909,116.81482490608255L82.37150909090909,116.8708719401775L82.4069090909091,116.91010128910668L82.59892727272728,116.95681598179752L82.92074545454545,117.01342986685574L82.92718181818182,117.04565991664123L83.1192,117.09435558540122L83.41527272727274,117.17127914985201L83.9891818181818,117.2800114135216L84.14472727272728,117.35973644880669L84.26916363636363,117.42669256372864L84.36034545454545,117.47343307295941L84.4440181818182,117.50340880210862L84.47298181818182,117.52351880557109L84.49121818181818,117.5427310750095L85.02865454545454,117.61451885333867L85.07907272727273,117.66666921130803L85.20887272727273,117.71128624900705L85.432,117.76161983968129L85.46418181818181,117.80089768505877L86.0102,117.88936022561859L86.01663636363637,117.94475545828746L86.04023636363637,117.98031030622246L86.13678181818182,118.00396092331647L86.32772727272727,118.05001978315727L87.11081818181819,118.20416334558917L87.18698181818182,118.30630660110313L87.36076363636363,118.39154220718967L87.62036363636363,118.47744919584159L88.11274545454546,118.59833149667142L88.19856363636363,118.6803248528638L88.51716363636363,118.76254821032974L88.55041818181819,118.81535878730932L88.90119999999999,118.88335589738594L89.0621090909091,118.9513872363486L89.27236363636364,119.01461055361472L89.49656363636363,119.07050678355824L89.58667272727273,119.10752108402349L89.75616363636364,119.1397730670813L89.96427272727273,119.18326705205452L90.21421818181818,119.2369828006768L90.35045454545454,119.2879470588783L90.66798181818183,119.35657465893826L90.84605454545455,119.42923342383517L91.06274545454546,119.50469717235666L91.44463636363636,119.59999929299752L91.49505454545455,119.66297483621481L91.82652727272726,119.73050408575648L91.87158181818182,119.77585019450927L92.3071090909091,119.85385430073387L92.57421818181818,119.93233211169033L93.09878181818182,120.04045178437566L93.2714909090909,120.12347896993094L93.30152727272727,120.17928269445785L93.3498,120.21913862709101L93.79927272727272,120.29404177000424L94.68212727272727,120.43613426339216L94.70143636363636,120.52235547122973L94.8054909090909,120.59282300496025L94.86019999999999,120.63433095575428L95.0329090909091,120.68337852136942L95.65616363636364,120.75684351907236L95.67118181818182,120.80324022602639L95.96081818181818,120.86719587172622L95.98334545454546,120.90441040498018L96.24401818181819,120.94952992354312L96.32876363636365,120.98529304093088L96.45427272727272,121.02896228289205L97.04105454545454,121.11870766487465L97.16763636363636,121.18704057114773L97.24916363636363,121.23731114824437L97.527,121.29103686255864L97.61389090909091,121.33119112795148L98.07730909090908,121.4006721420485L98.21247272727273,121.45723271231297L98.24036363636364,121.49367990516521L98.3648,121.54278129379375L98.59007272727273,121.60179290822123L98.64478181818183,121.64241472062736L98.66838181818181,121.66794666223734L98.70378181818181,121.68674238970334L98.7306,121.70381409701608L99.00950909090909,121.73453021168189L99.01165454545455,121.75315302284281L99.12107272727273,121.77533582412218L99.1242909090909,121.78980435905683L99.28949090909092,121.81586829251688L99.46649090909091,121.85255916995459L99.62740000000001,121.88944565822257L99.7732909090909,121.9328232109054L99.95565454545454,121.97043828418195L100.10476363636363,122.00981071356436L100.61538181818182,122.06395066424973L100.66579999999999,122.10493289854966L100.73016363636364,122.13647536412944L100.75483636363636,122.16003626014397L101.03696363636364,122.2019852977536L101.8028909090909,122.32430532795752L102.09252727272728,122.42145385649692L102.4122,122.50794175834295L102.43150909090909,122.56195906542298L102.51732727272727,122.60750313022547L102.90458181818181,122.66650491633008L103.08801818181817,122.71928880049214L103.21567272727272,122.76370652682306L103.44416363636363,122.80928511401015L103.49887272727273,122.8424265371568L103.65334545454544,122.88954446396002L103.70376363636365,122.91974664365452L103.82927272727272,122.94694564244236L103.9537090909091,122.97002502435467L103.96121818181818,122.98290694169577L104.26694545454546,123.012461178906L104.62309090909092,123.06882219345542L105.02107272727272,123.14667526051824L105.2720909090909,123.20265793408873L105.35040000000001,123.24725665281434L105.95863636363636,123.34064999863358L106.03158181818182,123.4042185582083L106.1141818181818,123.44969910367425L106.1292,123.47447658026047L106.17103636363636,123.4908882051011L106.20536363636364,123.50343917306137L106.64840000000001,123.55461992744756L106.84041818181818,123.60367690438557L107.24590909090908,123.67116013568653L107.3059818181818,123.71725120293988L107.31027272727273,123.74471270093005L107.38000000000001,123.76466616222524L107.44972727272727,123.78745421122422L107.69109090909092,123.8316435336786L107.70825454545454,123.86047483548532L107.86272727272727,123.89747413740247L107.89061818181818,123.92179828452447L107.93030909090909,123.9392899082145L108.34116363636365,123.99266248659501L108.36154545454545,124.02623117251255L108.47096363636363,124.06549347781254L108.75416363636364,124.11956735404883L108.87538181818182,124.1695876346508L108.91292727272727,124.20191751134604L109.36669090909092,124.26670389222411L110.20770909090909,124.37530011311242L110.24418181818181,124.44760411300562L110.32892727272727,124.49736021085928L110.57136363636363,124.54845952929352L110.62714545454546,124.58394767938222L110.77732727272728,124.62088510068418L111.30832727272727,124.70717081735458L111.48103636363636,124.77439363624572L111.77496363636364,124.83346213660872L112.00238181818182,124.88783118821523L112.20834545454545,124.94150513653972L112.29952727272727,124.97718606803511L112.44112727272727,125.00342318596032L112.65781818181819,125.02843629004823L112.69214545454545,125.04518243375117L112.73183636363636,125.05484383525123L112.81765454545454,125.06817322823443L112.97963636363636,125.09606452721934L113.18130909090908,125.12477413299825L113.21456363636364,125.1466353131323L113.24996363636365,125.16187658718457L113.37225454545455,125.17894018842203L113.43983636363636,125.1972903283319L113.7241090909091,125.22355865880397L114.54581818181819,125.28857095917127L114.55976363636364,125.32893033591961L114.637,125.36550707307936L114.7904,125.39247481676409L115.20339999999999,125.44148966436364L115.26454545454546,125.47418199306298L115.49625454545455,125.51909903958835L115.67110909090908,125.5595692327815L116.0015090909091,125.60915299800223L116.57756363636364,125.68989284046873L116.72881818181818,125.74741443691977L117.20832727272727,125.82074900937425L117.2995090909091,125.87344115909679L117.31667272727273,125.90679473017993L117.72645454545454,125.95346051866369L117.7446909090909,125.9833914153656L117.88414545454545,126.0251064638027L117.97103636363636,126.06384860050437L118.03754545454547,126.08999101794205L118.25423636363637,126.12576327395968L118.48272727272727,126.17233513451507L119.17356363636362,126.25532382376423L119.39454545454544,126.32559012759187L119.74210909090908,126.39865268766624L119.76356363636364,126.44326279315567L119.76678181818183,126.47176713769859L119.85796363636364,126.49659543886861L119.86118181818182,126.51110613484877L120.24629090909092,126.5530330385476L120.27418181818183,126.58031374673949L120.92747272727274,126.65790830012631L120.99076363636364,126.70678274049209L121.35334545454546,126.77859872415601L121.4574,126.8296071511599L121.72343636363635,126.87527731152963L122.18470909090908,126.94304616122369L122.69854545454545,127.01885938076146L122.86589090909092,127.07979870137353L123.13192727272727,127.14031194651912L123.24670909090909,127.18878786235572L123.42478181818181,127.22656481810824L123.56101818181817,127.26313724155993L123.7079818181818,127.29068182410226L123.76805454545455,127.31396855626727L123.80238181818183,127.3298720191774L123.87854545454545,127.34617407956164L124.28618181818183,127.39284550676511L124.38165454545454,127.42413178322573L124.40632727272728,127.44444868799098L124.75925454545455,127.48638275446055L125.01027272727273,127.53066428809282L125.08000000000001,127.55684692354995L125.67643636363637,127.62412551524126L125.75152727272726,127.66661723622792L125.82661818181819,127.69790653965305L125.95534545454545,127.73213151059667L126.14843636363636,127.77661614594152L126.30505454545454,127.82146230909251L126.36298181818181,127.85261913892737L126.4488,127.87961835835624L126.5668,127.90296415737396L126.73092727272726,127.92662875484177L126.80923636363637,127.9497120619332L127.01520000000001,127.97901343507695L127.0902909090909,128.00103653326858L127.14285454545455,128.01463667690575L127.71354545454544,128.06393608600456L128.19734545454546,128.1325304884083L128.31105454545454,128.18875223401702L128.3132,128.2224852813826L128.60283636363636,128.26107363410716L129.33443636363634,128.33560251379745L129.3591090909091,128.37780899091734L129.53289090909092,128.41240371052336L129.64767272727272,128.44706679228642L129.71096363636366,128.47269320037185L129.7967818181818,128.49270446188922L129.87723636363637,128.51649290282762L129.96627272727275,128.53636709586252L130.05101818181816,128.54906418112935L130.15936363636362,128.56402184201096L130.26234545454545,128.58303984131697L130.3234909090909,128.59676834923425L130.3352909090909,128.60577802342874L130.79012727272726,128.64382488697353L130.81158181818182,128.66588043565562L131.20205454545456,128.70963025792133L131.41874545454544,128.7476618353078L131.45307272727274,128.77376420187932L131.511,128.79290218432186L131.60754545454546,128.80940667517572L131.8167272727273,128.83900989052194L131.84998181818182,128.8575443891737L131.90898181818181,128.86943765780944L131.94652727272725,128.87850504260197L131.95725454545453,128.88259347695043L132.16643636363636,128.90223620769802L132.44105454545453,128.93546064823047L132.50005454545453,128.96215529518827L132.9613272727273,129.02452625003L133.31425454545456,129.0918858889069L133.37647272727273,129.1365508041773L133.7733818181818,129.20333022208933L133.88494545454546,129.25324813325415L133.89996363636362,129.28416459175804L133.96432727272727,129.3061910293602L133.97934545454547,129.32037260372704L133.99543636363637,129.32849526362565L134.0093818181818,129.3347208560915L134.05121818181817,129.3427053435164L134.19067272727273,129.35541487277632L134.55647272727273,129.38930795144285L134.74527272727275,129.4247089028107L134.84396363636364,129.45792430002064L134.9212,129.48461352098496L134.9362181818182,129.50333104661803L135.3889090909091,129.54836147519305L135.45005454545455,129.57885629483823L135.582,129.6050720234309L135.7708,129.63876370016928L135.87807272727272,129.6721123867686L135.98856363636364,129.70390328275525L136.34685454545456,129.75619830645834L137.05592727272727,129.8366334804026L137.13423636363638,129.88547401185178L137.3316181818182,129.92926400780516L137.79074545454546,130.00594816162825L137.9377090909091,130.06180891433806L138.64141818181818,130.12700071318582L138.64249090909092,130.16592265013372L138.7047090909091,130.19526322549618L138.91925454545452,130.22716010543658L139.2636,130.26735075076215L139.52212727272726,130.3169599296234L139.65943636363636,130.36198368346777L139.69483636363637,130.39363335244178L139.90294545454546,130.42961968160415L140.08316363636362,130.4643451596571L140.1217818181818,130.48942957843315L140.14216363636362,130.5075705074762L140.24514545454545,130.5203864885135L140.73538181818182,130.55917199727475L140.77936363636363,130.58379529905966L140.87376363636366,130.60301155443634L141.11190909090908,130.63037898127308L141.27603636363636,130.65703598251403L141.50881818181819,130.6909924228416L142.10418181818184,130.74342791898238L142.3122909090909,130.78821603958332L142.35412727272728,130.81914490152778L142.5676,130.85856159369428L143.01814545454548,130.9115692478836L143.30456363636364,130.96732349317443L143.46761818181818,131.01333029382096L143.724,131.05889661379166L144.05869090909093,131.10806149258056L144.23783636363638,131.14895581915945L144.62509090909091,131.20439519288456L144.92116363636364,131.25774562267446L144.9780181818182,131.29381187013246L145.3609818181818,131.344616115135L145.37385454545455,131.3756780892199L145.63881818181818,131.4184580688097L145.64632727272726,131.4437397718412L145.76003636363635,131.46953162352156L145.93274545454545,131.50895638730776L146.02929090909092,131.53917808585703L146.37685454545456,131.5785567647083L146.61285454545455,131.6197599268802L146.6536181818182,131.64699267487828L146.73085454545455,131.6704785910381L146.7726909090909,131.68978498448433L146.89712727272726,131.70581109485727L146.98080000000002,131.72102788955272L146.99581818181818,131.73150996289866L147.01405454545454,131.73992377287826L147.12990909090908,131.7501869026153L147.64481818181818,131.78299842629121L147.84863636363636,131.8107973196638L147.97307272727272,131.83732691610385L148.2090727272727,131.86637835452325L148.2401818181818,131.88554749882576L148.7347090909091,131.92331634651805L149.0104,131.96123590166118L149.04150909090907,131.9863053430797L149.10694545454544,132.0065618516815L149.43305454545455,132.04459683323094L149.61327272727272,132.08615263118804L150.1592909090909,132.13716032871355L150.49398181818182,132.19461173542257L151.09792727272728,132.2675179093089L151.4605090909091,132.34370953030776L151.46158181818183,132.3896176452678L151.6106909090909,132.43145504896606L151.64287272727273,132.4584889147963L151.68685454545454,132.47316409540574L151.8112909090909,132.49297831835474L152.15027272727272,132.535576487541L152.19532727272727,132.56596394808068L152.5471818181818,132.60157923690397L152.58043636363635,132.6233346949207L152.9945090909091,132.66960845584168L153.0073818181818,132.69833842419962L153.12001818181818,132.72504038090813L153.47294545454545,132.7638523535456L154.05329090909092,132.82518858226587L154.07903636363636,132.86276288894322L154.11443636363634,132.88627318475446L154.58321818181818,132.93804212265894L154.65401818181817,132.9781811763728L154.68405454545456,133.0030371780459L155.0434181818182,133.04074157766087L155.288,133.080360745208L155.3030181818182,133.10413224573608L155.35021818181818,133.12129228146907L155.59158181818182,133.14877797304774L155.85654545454545,133.1880601866066L157.09447272727274,133.2813539071025L157.35514545454546,133.35316781301185L157.62118181818184,133.40456127808417L157.67803636363635,133.44099848560086L157.79496363636363,133.46923450802683L157.9376363636364,133.49776466314944L158.1350181818182,133.52453987427856L158.27232727272727,133.55122783081677L158.32918181818184,133.5709103096008L158.37423636363636,133.5869689288166L158.49867272727275,133.60645436076234L158.533,133.62200846715115L158.56732727272725,133.63288606987402L158.63276363636362,133.6417303398407L158.65207272727272,133.6474231865435L158.88378181818183,133.66551771400907L159.08974545454544,133.6902806804893L159.2013090909091,133.7115121582936L159.67759999999998,133.75341554150413L159.99298181818182,133.7976786651799L160.0358909090909,133.82423653938608L160.1774909090909,133.8523392326589L160.27189090909093,133.8728705534835L160.28476363636364,133.88654134250677L160.29334545454546,133.89474381592038L160.37487272727273,133.90623214024703L160.421,133.91447713137063L160.55723636363638,133.92309383090588L160.82863636363638,133.95240664576522L160.98525454545455,133.98293487287617L161.24807272727273,134.01593062858626L161.66321818181817,134.06798285631842L161.90243636363635,134.11563129365163L162.50852727272726,134.1749299914693L162.5203272727273,134.2122474914097L162.71127272727273,134.2400459774849L162.76919999999998,134.26058791635188L162.92152727272727,134.28334276717206L163.77970909090908,134.35088239641524L164.03716363636363,134.40724384757135L164.05432727272728,134.44260585715392L164.34825454545455,134.47232132679306L164.4684,134.4988420148262L164.65934545454547,134.53039895889572L164.69367272727274,134.55068512186523L164.7709090909091,134.5647882432582L165.04981818181818,134.59565462998324L165.20750909090907,134.62363843771251L165.60334545454546,134.66669608346066L165.6172909090909,134.6931100979927L165.70847272727272,134.71475277754527L166.11396363636365,134.75767545124938L166.14078181818184,134.78497419436056L166.25449090909092,134.80927227703228L166.93245454545453,134.8680807273305L167.20814545454544,134.92074861000867L167.56965454545454,134.97552642295L167.64581818181816,135.0147668086313L167.7294909090909,135.04371902615117L168.0674,135.08368801291311L168.07276363636365,135.10786254733156L168.08885454545455,135.12294669506505L168.44285454545454,135.14049544759496L168.4771818181818,135.15218355327903L168.6885090909091,135.17155752780056L168.93523636363636,135.20210986390256L169.02427272727274,135.22353154334155L169.04465454545453,135.23870225933842L169.15514545454548,135.2516675361588L169.2162909090909,135.26157126822287L169.45443636363638,135.2854757470443L169.9672,135.3347772016986L169.99723636363635,135.36744835226898L170.0894909090909,135.39535616413954L170.4982,135.43817507001185L170.5218,135.4642526982573L170.8404,135.50230378909328L170.99594545454545,135.54116525956707L171.0452909090909,135.5683449890734L171.60954545454547,135.62096359066626L171.65245454545453,135.6542730328718L171.66103636363636,135.67522441000068L171.68463636363634,135.68991980225005L171.69536363636362,135.6998958917667L171.7768909090909,135.70935810797687L171.81336363636365,135.71947771200814L171.9066909090909,135.73385459595488L171.93994545454544,135.7486612818785L172.4409090909091,135.7884480712099L172.6972909090909,135.82603325244798L172.94723636363636,135.85997976049674L173.6241272727273,135.9180104257423L173.66274545454547,135.9555328179461L173.7668,135.98017081923933L173.99207272727273,136.0026793144599L173.99314545454547,136.01618441159206L174.3138909090909,136.04881654973283L174.58743636363636,136.08017751664545L174.7386909090909,136.1107757808199L175.0540727272727,136.14362041640788L175.22141818181817,136.17201860401212L175.37481818181817,136.20141862768432L175.46707272727272,136.22485291272136L175.67732727272727,136.2481843170769L175.70414545454545,136.26237630205188L175.8393090909091,136.284411458315L175.9144,136.29975711804528L176.0956909090909,136.32267762152162L176.16970909090907,136.34029277083L176.233,136.35337271110927L176.36065454545457,136.36875322735983L176.49367272727272,136.38551408919386L177.30036363636364,136.4454013354606L177.6565090909091,136.50006849224803L177.6683090909091,136.5330619286825L177.76270909090908,136.56212882387706L177.80454545454546,136.58246609640995L177.84852727272727,136.59679302590132L178.4074181818182,136.6422793745682L178.50074545454547,136.67671745112963L178.81934545454544,136.70394713734427L179.53807272727272,136.77281967129528L179.67216363636365,136.8220620284718L180.28576363636364,136.89467818930476L180.42092727272728,136.94809814622246L180.52712727272728,136.98845524190034L180.67301818181818,137.0200089090291L180.8038909090909,137.04840508500098L180.86610909090908,137.0683399260013L180.94012727272727,137.08281168129523L180.94441818181818,137.09246044627713L181.05276363636364,137.10616854207257L181.1450181818182,137.12134652454873L181.76505454545455,137.17622805361776L181.88627272727274,137.21244039119915L182.0235818181818,137.23899635277505L182.03967272727272,137.2547367873595L182.24134545454547,137.27866672519383L182.29605454545455,137.29572868094925L182.37007272727274,137.3102149863477L182.37436363636363,137.31948619666954L182.9396909090909,137.35749683952932L182.96007272727272,137.38146207941168L183.04589090909093,137.39970407056313L183.17676363636363,137.4176023902549L183.2894,137.43819164248663L183.48141818181819,137.46638286743624L183.49643636363638,137.48522902601766L183.53505454545456,137.4955710093606L183.57903636363636,137.5066047583945L183.6798727272727,137.51882613628743L183.73243636363637,137.5329189456606L183.8364909090909,137.54620319031304L183.92552727272727,137.56132000446507L184.01885454545456,137.57869521448478L184.03816363636363,137.59047233702384L184.18298181818182,137.60236716957505L184.7837090909091,137.64426969410633L185.0701272727273,137.6817723199362L185.3308,137.71798700307247L186.17825454545454,137.7777648580935L186.25012727272727,137.8176875606887L186.31556363636366,137.84724231071897L186.70174545454546,137.8935602301812L186.7704,137.92405497491356L187.21343636363636,137.972482030087L187.36683636363637,138.0113885236076L187.93001818181818,138.0633174891651L188.0136909090909,138.0985308580824L188.02334545454545,138.12081773359927L188.35374545454545,138.1556286609927L188.49963636363637,138.18829690145708L188.51572727272728,138.20809098809718L188.7688909090909,138.2367708254974L189.13147272727272,138.27483810293677L189.22050909090908,138.3025070284291L189.49941818181819,138.3341734878906L189.68607272727274,138.3608990580123L189.76438181818182,138.38523952161313L189.79012727272726,138.40080951157864L189.83947272727272,138.41188978680847L189.921,138.4206625179179L189.94138181818184,138.42747129547277L190.01218181818183,138.43445369742182L190.1848909090909,138.44675511775847L190.2825090909091,138.46050966787783L190.334,138.47378409933782L190.54103636363638,138.49565500821345L190.74056363636365,138.51399239728917L190.86714545454547,138.5267331119848L190.91434545454544,138.53824038802404L190.9400909090909,138.54765560434166L190.98943636363634,138.5546567306611L191.514,138.59555445506314L191.6942181818182,138.62781878414899L191.86156363636363,138.65470993368422L192.00101818181818,138.67721832132253L192.1715818181818,138.70308446501645L192.45585454545454,138.7365663908156L192.57814545454545,138.76476752546213L192.85383636363636,138.80022987291545L192.88816363636363,138.8217004237491L193.3076,138.86085011536022L193.36123636363635,138.8870439233826L193.54574545454545,138.913383038057L193.58543636363635,138.9311179304729L193.8504,138.95025712981243L194.1142909090909,138.98008917372042L194.16363636363636,139.0039758132595L194.3342,139.0281580574005L194.36423636363637,139.0455645393016L194.5541090909091,139.07223238677523L195.18272727272728,139.134780404287L195.2074,139.17520635021145L195.3886909090909,139.20969846290555L195.38976363636365,139.23058687288238L195.45734545454545,139.2494936167841L195.5453090909091,139.26643879159823L195.68369090909093,139.2862630145428L195.74483636363635,139.30221353789145L195.86176363636363,139.32028211579023L195.93792727272725,139.33614496391806L196.08274545454546,139.35647864501715L196.4464,139.38606166617694L196.62661818181817,139.41520687817876L197.33461818181817,139.46861848454648L197.46012727272728,139.51012942406123L198.04905454545454,139.57868616138154L198.26038181818183,139.6298636065515L198.30329090909092,139.66076321601406L198.43523636363636,139.68026869349785L198.95121818181818,139.72403361193133L199.09496363636362,139.76188110465844L199.0971090909091,139.78478274265655L199.31272727272727,139.81069169420522L199.52405454545453,139.840336457495L199.84694545454548,139.88130039880218L199.87161818181818,139.9056856212263L200.0647090909091,139.9357681435691L200.0775818181818,139.95478336878108L200.46054545454544,139.98879016015772L200.54314545454548,140.01228451276182L200.75983636363637,140.04125308612862L200.85101818181818,140.06017936903862L200.9700909090909,140.0784882637843L201.0248,140.09217759368724L201.29083636363637,140.1206711395455L201.71241818181818,140.16557976706028L201.86581818181818,140.19947806856987L202.09001818181818,140.2377792890584L202.26165454545455,140.27370055954634L202.4450909090909,140.3052967246165L202.6017090909091,140.3362292500475L202.6135090909091,140.3547887653063L202.7518909090909,140.37442273835043L202.77334545454545,140.38929339995434L203.09194545454545,140.4215860226113L203.33974545454544,140.45370899203903L203.6197272727273,140.49384214869528L203.68194545454546,140.52429574060642L203.77849090909092,140.54816902422567L203.9190181818182,140.57466096314616L204.01985454545454,140.59828182094344L204.34918181818182,140.62925772103773L205.11832727272727,140.69921912915115L205.556,140.77074675526828L205.59783636363636,140.81482218510595L205.60856363636364,140.8418468700917L206.21143636363635,140.90190499705432L206.4098909090909,140.95126669614962L207.00632727272728,141.0185464760231L207.13612727272726,141.06837831964145L207.2230181818182,141.100788276508L207.2391090909091,141.12235881659925L207.35281818181818,141.14109541148696L207.40109090909093,141.15368936494755L207.54054545454545,141.16781257730224L207.6328,141.1799562095756L207.72719999999998,141.19149152088409L207.83554545454544,141.20343440905876L208.5532,141.24942175654638L208.80314545454544,141.2936244080945L209.09814545454543,141.335983672635L209.29981818181818,141.37067006469192L209.3641818181818,141.3957310318711L209.47467272727275,141.41617559828933L209.5873090909091,141.43481603605764L209.7728909090909,141.45739569802402L210.34143636363638,141.51169653339755L210.41438181818182,141.55007130545593" style="fill: none;" fill="none"></path></g></g></g></g><g opacity="0.2"><g><g><g><path stroke="rgb(255, 112, 67)" stroke-width="2px" d="M25.698254545454546,-2.1685058593749886L26.08550909090909,2.203754340277783L26.174545454545456,3.138563368055543L26.273236363636364,4.151112196180549L26.291472727272726,4.343288845486114L26.787072727272726,8.880202907986103L26.961927272727273,10.504530164930543L27.188272727272725,12.685590277777777L27.593763636363636,16.831391059027766L27.791145454545454,19.20752495659724L27.880181818181818,20.399213324652777L28.105454545454545,22.806250000000006L28.640745454545453,28.83905164930556L28.65361818181818,28.979079861111103L28.80701818181818,30.358116319444434L28.927163636363638,31.648790147569457L29.12990909090909,33.69127061631946L29.45709090909091,36.71974283854166L29.460309090909092,36.7380913628472L29.819672727272724,39.72552083333332L29.85721818181818,40.1344997829861L30.107163636363637,42.35805121527778L30.229454545454544,43.44592556423612L30.273436363636367,43.76123046875L30.57058181818182,45.999267578125L30.58130909090909,46.083284505208326L30.978218181818182,48.79114040798612L31.039363636363635,49.1518337673611L31.388,51.26143120659722L31.61112727272727,52.5805935329861L31.70338181818182,53.17257486979166L31.857854545454543,53.990532769097214L32.60983636363636,57.933051215277786L32.695654545454545,58.38548719618056L32.74178181818181,58.67761501736112L32.83296363636363,59.20103081597222L33.01854545454545,60.21502821180556L33.15263636363636,60.83694661458334L33.21807272727273,61.1899142795139L33.275999999999996,61.39802517361112L33.825236363636364,63.95523003472222L33.86170909090909,64.11264105902778L33.989363636363635,64.56990559895834L34.06874545454546,64.911767578125L34.29401818181818,65.85623372395834L34.299381818181814,65.89582790798612L34.5032,67.00108506944444L34.638363636363636,67.54671223958334L35.26805454545455,70.28015950520832L35.43647272727273,70.97981770833334L35.465436363636364,71.11356879340278L36.04041818181818,73.25648328993056L36.06509090909091,73.3578830295139L36.26890909090909,74.13141818576388L36.78810909090909,75.79968532986112L36.83530909090909,75.91798502604166L37.18930909090909,76.94984809027778L37.308381818181815,77.31343858506943L37.40921818181818,77.67123480902778L38.05285454545455,79.48435872395834L38.36501818181818,80.34673936631944L38.74261818181819,81.45634223090278L38.96252727272727,82.0275607638889L39.53750909090909,83.29505750868056L39.76170909090909,83.87883029513888L39.79496363636364,83.9787814670139L40.03096363636364,84.52247721354166L40.05456363636364,84.62580837673612L40.2734,85.07631293402778L40.28841818181819,85.10576714409721L41.24743636363636,86.979248046875L41.960800000000006,88.29937608506944L42.01765454545454,88.39305013020834L42.40598181818182,89.08111979166667L42.522909090909096,89.27957356770834L42.62052727272727,89.44422743055556L42.903727272727274,89.85127495659722L42.965945454545455,89.98792317708333L42.9756,90.021240234375L43.17083636363636,90.27184244791667L43.17941818181818,90.29888237847223L43.25558181818182,90.41573350694445L43.38109090909091,90.55865885416667L43.48729090909091,90.69578993055555L43.52912727272727,90.77787543402778L43.74474545454546,91.07000325520833L43.747963636363636,91.07531467013888L43.82627272727273,91.20954861111112L44.06763636363636,91.5229220920139L44.1362909090909,91.62383897569444L44.23069090909091,91.80104709201389L44.32401818181818,91.93528103298611L44.891490909090905,92.87685004340278L45.31736363636363,93.584716796875L45.408545454545454,93.83773328993055L45.43858181818182,93.90340169270833L46.27530909090909,94.99562174479166L46.28603636363636,95.01397026909723L46.33323636363637,95.06998155381945L46.43407272727273,95.16800130208334L46.51452727272727,95.28774956597222L46.58532727272727,95.34376085069445L46.70654545454545,95.47799479166666L46.846000000000004,95.66679144965278L46.8578,95.68224283854167L46.87925454545454,95.71749131944445L47.35769090909091,96.33168402777778L47.502509090909086,96.60160047743055L47.50465454545455,96.59966905381944L47.545418181818185,96.66244032118055L47.86616363636364,97.06610785590277L47.97987272727273,97.20420464409722L48.20192727272727,97.452392578125L48.54412727272727,97.87972005208333L48.69216363636364,98.0632052951389L49.14378181818182,98.42341579861112L49.18132727272727,98.46204427083333L49.26070909090909,98.55040690104167L49.670490909090915,98.90096028645833L50.20041818181818,99.44320746527778L50.20149090909091,99.44465603298612L50.58338181818182,99.80003797743055L50.959909090909086,100.16990559895834L51.06503636363636,100.2814453125L51.10258181818182,100.31910807291666L51.30318181818182,100.48810763888889L51.4008,100.54556749131945L51.96076363636364,101.08636610243056L52.07340000000001,101.13948025173612L52.531454545454544,101.51948784722222L52.55934545454546,101.53590494791666L52.630145454545456,101.57211914062499L52.77925454545454,101.70731879340278L52.845763636363635,101.75367296006945L53.06889090909091,101.99075520833334L53.21907272727273,102.11098632812501L53.45292727272727,102.32778862847222L53.64172727272727,102.50547960069444L53.66961818181819,102.54507378472222L53.82301818181818,102.67254774305556L53.987145454545455,102.85603298611112L54.14054545454545,102.99895833333333L54.29287272727273,103.10228949652777L54.39370909090909,103.17713216145833L54.408727272727276,103.18823784722223L55.14461818181818,103.65033094618056L55.18430909090909,103.70537651909723L55.653090909090906,104.12787543402777L55.71316363636363,104.17229817708333L55.78610909090909,104.25438368055555L56.00387272727273,104.44076605902778L56.24845454545455,104.66046549479167L56.36323636363636,104.7507595486111L56.4866,104.83622504340278L56.599236363636365,104.88837348090277L56.74083636363637,104.96080186631944L56.74941818181818,104.96514756944444L56.89101818181818,105.09503580729167L57.04870909090909,105.17712131076388L57.25681818181818,105.33887803819445L57.286854545454545,105.36736653645833L57.64514545454545,105.60541449652777L57.658018181818186,105.61603732638889L57.6784,105.63631727430555L57.696636363636365,105.648388671875L57.75456363636364,105.6899142795139L57.79425454545455,105.69715711805556L57.83394545454546,105.72274848090278L57.96589090909091,105.7937282986111L58.315599999999996,106.05543619791666L58.49045454545455,106.14428168402777L58.56983636363636,106.19836154513888L59.35721818181818,106.68846028645834L59.37974545454545,106.70342881944444L59.40441818181818,106.71212022569445L59.51812727272728,106.81158854166667L59.82707272727272,107.00714518229167L59.910745454545456,107.0607421875L60.02230909090908,107.14475911458334L60.112418181818185,107.21139322916666L60.74747272727272,107.53490668402777L60.77965454545455,107.54601236979167L60.895509090909094,107.62037217881945L60.984545454545454,107.6672092013889L61.362145454545455,107.89125434027778L61.67001818181818,108.11095377604167L61.96501818181819,108.29299045138889L62.08516363636364,108.34465603298611L62.68910909090909,108.55662977430555L62.70627272727273,108.56821831597222L62.99054545454546,108.76377495659722L63.11927272727272,108.81737196180555L63.27052727272727,108.8840060763889L63.608436363636365,109.10611979166667L64.04396363636363,109.30312500000001L64.23276363636364,109.43880750868055L64.26601818181818,109.4441189236111L64.3850909090909,109.54117296006945L64.68116363636364,109.67492404513888L64.9,109.78308376736112L65.07485454545454,109.85551215277778L65.07914545454545,109.86034071180555L65.13600000000001,109.90476345486111L65.2143090909091,109.96656901041666L65.47927272727273,110.04430881076388L65.69810909090909,110.21523980034722L65.72707272727273,110.23358832465277L65.80216363636364,110.24565972222223L66.01456363636365,110.39486219618055L66.65283636363637,110.69857855902778L66.99181818181819,110.86709526909722L67.01112727272728,110.8564724392361L67.2364,110.92069227430555L68.13749090909091,111.37843967013889L68.23296363636364,111.428173828125L68.2672909090909,111.44169379340278L68.34452727272728,111.46342230902778L68.3734909090909,111.48370225694444L68.37778181818182,111.48853081597223L68.44536363636364,111.53633355034722L68.64703636363636,111.65270182291667L68.73285454545454,111.70050455729167L68.8690909090909,111.76231011284722L68.8766,111.76424153645833L68.9238,111.78838433159723L68.98065454545454,111.83184136284723L69.52989090909091,112.10851779513888L69.68865454545455,112.19543185763888L70.05981818181819,112.40981987847222L70.12632727272727,112.43347981770833L70.27114545454546,112.51170247395834L70.43312727272728,112.58171657986111L71.14112727272727,112.87625868055555L71.15829090909091,112.87481011284723L71.24303636363636,112.91005859375001L72.19561818181819,113.340283203125L72.50027272727273,113.40208875868055L72.55712727272727,113.42623155381945L72.59038181818183,113.43540581597222L72.629,113.43154296875001L72.67083636363635,113.44940863715277L72.81887272727273,113.505419921875L72.8886,113.52569986979167L72.91327272727273,113.53728841145833L73.02698181818181,113.56143120659722L73.1396181818182,113.63917100694445L73.18896363636364,113.66765950520833L73.50541818181819,113.85935329861111L74.30996363636363,114.12637261284722L74.39470909090909,114.18093532986111L74.52987272727273,114.21425238715278L75.09734545454545,114.41125759548612L75.15098181818182,114.41946614583333L75.2679090909091,114.43588324652778L75.30009090909091,114.43974609375L75.3784,114.48368598090278L75.76565454545455,114.65896267361111L75.96947272727273,114.74587673611111L76.1411090909091,114.79754231770835L76.30738181818182,114.84051649305556L76.40714545454544,114.86031358506943L77.01967272727272,115.069873046875L77.18701818181819,115.16451280381943L77.23743636363636,115.18672417534722L77.5496,115.30840386284723L77.61503636363636,115.33737521701389L77.78345454545455,115.40159505208334L77.96796363636363,115.48947482638889L78.20825454545454,115.60632595486112L78.24365454545455,115.63095160590278L78.40778181818183,115.67778862847223L78.42387272727272,115.68068576388889L78.81112727272728,115.77870551215278L79.06643636363637,115.87189670138889L79.07394545454545,115.87720811631945L79.07823636363636,115.87769097222221L79.08252727272728,115.87962239583334L79.23378181818181,115.92211371527779L79.28098181818181,115.92018229166666L79.51376363636363,116.01144205729167L79.64034545454545,116.05779622395835L80.12307272727273,116.24997287326389L80.24750909090909,116.29246419270834L80.38696363636365,116.34268120659722L80.43523636363636,116.36199544270835L80.66158181818182,116.44842664930556L80.77529090909091,116.51023220486111L81.03703636363637,116.58942057291665L81.04561818181818,116.59424913194445L81.21940000000001,116.64350043402777L81.27625454545455,116.66764322916667L81.88878181818183,116.79463433159722L82.07114545454546,116.82891710069444L82.08616363636364,116.82891710069444L82.1794909090909,116.87140842013889L82.37150909090909,116.95494249131946L82.4069090909091,116.9689453125L82.59892727272728,117.02688802083333L82.92074545454545,117.09835069444443L82.92718181818182,117.09400499131945L83.1192,117.16739908854167L83.41527272727274,117.28666449652778L83.9891818181818,117.44310980902779L84.14472727272728,117.4793240017361L84.26916363636363,117.52712673611111L84.36034545454545,117.54354383680555L84.4440181818182,117.54837239583333L84.47298181818182,117.55368381076389L84.49121818181818,117.57154947916666L85.02865454545454,117.72220052083333L85.07907272727273,117.74489474826389L85.20887272727273,117.77821180555554L85.432,117.83712022569443L85.46418181818181,117.859814453125L86.0102,118.02205403645833L86.01663636363637,118.02784830729166L86.04023636363637,118.033642578125L86.13678181818182,118.03943684895833L86.32772727272727,118.11910807291667L87.11081818181819,118.4353786892361L87.18698181818182,118.459521484375L87.36076363636363,118.51939561631946L87.62036363636363,118.60630967881946L88.11274545454546,118.77965494791667L88.19856363636363,118.80331488715278L88.51716363636363,118.88588324652778L88.55041818181819,118.89457465277778L88.90119999999999,118.9853515625L89.0621090909091,119.05343424479167L89.27236363636364,119.10944552951389L89.49656363636363,119.15435112847223L89.58667272727273,119.16304253472222L89.75616363636364,119.18815104166667L89.96427272727273,119.24850802951389L90.21421818181818,119.31755642361111L90.35045454545454,119.36439344618054L90.66798181818183,119.45951605902778L90.84605454545455,119.53822157118054L91.06274545454546,119.61789279513889L91.44463636363636,119.74295247395833L91.49505454545455,119.75743815104167L91.82652727272726,119.83179796006945L91.87158181818182,119.84386935763888L92.3071090909091,119.97086046006945L92.57421818181818,120.050048828125L93.09878181818182,120.20263129340279L93.2714909090909,120.24801974826389L93.30152727272727,120.26298828125L93.3498,120.27892252604167L93.79927272727272,120.406396484375L94.68212727272727,120.64927300347222L94.70143636363636,120.6516872829861L94.8054909090909,120.69852430555557L94.86019999999999,120.69659288194444L95.0329090909091,120.75694986979167L95.65616363636364,120.867041015625L95.67118181818182,120.87283528645833L95.96081818181818,120.96312934027779L95.98334545454546,120.96023220486111L96.24401818181819,121.01720920138888L96.32876363636365,121.03893771701388L96.45427272727272,121.09446614583334L97.04105454545454,121.25332573784722L97.16763636363636,121.28953993055555L97.24916363636363,121.31271701388889L97.527,121.37162543402778L97.61389090909091,121.39142252604165L98.07730909090908,121.50489366319445L98.21247272727273,121.54207356770833L98.24036363636364,121.54835069444445L98.3648,121.61643337673611L98.59007272727273,121.69031032986112L98.64478181818183,121.70334743923611L98.66838181818181,121.70624457465277L98.70378181818181,121.71493598090278L98.7306,121.72942165798611L99.00950909090909,121.78060438368055L99.01165454545455,121.78108723958333L99.12107272727273,121.80861002604166L99.1242909090909,121.81150716145834L99.28949090909092,121.85496419270834L99.46649090909091,121.90759548611112L99.62740000000001,121.944775390625L99.7732909090909,121.99788953993055L99.95565454545454,122.02686089409721L100.10476363636363,122.06886935763889L100.61538181818182,122.14516059027778L100.66579999999999,122.16640625L100.73016363636364,122.1837890625L100.75483636363636,122.19537760416665L101.03696363636364,122.26490885416666L101.8028909090909,122.50778537326389L102.09252727272728,122.56717664930557L102.4122,122.63767361111111L102.43150909090909,122.64298502604167L102.51732727272727,122.67581922743057L102.90458181818181,122.75500759548612L103.08801818181817,122.79846462673612L103.21567272727272,122.83033311631945L103.44416363636363,122.87765299479167L103.49887272727273,122.892138671875L103.65334545454544,122.96022135416666L103.70376363636365,122.96504991319443L103.82927272727272,122.987744140625L103.9537090909091,123.00464409722221L103.96121818181818,123.00222981770833L104.26694545454546,123.05679253472222L104.62309090909092,123.15336371527778L105.02107272727272,123.26345486111111L105.2720909090909,123.28663194444445L105.35040000000001,123.31415473090277L105.95863636363636,123.48074001736111L106.03158181818182,123.49957139756944L106.1141818181818,123.517919921875L106.1292,123.5116427951389L106.17103636363636,123.51550564236112L106.20536363636364,123.522265625L106.64840000000001,123.63139105902778L106.84041818181818,123.67726236979166L107.24590909090908,123.7723849826389L107.3059818181818,123.78638780381945L107.31027272727273,123.78590494791666L107.38000000000001,123.79459635416667L107.44972727272727,123.82163628472222L107.69109090909092,123.89792751736111L107.70825454545454,123.90372178819445L107.86272727272727,123.95297309027778L107.89061818181818,123.95828450520833L107.93030909090909,123.96552734375L108.34116363636365,124.07272135416667L108.36154545454545,124.0765842013889L108.47096363636363,124.12438693576388L108.75416363636364,124.20067816840279L108.87538181818182,124.24461805555555L108.91292727272727,124.2504123263889L109.36669090909092,124.36388346354167L110.20770909090909,124.53819444444446L110.24418181818181,124.55606011284722L110.32892727272727,124.57199435763889L110.57136363636363,124.62510850694446L110.62714545454546,124.63717990451389L110.77732727272728,124.67629123263889L111.30832727272727,124.83659939236111L111.48103636363636,124.87522786458334L111.77496363636364,124.92206488715277L112.00238181818182,124.969384765625L112.20834545454545,125.02201605902778L112.29952727272727,125.03070746527777L112.44112727272727,125.04277886284723L112.65781818181819,125.06595594618057L112.69214545454545,125.07030164930555L112.73183636363636,125.0693359375L112.81765454545454,125.08816731770833L112.97963636363636,125.13790147569443L113.18130909090908,125.16783854166667L113.21456363636364,125.17942708333334L113.24996363636365,125.1847384982639L113.37225454545455,125.20453559027777L113.43983636363636,125.22481553819443L113.7241090909091,125.26296115451389L114.54581818181819,125.38608940972222L114.55976363636364,125.38946940104165L114.637,125.42037217881943L114.7904,125.43292643229165L115.20339999999999,125.51501193576388L115.26454545454546,125.52322048611111L115.49625454545455,125.586474609375L115.67110909090908,125.62027452256945L116.0015090909091,125.68352864583335L116.57756363636364,125.81100260416667L116.72881818181818,125.83369683159722L117.20832727272727,125.93075086805555L117.2995090909091,125.95247938368055L117.31667272727273,125.95682508680557L117.72645454545454,126.02345920138889L117.7446909090909,126.02828776041667L117.88414545454545,126.08767903645833L117.97103636363636,126.12196180555554L118.03754545454547,126.12920464409723L118.25423636363637,126.17942165798611L118.48272727272727,126.24219292534721L119.17356363636362,126.3798068576389L119.39454545454544,126.43098958333333L119.74210909090908,126.50824652777777L119.76356363636364,126.5101779513889L119.76678181818183,126.51452365451388L119.85796363636364,126.533837890625L119.86118181818182,126.53287217881945L120.24629090909092,126.61592339409722L120.27418181818183,126.62123480902778L120.92747272727274,126.77430013020833L120.99076363636364,126.78009440104165L121.35334545454546,126.88632269965278L121.4574,126.90611979166667L121.72343636363635,126.94378255208335L122.18470909090908,127.04469943576389L122.69854545454545,127.13257921006945L122.86589090909092,127.17120768229165L123.13192727272727,127.23108181423612L123.24670909090909,127.26150173611111L123.42478181818181,127.28323025173611L123.56101818181817,127.31799587673612L123.7079818181818,127.33199869791667L123.76805454545455,127.34889865451389L123.80238181818183,127.35372721354167L123.87854545454545,127.37062717013889L124.28618181818183,127.46285264756943L124.38165454545454,127.47106119791667L124.40632727272728,127.47492404513889L124.75925454545455,127.54928385416667L125.01027272727273,127.59708658854167L125.08000000000001,127.59612087673611L125.67643636363637,127.72504340277777L125.75152727272726,127.73035481770833L125.82661818181819,127.74484049479167L125.95534545454545,127.78346896701389L126.14843636363636,127.84334309895833L126.30505454545454,127.88873155381944L126.36298181818181,127.89935438368056L126.4488,127.9201171875L126.5668,127.93798285590279L126.73092727272726,127.96212565104167L126.80923636363637,127.98433702256943L127.01520000000001,128.02296549479166L127.0902909090909,128.03407118055554L127.14285454545455,128.03503689236112L127.71354545454544,128.13788519965277L128.19734545454546,128.2354220920139L128.31105454545454,128.27308485243054L128.3132,128.27308485243054L128.60283636363636,128.31895616319446L129.33443636363634,128.44739583333333L129.3591090909091,128.44111870659722L129.53289090909092,128.46429578993056L129.64767272727272,128.49906141493057L129.71096363636366,128.5111328125L129.7967818181818,128.52272135416666L129.87723636363637,128.5521755642361L129.96627272727275,128.56617838541666L130.05101818181816,128.5681098090278L130.15936363636362,128.58645833333333L130.26234545454545,128.6115668402778L130.3234909090909,128.6173611111111L130.3352909090909,128.6192925347222L130.79012727272726,128.70089518229167L130.81158181818182,128.69896375868055L131.20205454545456,128.77525499131946L131.41874545454544,128.8047092013889L131.45307272727274,128.8129177517361L131.511,128.8216091579861L131.60754545454546,128.83416341145835L131.8167272727273,128.88341471354167L131.84998181818182,128.8853461371528L131.90898181818181,128.8872775607639L131.94652727272725,128.89210611979166L131.95725454545453,128.88872612847223L132.16643636363636,128.93170030381944L132.44105454545453,128.98529730902777L132.50005454545453,129.002197265625L132.9613272727273,129.11808268229169L133.31425454545456,129.19292534722223L133.37647272727273,129.20354817708335L133.7733818181818,129.30349934895833L133.88494545454546,129.328125L133.89996363636362,129.33053927951389L133.96432727272727,129.33923068576388L133.97934545454547,129.3416449652778L133.99543636363637,129.34067925347222L134.0093818181818,129.34405924479165L134.05121818181817,129.35468207465277L134.19067272727273,129.37447916666667L134.55647272727273,129.44014756944443L134.74527272727275,129.47781032986111L134.84396363636364,129.50774739583335L134.9212,129.52464735243055L134.9362181818182,129.53140733506945L135.3889090909091,129.61590711805556L135.45005454545455,129.62459852430555L135.582,129.64439561631946L135.7708,129.6893012152778L135.87807272727272,129.72213541666667L135.98856363636364,129.75158962673612L136.34685454545456,129.8346408420139L137.05592727272727,129.95728624131945L137.13423636363638,129.9587348090278L137.3316181818182,129.9949490017361L137.79074545454546,130.12097439236112L137.9377090909091,130.1456000434028L138.64141818181818,130.22478841145835L138.64249090909092,130.22430555555556L138.7047090909091,130.23927408854166L138.91925454545452,130.27500542534722L139.2636,130.32763671875L139.52212727272726,130.39137369791666L139.65943636363636,130.4295193142361L139.69483636363637,130.44110785590277L139.90294545454546,130.48359917534722L140.08316363636362,130.5164333767361L140.1217818181818,130.52705620659722L140.14216363636362,130.53478190104167L140.24514545454545,130.53961046006944L140.73538181818182,130.61735026041669L140.77936363636363,130.62073025173612L140.87376363636366,130.6318359375L141.11190909090908,130.67143012152778L141.27603636363636,130.697021484375L141.50881818181819,130.74192708333334L142.10418181818184,130.82208116319444L142.3122909090909,130.8553982204861L142.35412727272728,130.86553819444444L142.5676,130.91768663194443L143.01814545454548,130.99108072916667L143.30456363636364,131.0509548611111L143.46761818181818,131.08234049479165L143.724,131.12724609375L144.05869090909093,131.1818088107639L144.23783636363638,131.2102973090278L144.62509090909091,131.28755425347222L144.92116363636364,131.33777126736112L144.9780181818182,131.34791124131945L145.3609818181818,131.4208224826389L145.37385454545455,131.4222710503472L145.63881818181818,131.48262803819443L145.64632727272726,131.48166232638889L145.76003636363635,131.50821940104169L145.93274545454545,131.5680935329861L146.02929090909092,131.58451063368057L146.37685454545456,131.6376247829861L146.61285454545455,131.6815646701389L146.6536181818182,131.687841796875L146.73085454545455,131.70570746527778L146.7726909090909,131.7187445746528L146.89712727272726,131.72985026041667L146.98080000000002,131.74385308159722L146.99581818181818,131.74723307291669L147.01405454545454,131.75254448784722L147.12990909090908,131.76558159722222L147.64481818181818,131.83221571180556L147.84863636363636,131.85249565972222L147.97307272727272,131.8771213107639L148.2090727272727,131.90995551215278L148.2401818181818,131.9143012152778L148.7347090909091,131.97996961805555L149.0104,132.018115234375L149.04150909090907,132.02390950520834L149.10694545454544,132.03694661458331L149.43305454545455,132.10164930555555L149.61327272727272,132.148486328125L150.1592909090909,132.213671875L150.49398181818182,132.28078884548611L151.09792727272728,132.3768771701389L151.4605090909091,132.45799696180555L151.46158181818183,132.45847981770834L151.6106909090909,132.4942111545139L151.64287272727273,132.49903971354166L151.68685454545454,132.49517686631944L151.8112909090909,132.5226996527778L152.15027272727272,132.59947374131946L152.19532727272727,132.61154513888889L152.5471818181818,132.65500217013889L152.58043636363635,132.65596788194443L152.9945090909091,132.7390190972222L153.0073818181818,132.7414333767361L153.12001818181818,132.76509331597222L153.47294545454545,132.8220703125L154.05329090909092,132.91719292534722L154.07903636363636,132.91912434895835L154.11443636363634,132.9215386284722L154.58321818181818,133.0156955295139L154.65401818181817,133.03838975694444L154.68405454545456,133.04032118055557L155.0434181818182,133.09729817708333L155.288,133.13978949652778L155.3030181818182,133.13978949652778L155.35021818181818,133.14703233506944L155.59158181818182,133.19000651041665L155.85654545454545,133.24698350694445L157.09447272727274,133.4212944878472L157.35514545454546,133.460888671875L157.62118181818184,133.48165147569443L157.67803636363635,133.495654296875L157.79496363636363,133.51158854166667L157.9376363636364,133.54055989583333L158.1350181818182,133.56470269097224L158.27232727272727,133.591259765625L158.32918181818184,133.6004340277778L158.37423636363636,133.61105685763889L158.49867272727275,133.63568250868056L158.533,133.6453396267361L158.56732727272725,133.64920247395833L158.63276363636362,133.65499674479167L158.65207272727272,133.65596245659722L158.88378181818183,133.69265950520833L159.08974545454544,133.72742513020833L159.2013090909091,133.743359375L159.67759999999998,133.81627061631946L159.99298181818182,133.86407335069444L160.0358909090909,133.86407335069444L160.1774909090909,133.89449327256943L160.27189090909093,133.90366753472222L160.28476363636364,133.90704752604165L160.29334545454546,133.90704752604165L160.37487272727273,133.92346462673612L160.421,133.92684461805555L160.55723636363638,133.93601888020834L160.82863636363638,133.99637586805557L160.98525454545455,134.02872721354166L161.24807272727273,134.06542426215276L161.66321818181817,134.14606119791665L161.90243636363635,134.1871039496528L162.50852727272726,134.26387803819443L162.5203272727273,134.26822374131945L162.71127272727273,134.28174370659724L162.76919999999998,134.29140082465278L162.92152727272727,134.3174750434028L163.77970909090908,134.45219184027778L164.03716363636363,134.49178602430555L164.05432727272728,134.49564887152778L164.34825454545455,134.51689453125L164.4684,134.538623046875L164.65934545454547,134.577734375L164.69367272727274,134.58111436631944L164.7709090909091,134.58594292534724L165.04981818181818,134.64195421006946L165.20750909090907,134.66561414930555L165.60334545454546,134.73128255208334L165.6172909090909,134.73273111979165L165.70847272727272,134.747216796875L166.11396363636365,134.82205946180557L166.14078181818184,134.82592230902776L166.25449090909092,134.84571940104166L166.93245454545453,134.95629340277776L167.20814545454544,134.99975043402776L167.56965454545454,135.0576931423611L167.64581818181816,135.07362738715278L167.7294909090909,135.08714735243055L168.0674,135.14364149305555L168.07276363636365,135.14412434895834L168.08885454545455,135.14557291666665L168.44285454545454,135.1668185763889L168.4771818181818,135.16971571180557L168.6885090909091,135.20061848958335L168.93523636363636,135.24793836805554L169.02427272727274,135.2556640625L169.04465454545453,135.26145833333334L169.15514545454548,135.27111545138888L169.2162909090909,135.27642686631944L169.45443636363638,135.32133246527778L169.9672,135.40872938368057L169.99723636363635,135.416455078125L170.0894909090909,135.43721788194443L170.4982,135.50240342881943L170.5218,135.503369140625L170.8404,135.55938042534723L170.99594545454545,135.5994574652778L171.0452909090909,135.60911458333334L171.60954545454547,135.69989149305556L171.65245454545453,135.70423719618054L171.66103636363636,135.70665147569446L171.68463636363634,135.711962890625L171.69536363636362,135.71486002604166L171.7768909090909,135.72355143229166L171.81336363636365,135.73465711805557L171.9066909090909,135.755419921875L171.93994545454544,135.77087131076388L172.4409090909091,135.84812825520834L172.6972909090909,135.88241102430555L172.94723636363636,135.91089952256945L173.6241272727273,136.0050564236111L173.66274545454547,136.01181640625L173.7668,136.01712782118057L173.99207272727273,136.03644205729165L173.99314545454547,136.03644205729165L174.3138909090909,136.09776475694446L174.58743636363636,136.1272189670139L174.7386909090909,136.15667317708335L175.0540727272727,136.19288736979166L175.22141818181817,136.21461588541666L175.37481818181817,136.24551866319445L175.46707272727272,136.26000434027776L175.67732727272727,136.2831814236111L175.70414545454545,136.28366427951389L175.8393090909091,136.31746419270834L175.9144,136.3227756076389L176.0956909090909,136.35705837673612L176.16970909090907,136.36671549479166L176.233,136.37299262152777L176.36065454545457,136.3918240017361L176.49367272727272,136.41065538194445L177.30036363636364,136.5352322048611L177.6565090909091,136.58206922743057L177.6683090909091,136.58255208333333L177.76270909090908,136.60572916666666L177.80454545454546,136.61297200520835L177.84852727272727,136.61828342013888L178.4074181818182,136.71050889756944L178.50074545454547,136.72837456597222L178.81934545454544,136.74479166666666L179.53807272727272,136.8761284722222L179.67216363636365,136.8959255642361L180.28576363636364,137.00360243055556L180.42092727272728,137.0282280815972L180.52712727272728,137.04899088541666L180.67301818181818,137.06733940972222L180.8038909090909,137.09099934895835L180.86610909090908,137.0982421875L180.94012727272727,137.10451931423611L180.94441818181818,137.10693359375L181.05276363636364,137.1267306857639L181.1450181818182,137.1441134982639L181.76505454545455,137.25855034722224L181.88627272727274,137.26675889756945L182.0235818181818,137.2788302951389L182.03967272727272,137.27834743923611L182.24134545454547,137.31456163194446L182.29605454545455,137.32132161458333L182.37007272727274,137.33194444444445L182.37436363636363,137.33339301215278L182.9396909090909,137.41451280381943L182.96007272727272,137.4174099392361L183.04589090909093,137.42706705729165L183.17676363636363,137.44444986979167L183.2894,137.46907552083334L183.48141818181819,137.50866970486112L183.49643636363638,137.5134982638889L183.53505454545456,137.511083984375L183.57903636363636,137.52315538194443L183.6798727272727,137.537158203125L183.73243636363637,137.55405815972222L183.8364909090909,137.56612955729167L183.92552727272727,137.58399522569445L184.01885454545456,137.6047580295139L184.03816363636363,137.60813802083334L184.18298181818182,137.6202094184028L184.7837090909091,137.7071234809028L185.0701272727273,137.73802625868055L185.3308,137.7723090277778L186.17825454545454,137.867431640625L186.25012727272727,137.87757161458333L186.31556363636366,137.89157443576389L186.70174545454546,137.963037109375L186.7704,137.9697970920139L187.21343636363636,138.04512261284722L187.36683636363637,138.0697482638889L187.93001818181818,138.1412109375L188.0136909090909,138.15135091145834L188.02334545454545,138.154248046875L188.35374545454545,138.20784505208334L188.49963636363637,138.23729926215276L188.51572727272728,138.23778211805555L188.7688909090909,138.27979058159724L189.13147272727272,138.3319390190972L189.22050909090908,138.34401041666666L189.49941818181819,138.38167317708334L189.68607272727274,138.40098741319446L189.76438181818182,138.42175021701388L189.79012727272726,138.4241644965278L189.83947272727272,138.42851019965278L189.921,138.43382161458334L189.94138181818184,138.43768446180556L190.01218181818183,138.44492730034722L190.1848909090909,138.46520724826388L190.2825090909091,138.48114149305556L190.334,138.49369574652778L190.54103636363638,138.52846137152778L190.74056363636365,138.54149848090276L190.86714545454547,138.54584418402777L190.91434545454544,138.55550130208334L190.9400909090909,138.56177842881945L190.98943636363634,138.56515842013889L191.514,138.65690104166666L191.6942181818182,138.67621527777777L191.86156363636363,138.6950466579861L192.00101818181818,138.71098090277778L192.1715818181818,138.74188368055556L192.45585454545454,138.7867892795139L192.57814545454545,138.80706922743056L192.85383636363636,138.8534233940972L192.88816363636363,138.85390625L193.3076,138.91957465277778L193.36123636363635,138.92633463541665L193.54574545454545,138.95289171006945L193.58543636363635,138.95772026909722L193.8504,138.97896592881943L194.1142909090909,139.02483723958335L194.16363636363636,139.03980577256945L194.3342,139.0644314236111L194.36423636363637,139.07167426215278L194.5541090909091,139.1122341579861L195.18272727272728,139.22860243055555L195.2074,139.23584526909724L195.3886909090909,139.26143663194443L195.38976363636365,139.26191948784722L195.45734545454545,139.2778537326389L195.5453090909091,139.29185655381946L195.68369090909093,139.31599934895834L195.74483636363635,139.32613932291667L195.86176363636363,139.34738498263889L195.93792727272725,139.3599392361111L196.08274545454546,139.38697916666666L196.4464,139.43043619791666L196.62661818181817,139.45892469618056L197.33461818181817,139.5487358940972L197.46012727272728,139.57239583333333L198.04905454545454,139.68152126736112L198.26038181818183,139.70662977430555L198.30329090909092,139.70711263020834L198.43523636363636,139.70952690972223L198.95121818181818,139.78968098958333L199.09496363636362,139.81865234375L199.0971090909091,139.81913519965278L199.31272727272727,139.84955512152777L199.52405454545453,139.88480360243057L199.84694545454548,139.94274631076388L199.87161818181818,139.94226345486112L200.0647090909091,139.98089192708335L200.0775818181818,139.9833062065972L200.46054545454544,140.03980034722224L200.54314545454548,140.04752604166666L200.75983636363637,140.08470594618055L200.85101818181818,140.08856879340277L200.9700909090909,140.10595160590276L201.0248,140.11271158854166L201.29083636363637,140.16341145833334L201.71241818181818,140.23294270833333L201.86581818181818,140.25032552083334L202.09001818181818,140.29523111979165L202.26165454545455,140.32758246527777L202.4450909090909,140.3526909722222L202.6017090909091,140.38262803819444L202.6135090909091,140.38262803819444L202.7518909090909,140.40387369791665L202.77334545454545,140.4115993923611L203.09194545454545,140.47002495659723L203.33974545454544,140.50189344618056L203.6197272727273,140.55404188368055L203.68194545454546,140.5699761284722L203.77849090909092,140.58397894965276L203.9190181818182,140.61439887152778L204.01985454545454,140.6337131076389L204.34918181818182,140.67572157118056L205.11832727272727,140.80416124131943L205.556,140.87803819444446L205.59783636363636,140.8809353298611L205.60856363636364,140.88238389756944L206.21143636363635,140.9919921875L206.4098909090909,141.02530924479166L207.00632727272728,141.11946614583334L207.13612727272726,141.14312608506944L207.2230181818182,141.14940321180555L207.2391090909091,141.1547146267361L207.35281818181818,141.16920030381945L207.40109090909093,141.17258029513889L207.54054545454545,141.18899739583333L207.6328,141.1981716579861L207.72719999999998,141.20879448784723L207.83554545454544,141.22134874131945L208.5532,141.31840277777778L208.80314545454544,141.35992838541665L209.09814545454543,141.39952256944446L209.29981818181818,141.4226996527778L209.3641818181818,141.43332248263889L209.47467272727275,141.44684244791665L209.5873090909091,141.46277669270833L209.7728909090909,141.49126519097223L210.34143636363638,141.59314778645833L210.41438181818182,141.60763346354167" style="fill: none;" fill="none"></path></g></g></g></g></g></g><g transform="translate(94, 178)" clip-path="url(#clip_1)"><clipPath id="clip_1"><rect width="236" height="22"></rect></clipPath><g><g><line x1="0" y1="0" x2="0" y2="5" style="visibility: inherit;" fill="rgb(0, 0, 0)" stroke="rgb(204, 204, 204)" stroke-width="1px"></line><line x1="21.454545454545457" y1="0" x2="21.454545454545457" y2="5" style="visibility: inherit;" fill="rgb(0, 0, 0)" stroke="rgb(204, 204, 204)" stroke-width="1px"></line><line x1="42.909090909090914" y1="0" x2="42.909090909090914" y2="5" style="visibility: inherit;" fill="rgb(0, 0, 0)" stroke="rgb(204, 204, 204)" stroke-width="1px"></line><line x1="64.36363636363636" y1="0" x2="64.36363636363636" y2="5" style="visibility: inherit;" fill="rgb(0, 0, 0)" stroke="rgb(204, 204, 204)" stroke-width="1px"></line><line x1="85.81818181818183" y1="0" x2="85.81818181818183" y2="5" style="visibility: inherit;" fill="rgb(0, 0, 0)" stroke="rgb(204, 204, 204)" stroke-width="1px"></line><line x1="107.27272727272727" y1="0" x2="107.27272727272727" y2="5" style="visibility: inherit;" fill="rgb(0, 0, 0)" stroke="rgb(204, 204, 204)" stroke-width="1px"></line><line x1="128.72727272727272" y1="0" x2="128.72727272727272" y2="5" style="visibility: inherit;" fill="rgb(0, 0, 0)" stroke="rgb(204, 204, 204)" stroke-width="1px"></line><line x1="150.1818181818182" y1="0" x2="150.1818181818182" y2="5" style="visibility: inherit;" fill="rgb(0, 0, 0)" stroke="rgb(204, 204, 204)" stroke-width="1px"></line><line x1="171.63636363636365" y1="0" x2="171.63636363636365" y2="5" style="visibility: inherit;" fill="rgb(0, 0, 0)" stroke="rgb(204, 204, 204)" stroke-width="1px"></line><line x1="193.0909090909091" y1="0" x2="193.0909090909091" y2="5" style="visibility: inherit;" fill="rgb(0, 0, 0)" stroke="rgb(204, 204, 204)" stroke-width="1px"></line><line x1="214.54545454545453" y1="0" x2="214.54545454545453" y2="5" style="visibility: inherit;" fill="rgb(0, 0, 0)" stroke="rgb(204, 204, 204)" stroke-width="1px"></line><line x1="236" y1="0" x2="236" y2="5" style="visibility: inherit;" fill="rgb(0, 0, 0)" stroke="rgb(204, 204, 204)" stroke-width="1px"></line></g><g transform="translate(0, 8)"><text x="0" y="0" dx="0em" dy="0.95em" style="text-anchor: middle; visibility: hidden; font-family: &quot;Helvetica Neue&quot;, sans-serif; font-size: 12px; font-weight: 200;" fill="rgb(50, 49, 63)" stroke="none" stroke-width="1px">-20k</text><text x="21.454545454545457" y="0" dx="0em" dy="0.95em" style="text-anchor: middle; visibility: inherit; font-family: &quot;Helvetica Neue&quot;, sans-serif; font-size: 12px; font-weight: 200;" fill="rgb(50, 49, 63)" stroke="none" stroke-width="1px">0</text><text x="42.909090909090914" y="0" dx="0em" dy="0.95em" style="text-anchor: middle; visibility: hidden; font-family: &quot;Helvetica Neue&quot;, sans-serif; font-size: 12px; font-weight: 200;" fill="rgb(50, 49, 63)" stroke="none" stroke-width="1px">20k</text><text x="64.36363636363636" y="0" dx="0em" dy="0.95em" style="text-anchor: middle; visibility: inherit; font-family: &quot;Helvetica Neue&quot;, sans-serif; font-size: 12px; font-weight: 200;" fill="rgb(50, 49, 63)" stroke="none" stroke-width="1px">40k</text><text x="85.81818181818183" y="0" dx="0em" dy="0.95em" style="text-anchor: middle; visibility: hidden; font-family: &quot;Helvetica Neue&quot;, sans-serif; font-size: 12px; font-weight: 200;" fill="rgb(50, 49, 63)" stroke="none" stroke-width="1px">60k</text><text x="107.27272727272727" y="0" dx="0em" dy="0.95em" style="text-anchor: middle; visibility: inherit; font-family: &quot;Helvetica Neue&quot;, sans-serif; font-size: 12px; font-weight: 200;" fill="rgb(50, 49, 63)" stroke="none" stroke-width="1px">80k</text><text x="128.72727272727272" y="0" dx="0em" dy="0.95em" style="text-anchor: middle; visibility: hidden; font-family: &quot;Helvetica Neue&quot;, sans-serif; font-size: 12px; font-weight: 200;" fill="rgb(50, 49, 63)" stroke="none" stroke-width="1px">100k</text><text x="150.1818181818182" y="0" dx="0em" dy="0.95em" style="text-anchor: middle; visibility: inherit; font-family: &quot;Helvetica Neue&quot;, sans-serif; font-size: 12px; font-weight: 200;" fill="rgb(50, 49, 63)" stroke="none" stroke-width="1px">120k</text><text x="171.63636363636365" y="0" dx="0em" dy="0.95em" style="text-anchor: middle; visibility: hidden; font-family: &quot;Helvetica Neue&quot;, sans-serif; font-size: 12px; font-weight: 200;" fill="rgb(50, 49, 63)" stroke="none" stroke-width="1px">140k</text><text x="193.0909090909091" y="0" dx="0em" dy="0.95em" style="text-anchor: middle; visibility: inherit; font-family: &quot;Helvetica Neue&quot;, sans-serif; font-size: 12px; font-weight: 200;" fill="rgb(50, 49, 63)" stroke="none" stroke-width="1px">160k</text><text x="214.54545454545453" y="0" dx="0em" dy="0.95em" style="text-anchor: middle; visibility: hidden; font-family: &quot;Helvetica Neue&quot;, sans-serif; font-size: 12px; font-weight: 200;" fill="rgb(50, 49, 63)" stroke="none" stroke-width="1px">180k</text><text x="236" y="0" dx="0em" dy="0.95em" style="text-anchor: middle; visibility: hidden; font-family: &quot;Helvetica Neue&quot;, sans-serif; font-size: 12px; font-weight: 200;" fill="rgb(50, 49, 63)" stroke="none" stroke-width="1px">200k</text></g><line x1="0" y1="0" x2="236" y2="0" fill="rgb(0, 0, 0)" stroke="rgb(204, 204, 204)" stroke-width="1px"></line></g></g></g></g></svg>