<svg viewBox="0 0 330 200" xmlns="http://www.w3.org/2000/svg"><g><g><g><g><g><line x1="70" y1="178" x2="65" y2="178" style="visibility: inherit;" fill="rgb(0, 0, 0)" stroke="rgb(204, 204, 204)" stroke-width="1px"></line><line x1="70" y1="163.16666666666686" x2="65" y2="163.16666666666686" style="visibility: inherit;" fill="rgb(0, 0, 0)" stroke="rgb(204, 204, 204)" stroke-width="1px"></line><line x1="70" y1="148.3333333333335" x2="65" y2="148.3333333333335" style="visibility: inherit;" fill="rgb(0, 0, 0)" stroke="rgb(204, 204, 204)" stroke-width="1px"></line><line x1="70" y1="133.50000000000017" x2="65" y2="133.50000000000017" style="visibility: inherit;" fill="rgb(0, 0, 0)" stroke="rgb(204, 204, 204)" stroke-width="1px"></line><line x1="70" y1="118.6666666666668" x2="65" y2="118.6666666666668" style="visibility: inherit;" fill="rgb(0, 0, 0)" stroke="rgb(204, 204, 204)" stroke-width="1px"></line><line x1="70" y1="103.83333333333344" x2="65" y2="103.83333333333344" style="visibility: inherit;" fill="rgb(0, 0, 0)" stroke="rgb(204, 204, 204)" stroke-width="1px"></line><line x1="70" y1="89.0000000000001" x2="65" y2="89.0000000000001" style="visibility: inherit;" fill="rgb(0, 0, 0)" stroke="rgb(204, 204, 204)" stroke-width="1px"></line><line x1="70" y1="74.16666666666676" x2="65" y2="74.16666666666676" style="visibility: inherit;" fill="rgb(0, 0, 0)" stroke="rgb(204, 204, 204)" stroke-width="1px"></line><line x1="70" y1="59.3333333333334" x2="65" y2="59.3333333333334" style="visibility: inherit;" fill="rgb(0, 0, 0)" stroke="rgb(204, 204, 204)" stroke-width="1px"></line><line x1="70" y1="44.50000000000006" x2="65" y2="44.50000000000006" style="visibility: inherit;" fill="rgb(0, 0, 0)" stroke="rgb(204, 204, 204)" stroke-width="1px"></line><line x1="70" y1="29.666666666666686" x2="65" y2="29.666666666666686" style="visibility: inherit;" fill="rgb(0, 0, 0)" stroke="rgb(204, 204, 204)" stroke-width="1px"></line><line x1="70" y1="14.833333333333371" x2="65" y2="14.833333333333371" style="visibility: inherit;" fill="rgb(0, 0, 0)" stroke="rgb(204, 204, 204)" stroke-width="1px"></line><line x1="70" y1="0" x2="65" y2="0" style="visibility: inherit;" fill="rgb(0, 0, 0)" stroke="rgb(204, 204, 204)" stroke-width="1px"></line></g><g transform="translate(60, 0)"><text x="0" y="178" dx="0em" dy="0.3em" style="text-anchor: end; visibility: hidden; font-family: &quot;Helvetica Neue&quot;, sans-serif; font-size: 12px; font-weight: 200;" fill="rgb(50, 49, 63)" stroke="none" stroke-width="1px">0.117</text><text x="0" y="163.16666666666686" dx="0em" dy="0.3em" style="text-anchor: end; visibility: inherit; font-family: &quot;Helvetica Neue&quot;, sans-serif; font-size: 12px; font-weight: 200;" fill="rgb(50, 49, 63)" stroke="none" stroke-width="1px">0.118</text><text x="0" y="148.3333333333335" dx="0em" dy="0.3em" style="text-anchor: end; visibility: hidden; font-family: &quot;Helvetica Neue&quot;, sans-serif; font-size: 12px; font-weight: 200;" fill="rgb(50, 49, 63)" stroke="none" stroke-width="1px">0.119</text><text x="0" y="133.50000000000017" dx="0em" dy="0.3em" style="text-anchor: end; visibility: inherit; font-family: &quot;Helvetica Neue&quot;, sans-serif; font-size: 12px; font-weight: 200;" fill="rgb(50, 49, 63)" stroke="none" stroke-width="1px">0.12</text><text x="0" y="118.6666666666668" dx="0em" dy="0.3em" style="text-anchor: end; visibility: hidden; font-family: &quot;Helvetica Neue&quot;, sans-serif; font-size: 12px; font-weight: 200;" fill="rgb(50, 49, 63)" stroke="none" stroke-width="1px">0.121</text><text x="0" y="103.83333333333344" dx="0em" dy="0.3em" style="text-anchor: end; visibility: inherit; font-family: &quot;Helvetica Neue&quot;, sans-serif; font-size: 12px; font-weight: 200;" fill="rgb(50, 49, 63)" stroke="none" stroke-width="1px">0.122</text><text x="0" y="89.0000000000001" dx="0em" dy="0.3em" style="text-anchor: end; visibility: hidden; font-family: &quot;Helvetica Neue&quot;, sans-serif; font-size: 12px; font-weight: 200;" fill="rgb(50, 49, 63)" stroke="none" stroke-width="1px">0.123</text><text x="0" y="74.16666666666676" dx="0em" dy="0.3em" style="text-anchor: end; visibility: inherit; font-family: &quot;Helvetica Neue&quot;, sans-serif; font-size: 12px; font-weight: 200;" fill="rgb(50, 49, 63)" stroke="none" stroke-width="1px">0.124</text><text x="0" y="59.3333333333334" dx="0em" dy="0.3em" style="text-anchor: end; visibility: hidden; font-family: &quot;Helvetica Neue&quot;, sans-serif; font-size: 12px; font-weight: 200;" fill="rgb(50, 49, 63)" stroke="none" stroke-width="1px">0.125</text><text x="0" y="44.50000000000006" dx="0em" dy="0.3em" style="text-anchor: end; visibility: inherit; font-family: &quot;Helvetica Neue&quot;, sans-serif; font-size: 12px; font-weight: 200;" fill="rgb(50, 49, 63)" stroke="none" stroke-width="1px">0.126</text><text x="0" y="29.666666666666686" dx="0em" dy="0.3em" style="text-anchor: end; visibility: hidden; font-family: &quot;Helvetica Neue&quot;, sans-serif; font-size: 12px; font-weight: 200;" fill="rgb(50, 49, 63)" stroke="none" stroke-width="1px">0.127</text><text x="0" y="14.833333333333371" dx="0em" dy="0.3em" style="text-anchor: end; visibility: inherit; font-family: &quot;Helvetica Neue&quot;, sans-serif; font-size: 12px; font-weight: 200;" fill="rgb(50, 49, 63)" stroke="none" stroke-width="1px">0.128</text><text x="0" y="0" dx="0em" dy="0.3em" style="text-anchor: end; visibility: hidden; font-family: &quot;Helvetica Neue&quot;, sans-serif; font-size: 12px; font-weight: 200;" fill="rgb(50, 49, 63)" stroke="none" stroke-width="1px">0.129</text></g><line x1="70" y1="0" x2="70" y2="178" fill="rgb(0, 0, 0)" stroke="rgb(204, 204, 204)" stroke-width="1px"></line></g></g><g transform="translate(70, 0)" clip-path="url(#clip_0)"><clipPath id="clip_0"><rect width="260" height="178"></rect></clipPath><g><g><g><line x1="0" y1="0" x2="0" y2="178" fill="rgb(0, 0, 0)" stroke="rgb(60, 60, 60)" stroke-width="1px" opacity="0.25"></line><line x1="23.636363636363637" y1="0" x2="23.636363636363637" y2="178" fill="rgb(0, 0, 0)" stroke="rgb(60, 60, 60)" stroke-width="1px" opacity="0.25"></line><line x1="47.27272727272727" y1="0" x2="47.27272727272727" y2="178" fill="rgb(0, 0, 0)" stroke="rgb(60, 60, 60)" stroke-width="1px" opacity="0.25"></line><line x1="70.9090909090909" y1="0" x2="70.9090909090909" y2="178" fill="rgb(0, 0, 0)" stroke="rgb(60, 60, 60)" stroke-width="1px" opacity="0.25"></line><line x1="94.54545454545455" y1="0" x2="94.54545454545455" y2="178" fill="rgb(0, 0, 0)" stroke="rgb(60, 60, 60)" stroke-width="1px" opacity="0.25"></line><line x1="118.18181818181817" y1="0" x2="118.18181818181817" y2="178" fill="rgb(0, 0, 0)" stroke="rgb(60, 60, 60)" stroke-width="1px" opacity="0.25"></line><line x1="141.8181818181818" y1="0" x2="141.8181818181818" y2="178" fill="rgb(0, 0, 0)" stroke="rgb(60, 60, 60)" stroke-width="1px" opacity="0.25"></line><line x1="165.45454545454544" y1="0" x2="165.45454545454544" y2="178" fill="rgb(0, 0, 0)" stroke="rgb(60, 60, 60)" stroke-width="1px" opacity="0.25"></line><line x1="189.0909090909091" y1="0" x2="189.0909090909091" y2="178" fill="rgb(0, 0, 0)" stroke="rgb(60, 60, 60)" stroke-width="1px" opacity="0.25"></line><line x1="212.72727272727275" y1="0" x2="212.72727272727275" y2="178" fill="rgb(0, 0, 0)" stroke="rgb(60, 60, 60)" stroke-width="1px" opacity="0.25"></line><line x1="236.36363636363635" y1="0" x2="236.36363636363635" y2="178" fill="rgb(0, 0, 0)" stroke="rgb(60, 60, 60)" stroke-width="1px" opacity="0.25"></line><line x1="260" y1="0" x2="260" y2="178" fill="rgb(0, 0, 0)" stroke="rgb(60, 60, 60)" stroke-width="1px" opacity="0.25"></line></g><g><line x1="0" y1="178" x2="260" y2="178" fill="rgb(0, 0, 0)" stroke="rgb(60, 60, 60)" stroke-width="1px" opacity="0.25"></line><line x1="0" y1="163.16666666666686" x2="260" y2="163.16666666666686" fill="rgb(0, 0, 0)" stroke="rgb(60, 60, 60)" stroke-width="1px" opacity="0.25"></line><line x1="0" y1="148.3333333333335" x2="260" y2="148.3333333333335" fill="rgb(0, 0, 0)" stroke="rgb(60, 60, 60)" stroke-width="1px" opacity="0.25"></line><line x1="0" y1="133.50000000000017" x2="260" y2="133.50000000000017" fill="rgb(0, 0, 0)" stroke="rgb(60, 60, 60)" stroke-width="1px" opacity="0.25"></line><line x1="0" y1="118.6666666666668" x2="260" y2="118.6666666666668" fill="rgb(0, 0, 0)" stroke="rgb(60, 60, 60)" stroke-width="1px" opacity="0.25"></line><line x1="0" y1="103.83333333333344" x2="260" y2="103.83333333333344" fill="rgb(0, 0, 0)" stroke="rgb(60, 60, 60)" stroke-width="1px" opacity="0.25"></line><line x1="0" y1="89.0000000000001" x2="260" y2="89.0000000000001" fill="rgb(0, 0, 0)" stroke="rgb(60, 60, 60)" stroke-width="1px" opacity="0.25"></line><line x1="0" y1="74.16666666666676" x2="260" y2="74.16666666666676" fill="rgb(0, 0, 0)" stroke="rgb(60, 60, 60)" stroke-width="1px" opacity="0.25"></line><line x1="0" y1="59.3333333333334" x2="260" y2="59.3333333333334" fill="rgb(0, 0, 0)" stroke="rgb(60, 60, 60)" stroke-width="1px" opacity="0.25"></line><line x1="0" y1="44.50000000000006" x2="260" y2="44.50000000000006" fill="rgb(0, 0, 0)" stroke="rgb(60, 60, 60)" stroke-width="1px" opacity="0.25"></line><line x1="0" y1="29.666666666666686" x2="260" y2="29.666666666666686" fill="rgb(0, 0, 0)" stroke="rgb(60, 60, 60)" stroke-width="1px" opacity="0.25"></line><line x1="0" y1="14.833333333333371" x2="260" y2="14.833333333333371" fill="rgb(0, 0, 0)" stroke="rgb(60, 60, 60)" stroke-width="1px" opacity="0.25"></line><line x1="0" y1="0" x2="260" y2="0" fill="rgb(0, 0, 0)" stroke="rgb(60, 60, 60)" stroke-width="1px" opacity="0.25"></line></g></g></g><g><g><line x1="0" y1="1913.5000000000007" x2="260" y2="1913.5000000000007" fill="rgb(0, 0, 0)" stroke="rgb(153, 153, 153)" stroke-width="1.5px"></line></g></g><g><g><line x1="23.636363636363637" y1="0" x2="23.636363636363637" y2="178" fill="rgb(0, 0, 0)" stroke="rgb(153, 153, 153)" stroke-width="1.5px"></line></g></g><g><g><g><g><g><path stroke="rgb(255, 112, 67)" stroke-width="2px" d="M31.567545454545453,-2.527638751769757L31.736545454545453,6.23272845853873L31.868909090909092,15.16659907736181L32.09227272727273,24.112091161310616L32.45272727272727,31.961154940266027L32.456272727272726,37.912892088830915L32.85218181818181,39.127713099446L32.89354545454545,45.41330931306149L33.1689090909091,48.17303912870406L33.303636363636365,54.78410320102813L33.35209090909091,56.01557986310925L33.67945454545455,54.51335903230378L33.691272727272725,53.43590672943817L34.12854545454545,50.31898375431962L34.19590909090909,43.66406512308248L34.58,43.26733535159468L34.82581818181818,43.308772740536L34.927454545454545,47.01349580552554L35.09763636363636,44.0622799094501L35.92609090909091,51.64000196631618L36.02063636363637,56.16546015367473L36.07145454545454,59.16538251097336L36.17190909090909,61.62445898844031L36.376363636363635,67.19186109300381L36.52409090909091,66.06100777385187L36.59618181818182,66.64031124272479L36.66,65.37204716697458L37.26509090909091,69.74141795294568L37.30527272727273,71.82256835415218L37.44590909090909,70.0571078362917L37.53336363636364,67.80597257829834L37.78154545454546,62.342469606104345L37.787454545454544,60.9093819180943L38.012,63.701937527645654L38.160909090909094,66.79447496206913L38.85463636363637,67.11496125621422L39.04018181818182,70.33272072650692L39.07209090909091,73.30952981498456L39.70554545454545,70.34595060380263L39.732727272727274,69.04408690551102L39.95727272727272,71.6896570993615L40.529272727272726,70.20980032323713L40.581272727272726,69.10589193923613L40.971272727272726,68.27896507356576L41.10245454545455,67.4604973342458L41.213545454545454,74.99453837949676L41.922636363636364,75.45899110602521L42.26654545454545,70.47458055556119L42.682545454545455,72.71496649746287L42.92481818181818,74.01600804029425L43.55827272727272,71.20518589078505L43.80527272727272,95.60785324211398L43.84190909090909,87.23752684296458L44.101909090909096,81.28460149507515L44.12790909090909,78.0747671795336L44.369,78.07380654051595L44.38554545454546,77.7680265603543L45.44209090909091,78.47948059030846L46.228,78.348286640178L46.29063636363636,77.46611207616182L46.71845454545455,74.70993509228154L46.84727272727273,72.95282924772383L46.95481818181818,72.9178856329187L47.26681818181818,71.87004021303241L47.33536363636364,77.40084019599188L47.346000000000004,79.97682313897924L47.56109090909091,75.24650922285757L47.57054545454545,72.63656046907448L47.65445454545455,70.31496475688827L47.79272727272728,82.37925792466937L47.909727272727274,84.02912451067367L47.95581818181818,83.83081047081238L48.193363636363635,76.73002453054963L48.19690909090909,82.46404241764138L48.283181818181816,80.49942299868808L48.54909090909091,76.66568066167535L48.62472727272727,75.02654762757457L48.72872727272727,69.7503686091859L48.831545454545456,67.30284451692674L49.45672727272727,70.34147634058829L49.92590909090909,73.75159035891087L50.02636363636364,82.72410939993345L50.05945454545455,86.54933189270032L50.98127272727273,79.99603666216412L50.99309090909091,75.37337282111419L51.04509090909091,72.58677772369094L51.15618181818182,73.05770003211175L51.24481818181818,76.1163948818744L51.32281818181818,73.16499026088127L51.45636363636363,74.00805007697069L51.61,75.66441157627656L51.623000000000005,76.48719245097188L51.64663636363636,77.18876545370308L52.17372727272728,79.98984640086123L52.33327272727273,87.81068384197L52.33563636363637,92.0044012281098L52.380545454545455,93.56015098965946L52.73390909090909,87.8569698544947L52.85918181818182,83.96859124974053L53.10381818181818,84.3602488617638L53.48081818181818,83.62724760654788L53.64390909090909,83.86120236009312L54.14145454545454,86.63479616298244L54.182818181818185,88.3265816810963L54.270272727272726,88.26393594602176L54.72172727272728,83.8318410968351L55.30554545454545,75.10958034926078L55.30672727272727,70.08859326322937L55.72745454545454,68.61342434414289L56.142272727272726,60.58883989847537L56.25809090909091,66.07404751974457L56.299454545454545,70.04272938210642L56.52045454545454,39.75238858325608L56.628,51.243584688484745L57.24490909090909,68.13959964671531L57.369,75.74942083691843L57.873636363636365,85.18274507245596L57.904363636363634,84.90736074440396L57.98236363636364,81.85790311014284L58.14663636363636,79.23520313530554L58.21990909090909,78.6572966227694L58.46572727272728,83.06490329800621L58.631181818181815,83.0934869958873L58.88881818181819,86.33105680032082L59.096818181818186,84.2777480007222L59.127545454545455,83.29460267549811L59.29654545454545,82.06575070813925L59.477363636363634,84.13150292036319L59.64636363636363,84.25221331157711L59.814181818181815,82.98398058357905L59.92527272727273,81.70568902140707L59.941818181818185,81.28781501161576L60.75254545454545,84.02118075514339L60.79627272727272,87.25131801341672L61.31272727272727,83.93816559855965L61.37890909090909,89.64667423573044L61.45927272727273,89.89569923087113L61.69918181818182,88.56396612408251L61.968636363636364,84.8995313100962L62.09509090909091,83.42577317076618L62.231,56.18831055989479L62.355090909090904,68.54266306736433L62.51109090909091,76.8700012265345L62.52054545454545,81.35568321339497L62.676545454545455,86.78963671878303L62.85027272727273,80.61217112196685L63.07954545454545,79.9902197133693L63.11263636363636,74.98090721038152L63.507363636363635,78.71000133474975L63.52154545454545,80.68818505517841L63.544000000000004,119.98147072342357L63.564090909090915,124.91049259472291L63.62790909090909,117.48594385525611L63.67163636363637,108.80142165903865L63.71536363636364,102.64905975869074L63.860727272727274,97.35346705085516L64.246,92.78014978388858L64.43863636363636,85.47145591946402L64.52609090909091,82.95552321735194L65.39354545454546,83.99222981411116L65.41836363636364,86.10543681469304L65.44554545454545,87.04804333420651L65.57081818181818,87.56413986109936L65.91118181818182,87.54180487288981L66.00336363636364,90.10481912072862L66.12627272727272,90.71061616446403L66.22554545454545,87.71955143991596L66.92518181818181,83.92084252188688L66.96063636363637,82.49405647526223L67.08827272727274,87.51562966432196L67.18636363636364,89.19516452665746L67.60236363636363,81.40719540426504L67.94154545454545,90.38414083824192L68.26654545454547,89.6311359817127L68.3989090909091,91.73333547200791L69.06427272727272,89.67415143461646L69.08318181818183,89.42728140003467L69.39636363636365,85.34873472877531L69.53818181818181,82.51939492162975L69.70481818181818,78.39828704240058L70.07709090909091,82.18176556691807L70.55690909090909,79.76871921856385L70.7649090909091,83.69820391082274L70.80154545454546,84.13201573854805L70.93272727272726,85.68853398581024L71.25890909090909,88.13082441341682L71.5,80.02003796091758L71.69263636363637,80.8157470694646L71.69736363636363,81.07823917894359L71.76,82.45517842150997L71.84627272727272,84.76828115886822L72.13818181818182,88.24951057656435L72.37927272727272,92.95215081586755L72.41118181818182,97.3852930590369L72.49390909090909,98.16183703292562L72.7279090909091,96.54420954674L73.43109090909091,92.82764061305643L73.80454545454546,88.75971403527498L73.82581818181818,85.23213444635215L74.074,87.8293554533618L75.06672727272728,89.19781994516228L75.17190909090908,89.13763651665795L75.20972727272728,88.93119774311828L75.29481818181819,88.28618077069557L75.32672727272727,88.01547862070807L75.33145454545455,88.14031297551396L75.40590909090909,99.78947646570288L75.6280909090909,98.79142863245058L75.72263636363637,98.59726878021908L75.87272727272727,95.90842465171077L75.881,96.60005959039253L75.93299999999999,100.10708365538916L75.99563636363636,101.5165443680636L76.60072727272728,100.02668828936139L76.77563636363637,102.59801136556302L77.18454545454546,96.2742090290966L77.25781818181818,89.67907457348801L77.41736363636363,89.20146520612897L77.59581818181819,90.80363418466814L78.37581818181819,86.86691295985572L78.39472727272727,84.25148697227755L78.4880909090909,98.48107080974498L79.53754545454547,94.93856745154645L79.87318181818182,94.62156473313367L79.93581818181818,93.00755118954945L79.97245454545455,89.75038132843625L80.015,87.14853852457159L80.06109090909091,85.80625639438446L80.22418181818182,92.13258981752293L80.301,93.30820992021494L80.32818181818183,92.32258430180174L80.45345454545455,89.63633812501367L80.57754545454546,90.85369160394475L80.63190909090909,92.38902070892208L80.98054545454546,94.45504110717205L81.86690909090909,92.01333389081628L81.96027272727272,112.68953966735627L82.10918181818181,104.38155830883275L82.73436363636363,97.7201390166083L82.79345454545454,93.27573801869147L82.92227272727273,86.28076755877744L82.95772727272727,81.56895314381376L83.04400000000001,85.82038644190165L83.47063636363636,88.53052344263922L83.69518181818181,91.6870000978787L83.88427272727273,92.82495018365856L84.06745454545455,94.26153421713643L84.17736363636364,85.45002480932314L84.85218181818182,88.22121911002145L85.03654545454546,96.93491681468267L85.09209090909091,100.2984935326484L85.436,99.74071059722345L85.50809090909091,94.25873620171527L85.69363636363637,92.02096557731954L85.89690909090909,71.053057671282L86.16163636363636,80.79536551278434L86.20063636363636,87.03918590967815L86.38145454545455,85.90434252515406L86.39918181818182,87.61687988019955L86.82581818181818,86.01909435576381L87.10709090909091,89.12921490740474L87.11536363636364,91.24311043702568L87.1200909090909,92.29059069086898L87.12481818181817,92.80626314518732L87.29145454545454,101.70831492526054L87.34345454545455,104.86962134629142L87.5999090909091,102.85865862562059L87.73936363636365,102.6863427761822L88.27118181818182,100.42955268643074L88.40827272727272,101.22406067384357L88.5619090909091,94.74916117946157L88.6150909090909,89.7633400851082L88.86445454545454,91.01733378729774L88.98972727272727,94.3855334887597L89.27809090909092,99.47811708667038L89.28754545454545,102.23902906865766L89.479,103.6503170523496L89.54163636363636,99.8442822293511L90.21645454545455,95.91223478293824L90.41736363636363,91.71197082982313L90.4339090909091,89.48256043823073L90.53672727272728,90.23310978550619L90.74827272727272,96.04691517356386L90.78727272727274,102.4155352473459L90.99881818181818,103.04705562354341L91.35336363636364,99.36318810479574L91.36045454545456,96.65717698949639L91.572,98.36419740409494L91.89818181818183,102.65334546421484L92.53045454545455,103.68812897118629L92.70181818181818,100.94331601647158L92.83890909090908,101.23432077996507L92.93936363636364,97.58048402487799L93.03154545454547,92.00428572030619L93.06345454545455,88.17454672295901L93.08354545454546,86.52168021861141L93.67563636363637,91.72160587865164L93.73118181818182,95.21758413011655L93.87418181818182,94.77222037133474L94.11999999999999,97.02443481971977L94.15545454545455,98.31506758227036L94.757,103.67223131633257L94.7640909090909,105.46943707452103L94.79009090909092,106.4664200575305L94.89645454545453,103.94524695661585L95.10681818181818,114.9245386889792L95.96954545454545,110.67102026767824L96.05345454545454,109.69368727501606L96.24490909090909,104.48458468216484L96.53090909090909,99.7396078067889L97.07336363636364,99.49940697895723L97.16790909090909,98.85981691209818L97.51890909090909,92.39723300732189L97.55554545454545,88.16147514063334L97.942,91.09799175587229L98.11927272727273,96.31267213698395L98.35090909090908,97.11341880486118L98.59790909090908,97.13455838000222L98.69718181818182,96.62569055578372L98.88390909090909,97.94094614359481L99.11318181818181,105.25161603792174L99.38854545454545,105.06721393488046L99.53863636363636,104.53625462585013L99.88845454545455,98.77838863611217L100.08463636363636,100.73550703732178L100.32336363636364,104.69339048827483L100.74409090909091,106.24587448417027L100.79963636363637,107.54167294092301L101.16481818181818,106.68239605180808L101.21445454545454,105.88545377504262L101.69427272727273,118.69743738244847L101.98854545454546,111.57420747083947L102.56645454545455,115.01444073479901L102.75672727272728,113.61077997661569L102.78981818181819,113.54330730980809L102.843,112.1605733029812L103.33818181818182,109.36143251614389L104.31081818181818,105.48999915335533L104.33209090909091,113.55440581131364L104.44672727272727,112.65010304225527L104.50699999999999,111.55944574459213L104.69727272727273,108.4764193847805L105.38390909090909,102.65643702477381L105.40045454545455,100.35347732224173L105.71954545454545,112.51723303189722L105.74436363636363,115.61504680588348L106.03154545454545,110.7522712707986L106.1249090909091,108.30664592745731L106.2631818181818,110.55706076878012L106.90963636363637,112.17237351571139L107.0490909090909,107.16078193327563L107.13890909090908,106.38335163597732L107.44500000000001,116.44071487111526L107.54072727272728,115.15899943226196L108.05127272727272,109.94710054544777L108.20018181818182,106.26675759085919L108.2309090909091,104.46790658431591L108.368,105.74795594015126L108.61618181818181,106.12524184106833L108.67645454545455,105.70986358236705L108.70245454545454,94.25788751390454L108.74145454545454,100.05296058543652L108.771,99.81743078085665L109.07827272727272,98.98675239872672L109.08063636363636,98.60217782333535L109.20118181818182,106.25381108010849L109.20472727272727,111.75788203806698L109.38672727272727,112.11151147244978L109.58172727272726,122.10465984558249L109.759,117.74303335556496L109.91972727272727,112.77018983727187L110.12063636363636,112.79992717642872L110.28490909090908,113.18172398491281L110.84745454545454,109.37861341605728L110.90299999999999,116.38569634578711L110.9739090909091,116.96114430083091L111.0010909090909,117.9054591253595L111.31190909090908,115.97348091573707L112.15572727272728,110.17930170836756L112.47481818181818,107.38353436157728L112.827,110.6866306203542L112.84827272727273,113.6619030955198L112.94281818181818,113.80699510908718L113.36945454545454,112.53411719920192L113.57154545454546,114.51244849198244L113.71218181818182,111.01790524860137L113.96390909090908,116.58972911838626L114.02418181818183,112.90429935934516L114.19436363636363,115.10748616903454L114.2499090909091,115.20968903729973L114.3881818181818,112.44120226480366L114.52527272727274,106.87753582106714L114.53354545454546,102.86314907534918L114.87036363636363,106.7615864884696L115.26272727272728,109.28843933017096L115.70118181818181,112.03911373021842L115.97772727272726,108.24580728810615L116.06400000000001,106.68044738253907L116.73409090909091,108.80573371816254L116.81445454545455,111.22431383789727L116.90545454545455,112.32972069737006L116.922,112.79345962299902L116.96809090909092,112.02992604311717L117.0059090909091,111.4769381491527L117.494,105.63229492951541L117.70554545454546,110.21552623698585L118.15227272727272,109.28197943403008L118.21845454545453,110.97034071227138L118.22318181818183,112.05223163966475L118.3,112.02257111671061L118.37681818181818,115.62416056197384L118.64272727272729,116.64652444959596L118.66163636363636,117.68941163246402L118.83181818181818,110.84830965533611L118.86254545454545,108.35746111433542L118.90627272727272,105.51729766107107L119.3589090909091,110.86546270992278L119.38136363636363,114.33363449342599L119.5019090909091,117.4731572812847L119.81390909090909,109.53774979190335L119.94745454545455,109.38492930616731L119.98881818181817,108.74228793791413L120.48872727272727,110.31939565585942L121.41527272727272,135.03644065129902L121.45545454545454,129.0033228798797L121.54881818181818,119.9816049538508L121.81590909090909,118.45470365697861L121.87736363636364,107.83398147909665L122.04281818181819,109.8050912846457L122.62781818181818,110.51235747512168L122.8180909090909,109.68902508125284L123.14190909090908,113.81940829975758L123.39245454545454,112.85454910331975L123.61936363636363,111.8651736497919L123.71981818181818,113.64956359784034L123.87581818181819,112.63430073690553L124.11454545454546,104.03317641515801L124.15236363636363,103.45197039027582L124.19609090909091,103.62935164280479L124.29063636363635,104.32240434114793L124.46909090909091,109.1041415827951L124.69127272727272,113.91368466401984L124.72790909090908,115.65029952000516L124.7669090909091,116.17429761332843L124.90163636363636,115.80561333244594L124.97609090909091,117.23853199091874L125.28927272727273,112.36590184216091L126.19454545454546,112.48839180535718L126.2099090909091,112.69508080601683L126.295,121.5900284504095L126.464,118.083254229339L126.919,112.38646062492055L126.98636363636363,108.19211343692966L127.24163636363636,112.58206270397035L127.43427272727273,115.84571361299555L127.79827272727273,117.37103138619383L128.4329090909091,132.5561700557891L128.59954545454545,124.97353601625883L129.12781818181818,123.73689996503578L129.22827272727272,122.56124984007755L129.24718181818182,121.57315741845963L129.69863636363638,118.93989391050138L129.71872727272728,116.72123627417133L129.87236363636364,117.40122906696513L129.9680909090909,118.45782659251515L130.04136363636366,118.44340429186235L130.28009090909092,114.86947424896206L130.53181818181818,112.56433617087787L131.2929090909091,112.46112796671748L131.53636363636363,116.64482202335742L131.91927272727273,118.76818494123953L131.9429090909091,122.78280190699928L131.94645454545454,140.15751160824493L132.04690909090908,130.82283591217316L132.05045454545456,124.68717268498656L132.47472727272728,115.91691147521294L132.50545454545454,110.60099930704735L133.22518181818182,111.62042356614933L133.2949090909091,117.74886300812966L133.69436363636365,103.38527310679844L133.80900000000003,106.8224402037691L134.1020909090909,110.94862231616786L134.6102727272727,112.52662453852867L135.17636363636362,114.65896324993837L135.36072727272727,116.94893342662843L135.65381818181817,118.55080147430688L135.78027272727272,119.20384526557963L135.97645454545454,112.66979559843084L136.12654545454544,112.12066311787154L136.28845454545453,113.03153741250796L136.35463636363636,116.35186049475504L136.39245454545457,115.44864299178658L136.47636363636363,114.6992500798736L136.92545454545456,111.4931890910966L137.03063636363635,110.02024060166498L137.0578181818182,108.76606291339762L137.44663636363637,112.76609440528937L137.7231818181818,123.72153950065527L137.8,122.06916292307868L138.4570909090909,118.32639551439752L138.53981818181816,113.48730021881403L138.62254545454547,119.06389668484923L138.76436363636364,120.42373243312277L138.97709090909092,115.20620437864608L139.14963636363635,121.41432523570946L139.21345454545454,123.22071198925877L139.30800000000002,124.18496470633463L139.438,130.3529771664738L139.61881818181817,130.56693080459047L139.70509090909093,129.50370928085263L139.93200000000002,121.54398451906297L140.01472727272727,115.80983512398711L140.07263636363638,112.48194015103846L140.70136363636362,116.38137062437298L141.2343636363636,117.29699596194614L141.35963636363638,122.73086650229419L141.362,126.16974000368674L141.6810909090909,122.1541016195266L142.4870909090909,126.39730822805853L142.51427272727273,124.2463062153117L142.70572727272727,119.08177661970393L142.83218181818182,119.6994784995425L142.9019090909091,113.437889313172L142.99645454545455,113.95847207435223L143.08509090909092,117.30685484485797L143.18318181818182,118.55022310859142L143.27654545454544,118.79219838169928L143.39590909090907,118.58417138767871L143.50936363636364,118.23699509687812L143.57672727272728,116.39299432190813L143.5897272727273,115.0982729817583L144.09081818181818,121.01456743231334L144.11445454545455,123.90225918541924L144.54463636363636,122.29655517409574L144.78336363636365,120.99640973768828L144.82118181818183,122.09166242100135L144.88500000000002,121.79363817423979L144.99136363636364,120.65951514909898L145.22181818181818,116.37724987270566L145.25845454545453,114.55794711273197L145.32345454545455,110.63788316663882L145.36481818181818,109.47155900408887L145.37663636363635,108.57619371976509L145.6070909090909,113.35391128639026L145.90963636363637,119.07342625804529L145.97463636363636,147.9095770944025L146.4828181818182,144.08776593777722L146.87163636363636,125.90251930499014L146.94018181818183,123.46337933506922L147.37745454545453,125.2852989027881L147.50036363636363,128.14499770740582L147.51690909090908,129.94626869245326L147.5878181818182,129.87464898914487L147.60436363636364,129.15500401312357L147.6220909090909,128.5653988293068L147.63745454545455,127.10973756539363L147.68354545454545,125.68256249642903L147.83718181818182,124.40019252667757L148.2401818181818,129.28278396588527L148.44818181818184,124.95000509855313L148.55690909090907,123.03377456925621L148.642,128.3653246251484L148.65854545454545,132.9099974009042L149.15727272727273,129.75252523259203L149.22463636363636,127.05803186636682L149.37,125.04590621555741L149.578,126.65252487837229L149.6961818181818,127.18746929354855L149.8179090909091,126.7914020001138L150.21263636363636,126.11359473343171L150.9938181818182,125.75288542275908L151.0800909090909,122.27267340122827L151.29754545454546,122.2772950686961L151.80336363636366,129.5065501029064L151.96527272727275,131.2608800388238L152.74054545454547,126.60523355743467L152.74172727272727,123.70570519412279L152.81027272727272,122.58749127096763L153.04663636363637,123.8366843285572L153.426,102.56251588001318L153.71081818181818,111.27393290520389L153.8620909090909,110.6199996220312L153.90109090909093,116.11881174329378L154.13036363636365,124.43181076655858L154.3289090909091,127.28623527095758L154.37145454545455,131.96706568284463L154.3939090909091,133.5783559625364L154.50736363636364,133.61431220839526L155.04745454545454,130.50706281465355L155.0959090909091,128.80720660012216L155.1999090909091,128.1784344449912L155.46227272727273,127.29991049380737L155.6430909090909,132.18878955530107L155.89954545454546,128.62270383966165L156.55545454545455,128.03192529836613L156.78472727272725,124.42308778222008L156.8308181818182,122.49358422749603L157.066,125.85598095969377L157.56236363636364,125.33546365528936L157.8779090909091,127.33631714918002L158.05754545454545,129.19086852910783L158.34,133.58971021518707L158.7087272727273,130.3755515174803L158.90609090909092,129.27664069871525L159.33272727272728,131.42694441004843L159.6589090909091,134.62809724524175L159.72154545454543,135.85133860656364L160.14345454545455,134.5508874902053L160.15763636363639,134.9376315583144L160.44954545454544,132.09942883904898L160.4578181818182,131.7610378304489L160.5830909090909,131.4276374363523L160.77336363636363,133.84521315794916L160.87972727272728,137.09568177244114L161.26263636363637,132.1079743419948L161.52263636363637,130.16809009998235L161.56754545454544,128.55364827805275L161.65263636363636,126.6937303294352L161.69872727272727,126.82374760406881L161.83581818181818,126.69690375863121L161.928,127.77534587783788L161.94454545454548,129.0735327855935L161.96463636363634,129.71796791093686L162.09227272727273,129.7095088025161L162.65954545454545,123.4300326860089L162.8840909090909,121.50254257258611L163.02118181818182,123.28637394350872L163.2811818181818,125.0768011830772L163.31545454545454,124.66597501968485L163.86027272727273,131.36100446304772L164.164,127.48361988338478L164.19827272727272,123.90565103772857L164.27036363636364,123.70197866648594L164.62963636363637,129.83472491278357L164.8281818181818,138.20183838789143L165.42972727272726,124.690713461545L165.79845454545455,121.28719763933056L166.4638181818182,125.79542750703342L166.86327272727274,132.1221825594926L166.86445454545455,135.78490794789155L167.02872727272725,131.32632858608977L167.06418181818182,122.7714142266203L167.11263636363637,118.70552882333348L167.24972727272726,120.12750386464441L167.62318181818182,126.66417753657402L167.67281818181817,131.20463456686758L168.06045454545455,128.94220737602177L168.09709090909092,127.82360028417433L168.5532727272727,129.72823237493563L168.56745454545452,130.5289395796155L168.69154545454543,132.2899016467866L169.08036363636364,135.9754559871438L169.71972727272728,135.999702446275L169.7480909090909,136.50087853627184L169.7870909090909,132.67147752259262L170.30354545454546,134.17279060650324L170.38154545454546,135.6082152325022L170.41463636363636,135.55531804152957L170.81054545454546,134.17018921209575L171.08,137.08541533370737L171.09654545454546,138.54897521944807L171.14854545454546,137.76365429368786L171.41445454545453,140.0047244084309L171.70636363636365,136.69563052172055L173.07018181818182,130.35045751600222L173.35736363636363,134.25199907621976L173.65045454545455,138.84486150106545L173.7130909090909,139.46410957193828L173.8419090909091,138.90134815702717L173.9990909090909,139.58451423046915L174.21654545454547,138.62303120095294L174.3678181818182,137.10369707861804L174.43045454545455,136.83689667216498L174.4800909090909,125.3007325376963L174.61718181818182,126.76660712038858L174.655,126.40657380903993L174.69281818181818,127.63620388320228L174.7649090909091,129.15303798006664L174.7861818181818,130.02419226658378L175.04145454545454,128.04212878520522L175.26836363636363,128.84338929876827L175.39127272727274,134.5930630880108L175.916,136.41813564206234L176.26345454545455,132.07092691603341L176.3107272727273,128.25787856068035L176.46672727272727,128.34510291349383L176.57072727272728,130.066110782215L176.5849090909091,130.59970939103098L176.59436363636362,130.77977727617827L176.6841818181818,130.22038406987593L176.73499999999999,134.52354221061626L176.88509090909093,132.6335678250536L177.1840909090909,130.11922654415855L177.35663636363637,133.1673680597884L177.64618181818182,137.1003187847739L178.10354545454544,138.8701497645739L178.3670909090909,137.58440318891792L179.0348181818182,138.56663813505202L179.04781818181817,138.60799188006092L179.2581818181818,137.07836118492395L179.322,136.35049508702517L179.4898181818182,135.47197288687107L180.43527272727272,134.54452298332313L180.7189090909091,133.6221535379632L180.73781818181817,132.42472752580693L181.06163636363635,134.38356702714958L181.194,136.64755105489365L181.40436363636366,137.64313644278369L181.44218181818184,137.72848477030803L181.52727272727273,130.39269692141835L181.83454545454546,132.0033018416506L182.00827272727273,142.95986618755308L182.44436363636365,140.30762914910733L182.45972727272726,137.3586083537033L182.56018181818183,137.84626135144774L183.0069090909091,137.19044093041117L183.03645454545455,137.04463925609076L183.16172727272726,136.98438962687493L183.90863636363636,139.83786011371672L184.21236363636362,142.890291921101L184.61063636363636,138.0684982648305L184.69454545454545,138.62611476446068L184.78672727272726,137.58077008246306L185.159,140.74822890789665L185.1649090909091,142.63248031555412L185.18263636363636,142.31570124160547L185.57263636363635,138.32729900001266L185.61045454545453,137.17598184815307L185.84327272727273,137.0573598873891L186.11509090909092,142.9717402735717L186.21318181818182,145.6919334816557L186.23563636363636,147.12388111477838L186.35736363636366,146.95068880315068L186.42472727272727,142.22486634092814L186.6870909090909,141.1529138666628L187.25199999999998,136.52304250293406L187.2850909090909,138.7335451580691L187.38672727272728,142.7215368670786L187.83700000000002,141.54565130805366L187.863,140.30176982761674L188.214,144.43591346034148L188.38536363636362,145.3650511723086L188.43972727272728,145.68938725121777L189.06136363636364,139.3329422290799L189.10863636363638,133.50121261769593L189.1180909090909,130.30720162050358L189.1440909090909,129.15048850569994L189.1559090909091,129.2380364755426L189.24572727272727,130.16382595417716L189.28590909090912,133.022251752125L189.3887272727273,129.17627135938824L189.42536363636364,141.63016629632173L189.97727272727275,141.56763473997023L190.25972727272728,129.19611523856446L190.5350909090909,129.38202999617494L191.2808181818182,135.08051989427727L191.32336363636364,137.2888343847882L191.438,136.71540719571271L191.68618181818184,133.80245079379804L191.68736363636364,132.17217856912723L192.04072727272728,153.09506991467234L192.3420909090909,149.39759733057838L192.5087272727273,142.55932863022997L192.85618181818182,139.36185484806373L193.04054545454545,142.02089404868883L193.20954545454546,144.63815724735133L193.31118181818184,145.27897924116053L193.54281818181818,140.89683237034566L193.57236363636363,139.50197432254842L193.72127272727272,140.1055373617914L193.80399999999997,139.29137702398953L194.00372727272728,141.98762553699876L194.08527272727272,142.59105011881252L194.155,143.26184500690835L194.29563636363636,149.1757578061216L194.4421818181818,149.71552478111937L195.3309090909091,144.70495303970864L195.72327272727273,141.33969516258804L195.73627272727273,139.0164862157984L195.84027272727272,138.93925973666222L195.88636363636363,140.17054394618168L195.93481818181817,140.41941495578783L196.55054545454547,138.7231929849066L196.65336363636365,137.68419634205958L197.00436363636362,131.1822251969746L197.79618181818182,131.7574208713076L197.9439090909091,136.29033478914715L198.6199090909091,133.17253387065142L198.76881818181818,135.14443910176396L198.8858181818182,136.9260978105954L199.04654545454545,142.24592841485895L199.19072727272726,141.34993758292856L199.25927272727273,140.04946671222768L199.34081818181818,139.7923714099037L199.34554545454543,140.22111321952187L199.4649090909091,143.8661889600728L199.56654545454543,141.6135034621543L200.24963636363634,143.09170065685845L200.3831818181818,136.89598579624138L200.53445454545454,137.7312803472211L200.5521818181818,138.39642001818413L200.77436363636366,86.10416287758434L200.83463636363638,109.17896041420212L200.91618181818183,120.27236485370281L200.9209090909091,127.10682607425206L201.54372727272727,137.1702456716675L201.5661818181818,142.76203000410277L201.66072727272729,127.04492607432924L201.8049090909091,130.07686394086485L201.92899999999997,135.2267863648992L202.14054545454545,141.71509168731347L202.1570909090909,145.95147313388497L202.19963636363636,146.442019079401L202.2480909090909,146.46703895386483L202.3591818181818,146.46242306901863L202.41709090909092,147.35426610871448L202.53172727272727,143.47528092164382L202.6298181818182,150.02797058879503L202.73263636363637,152.34457816079765L202.7539090909091,153.9439060055942L202.91345454545453,152.57314239921564L203.57527272727273,150.0393956441625L203.8908181818182,143.2226892872024L204.178,142.77592289229437L205.11163636363636,144.0887416508607L205.1908181818182,146.166784555126L205.2629090909091,147.40401742681402L205.68836363636362,155.627735466706L205.764,154.56757137235857L206.25209090909092,151.26832397614044L206.4210909090909,148.99754128357253L207.04154545454546,147.49864955048048L207.13372727272727,147.20600833475763L207.14436363636364,147.5314190227598L207.50836363636364,151.09858165018613L207.6690909090909,152.0131136804792L207.68681818181818,151.74803031861634L207.9657272727273,150.62416736709991L208.3651818181818,147.07075054503252L208.4632727272727,143.55096127027352L208.77054545454544,151.89208986024522L208.97618181818183,151.6782010535029L209.06245454545456,152.5270143949764L209.09081818181818,152.97918724241532L209.1451818181818,144.97445158892486L209.23499999999999,141.4486113989371L209.25745454545455,139.8240235569489L209.33545454545455,140.15880824262382L209.5257272727273,139.8899378287863L209.63327272727273,141.69029136348215L209.69,144.5395261278656L209.91809090909092,146.21065129623267L210.1379090909091,142.0322477844485L210.27736363636365,140.54868100645916L210.32936363636364,140.4950215969252L210.3577272727273,140.64482525708877L210.4120909090909,141.0054739697135L210.99,143.62145132521923L211.18854545454548,145.28811582346833L211.3729090909091,145.68933371158474L211.52654545454547,146.85270411244244L211.71445454545454,147.41872491322675L212.02763636363636,147.7233256253564L212.16236363636364,147.87624647734356L212.4660909090909,151.29385174026766L212.50390909090908,152.86711431370594L212.966,151.39853114382282L213.0250909090909,150.28167070048576L213.22836363636364,147.13407396334912L213.2720909090909,143.8128626528891L213.564,140.51621273657747L213.85472727272727,144.5430062979524L213.9090909090909,147.83128216882938L214.097,149.94354324949018L214.1300909090909,152.35218629089326L214.33927272727274,153.57607298402402L215.03181818181818,152.71873995050854L215.05900000000003,151.82371977002475L215.25872727272727,155.40129775026068L215.2599090909091,155.69509425690953L215.33436363636363,160.52868886548978L215.43127272727273,161.8505752350413L215.5837272727273,163.02865968141103L215.6510909090909,161.85208056366326L215.77990909090911,159.94865988490514L215.86381818181817,159.53544462997237L216.02336363636365,156.78850630489094L216.424,156.36367748320376L216.62254545454545,147.78256613497103L217.40254545454545,151.19975832591948L217.5408181818182,153.20869609608562L218.18963636363637,151.32303241229636L218.42245454545457,146.26151899896036L218.46972727272728,142.36523118258683L218.61509090909092,139.86835829799082L219.18354545454545,144.0657916648272L219.3419090909091,147.40534838337203L219.34427272727274,149.830107770156L219.5818181818182,149.2707257599382L219.81463636363637,152.37027266804853L220.17036363636365,155.55713250150973L220.19754545454546,157.041945683424L220.41027272727274,154.83835911798357L220.42445454545455,153.59701716928427L220.84636363636363,155.3765958628778L220.93736363636364,156.66749889543027L221.17609090909093,155.5659050477965L221.27654545454544,154.52901429733186L221.40772727272727,142.13342122714067L221.468,139.50483451175896L221.7610909090909,142.28461412919484L222.22554545454545,144.70404133597773L222.39454545454544,147.20954304575778L222.64154545454545,149.92830943846624L222.8306363636364,152.6027608262536L223.03272727272727,152.56108282488816L223.20527272727273,146.4087071169351L223.21827272727273,141.9964017599187L223.37072727272727,142.56267449434773L223.39436363636364,144.02086962367792L223.74536363636363,144.96726906163917L224.01836363636363,160.88025398967733L224.3268181818182,161.1611548577829L224.39536363636364,161.84054890762283L224.5017272727273,148.56685058369544L224.65654545454547,152.16522387719746L224.76763636363637,153.41164312396404L225.13045454545454,153.86304401735853L225.97781818181818,156.94030766117817L226.46,158.07290320651677L226.50609090909091,158.51820881599363L226.51790909090911,158.4186527496628L227.1820909090909,155.21404890811755L227.4007272727273,158.72204509931592L228.0578181818182,153.47892476056688L228.20081818181816,151.954955043006L228.29654545454545,151.3272099623729L228.31427272727274,151.1769458251984L228.43954545454545,156.8158531783695L228.49272727272728,153.88288891307582L228.64636363636365,152.52141342555728L228.74800000000002,151.7358265320178L228.852,153.56976946590635L228.97136363636363,153.72075045743563L229.762,155.79878738704707L230.03736363636364,157.99114832391385L230.36236363636363,155.12486890818707L230.58454545454546,153.98328171093888L230.65545454545455,151.93530180009003L230.77718181818182,153.00694617799005L230.90127272727273,154.69979958040176L231.10572727272728,153.58823724768172L231.7320909090909,155.1282348365484L231.81245454545456,154.66648351336914" style="fill: none;" fill="none"></path></g></g></g></g><g opacity="0.2"><g><g><g><path stroke="rgb(255, 112, 67)" stroke-width="2px" d="M30.61736363636364,-9.392955442269596L30.715454545454545,2.962839066982326L30.963636363636365,11.031681259473203L31.553363636363635,-10.956107119719121L31.567545454545453,3.6800940434138454L31.736545454545453,19.373279273510036L31.868909090909092,28.567405005296138L32.09227272727273,37.53032928705221L32.45272727272727,43.734750608603235L32.456272727272726,46.8404978116354L32.85218181818181,40.94994461536413L32.89354545454545,54.84170363346743L33.1689090909091,52.312633852164026L33.303636363636365,64.70069930950808L33.35209090909091,57.862794856230494L33.67945454545455,52.260027786096L33.691272727272725,51.81972827514019L34.12854545454545,45.64359929164257L34.19590909090909,33.681687176227626L34.58,42.67224069436398L34.82581818181818,43.37092882394796L34.927454545454545,52.570580403010126L35.09763636363636,39.63545606533694L35.92609090909091,63.0065850516161L36.02063636363637,62.95364743471154L36.07145454545454,63.66526604692149L36.17190909090909,65.31307370464015L36.376363636363635,75.5429642498494L36.52409090909091,64.36472779512414L36.59618181818182,67.50926644603419L36.66,63.46965105334925L37.26509090909091,76.29547413190213L37.30527272727273,74.94429395596194L37.44590909090909,67.40891705950108L37.53336363636364,64.4292696913084L37.78154545454546,54.14721514781323L37.787454545454544,58.75975038607922L38.012,67.89077094197282L38.160909090909094,71.43328111370411L38.85463636363637,67.59569069743165L39.04018181818182,75.15935993194589L39.07209090909091,77.77474344770121L39.70554545454545,65.90058178702998L39.732727272727274,67.09129135807362L39.95727272727272,75.6580123901368L40.529272727272726,67.9900151590507L40.581272727272726,67.4500293632349L40.971272727272726,67.03857477506008L41.10245454545455,66.23279572526621L41.213545454545454,86.29559994737315L41.922636363636364,76.15567019581803L42.26654545454545,62.99796472986546L42.682545454545455,76.07554541031527L42.92481818181818,75.96757035454121L43.55827272727272,66.98895266652116L43.80527272727272,132.21185426910728L43.84190909090909,74.68203724424052L44.101909090909096,72.35521347324061L44.12790909090909,73.26001570622134L44.369,78.07236558198937L44.38554545454546,77.30935659011212L45.44209090909091,79.54666163523999L46.228,78.15149571498242L46.29063636363636,76.14285023013758L46.71845454545455,70.57566961646089L46.84727272727273,70.31717048088717L46.95481818181818,72.86547021071124L47.26681818181818,70.29827208320307L47.33536363636364,85.69704017043122L47.346000000000004,83.84079755345988L47.56109090909091,68.15103834867486L47.57054545454545,68.72163733839997L47.65445454545455,66.83257118860888L47.79272727272728,100.47569767634081L47.909727272727274,86.50392438968031L47.95581818181818,83.53333941102036L48.193363636363635,66.07884562015542L48.19690909090909,91.06506924827902L48.283181818181816,77.55249387025842L48.54909090909091,70.91506715615597L48.62472727272727,72.56784807642308L48.72872727272727,61.83610008160281L48.831545454545456,63.63155837853756L49.45672727272727,74.89942407608041L49.92590909090909,78.86676138639459L50.02636363636364,96.18288796146719L50.05945454545455,92.28716563185064L50.98127272727273,70.1660938163599L50.99309090909091,68.43937705953923L51.04509090909091,68.40688507755604L51.15618181818182,73.76408349474278L51.24481818181818,80.70443715651837L51.32281818181818,68.73788332939156L51.45636363636363,75.27263980110493L51.61,78.14895382523545L51.623000000000005,77.72136376301455L51.64663636363636,78.2411249578L52.17372727272728,84.19146782159814L52.33327272727273,99.54194000363358L52.33563636363637,98.29497730731973L52.380545454545455,95.89377563198416L52.73390909090909,79.30219815174746L52.85918181818182,78.13602334260949L53.10381818181818,84.9477352797986L53.48081818181818,82.52774572372445L53.64390909090909,84.21213449041056L54.14145454545454,90.79518686731664L54.182818181818185,90.8642599582673L54.270272727272726,88.16996734340994L54.72172727272728,77.1836988230547L55.30554545454545,62.02618922789898L55.30672727272727,62.55711263418206L55.72745454545454,66.40067096551266L56.142272727272726,48.55196322997418L56.25809090909091,74.30185895164814L56.299454545454545,75.99575217564907L56.52045454545454,-5.683122615019414L56.628,68.48037884632754L57.24490909090909,93.48362208406138L57.369,87.16415262222299L57.873636363636365,99.33273142576226L57.904363636363634,84.49428425232577L57.98236363636364,77.28371665875125L58.14663636363636,75.30115317304936L58.21990909090909,77.79043685396519L58.46572727272728,89.67631331086167L58.631181818181815,83.13636254270878L58.88881818181819,91.1874115069708L59.096818181818186,81.19778480132427L59.127545454545455,81.81988468766221L59.29654545454545,80.22247275710114L59.477363636363634,87.23013123869904L59.64636363636363,84.43327889839816L59.814181818181815,81.08163149158167L59.92527272727273,79.78825167814898L59.941818181818185,80.6610039969286L60.75254545454545,88.12122937043516L60.79627272727272,92.09652390082685L61.31272727272727,78.96843697627392L61.37890909090909,98.20943719148644L61.45927272727273,90.26923672358203L61.69918181818182,86.5663664638997L61.968636363636364,79.40287908911714L62.09509090909091,81.2151359617711L62.231,15.332116643587796L62.355090909090904,87.07419182856886L62.51109090909091,89.36100846529015L62.52054545454545,88.08420619368562L62.676545454545455,94.94056697686521L62.85027272727273,71.3459727267425L63.07954545454545,79.05729260047283L63.11263636363636,67.46693845589962L63.507363636363635,84.30364252130198L63.52154545454545,83.6554606358211L63.544000000000004,178.9213992257914L63.564090909090915,132.30402540167182L63.62790909090909,106.34912074605631L63.67163636363637,95.77463836471247L63.71536363636364,93.42051690816888L63.860727272727274,89.4100779891015L64.246,85.9201738834382L64.43863636363636,74.50841512282696L64.52609090909091,79.181624164184L65.39354545454546,85.54728970925021L65.41836363636364,89.27524731556582L65.44554545454545,88.46195311347651L65.57081818181818,88.33828465143847L65.91118181818182,87.5083023905755L66.00336363636364,93.94934049248704L66.12627272727272,91.61931173006701L66.22554545454545,83.23295435309419L66.92518181818181,78.22277914484349L66.96063636363637,80.35387740532565L67.08827272727274,95.04798944791166L67.18636363636364,91.71446682016062L67.60236363636363,69.72524172067651L67.94154545454545,103.84955898920703L68.26654545454547,88.50162869691857L68.3989090909091,94.88663470745095L69.06427272727272,86.5853753785293L69.08318181818183,89.05697634816178L69.39636363636365,79.23091472188639L69.53818181818181,78.27538521091151L69.70481818181818,72.21662522355723L70.07709090909091,87.85698335369436L70.55690909090909,76.14914969603228L70.7649090909091,89.5924309492112L70.80154545454546,84.78273348013568L70.93272727272726,88.02331135670352L71.25890909090909,91.79426005482682L71.5,67.85385828216877L71.69263636363637,82.00931073228526L71.69736363636363,81.47197734316197L71.76,84.52058728535977L71.84627272727272,88.23793526490537L72.13818181818182,93.47135470310855L72.37927272727272,100.00611117482194L72.41118181818182,104.03500642379133L72.49390909090909,99.3266529937586L72.7279090909091,94.1177683174611L73.43109090909091,87.25278721253085L73.80454545454546,82.6578241686027L73.82581818181818,79.94076506296801L74.074,91.72518696387617L75.06672727272728,91.25051668286332L75.17190909090908,89.04736137390145L75.20972727272728,88.6215395828089L75.29481818181819,87.3186553120614L75.32672727272727,87.60942539572724L75.33145454545455,88.32756450772294L75.40590909090909,117.26322170098632L75.6280909090909,97.29435688257226L75.72263636363637,98.30602900187182L75.87272727272727,91.87515845894822L75.881,97.63751199841508L75.93299999999999,105.367619752884L75.99563636363636,103.63073543707537L76.60072727272728,97.79190417130796L76.77563636363637,106.45499597986547L77.18454545454546,86.78850552439698L77.25781818181818,79.78637289007511L77.41736363636363,88.48505115509042L77.59581818181819,93.20688765247671L78.37581818181819,80.96183112263688L78.39472727272727,80.32834799091029L78.4880909090909,119.82544656594604L79.53754545454547,89.62481241424886L79.87318181818182,94.14606065551448L79.93581818181818,90.58653087417292L79.97245454545455,84.86462653676676L80.015,83.24577431877461L80.06109090909091,83.79283319910374L80.22418181818182,101.62208995223054L80.301,95.07164007425317L80.32818181818183,90.84414587418246L80.45345454545455,85.60696885983157L80.57754545454546,92.67972182234136L80.63190909090909,94.6920143663884L80.98054545454546,97.55407170454669L81.86690909090909,88.35077306628236L81.96027272727272,143.70384833216676L82.10918181818181,91.91958627104768L82.73436363636363,87.72801007827131L82.79345454545454,86.60913652181634L82.92227272727273,75.7883118689061L82.95772727272727,74.50123152136811L83.04400000000001,92.19753638903308L83.47063636363636,92.59572894374537L83.69518181818181,96.42171508073815L83.88427272727273,94.53187531232842L84.06745454545455,96.41641026735314L84.17736363636364,72.23276069760331L84.85218181818182,92.37801056106893L85.03654545454546,110.0054633716743L85.09209090909091,105.34385860959696L85.436,98.90403619408616L85.50809090909091,86.0357746084532L85.69363636363637,88.66430964072553L85.89690909090909,39.6011958122254L86.16163636363636,95.40882727503785L86.20063636363636,96.40491650501895L86.38145454545455,84.20207744836816L86.39918181818182,90.18568591276812L86.82581818181818,83.6224160691103L87.10709090909091,93.79439573486654L87.11536363636364,94.41395373145747L87.1200909090909,93.86181107163438L87.12481818181817,93.57977182666468L87.29145454545454,115.0613925953707L87.34345454545455,109.61158097783732L87.5999090909091,99.84221454461424L87.73936363636365,102.42786900202441L88.27118181818182,97.04436755180367L88.40827272727272,102.41582265496262L88.5619090909091,85.03681193788853L88.6150909090909,82.28460844357815L88.86445454545454,92.89832434058198L88.98972727272727,99.43783304095277L89.27809090909092,107.11699248353648L89.28754545454545,106.38039704163877L89.479,105.76724902788806L89.54163636363636,94.13522999485342L90.21645454545455,90.01416361331948L90.41736363636363,85.41157490015038L90.4339090909091,86.13844485084223L90.53672727272728,91.35893380641946L90.74827272727272,104.76762325565028L90.78727272727274,111.96846535801896L90.99881818181818,103.9943361878396L91.35336363636364,93.83738682667422L91.36045454545456,92.59816031654684L91.572,100.92472802599279L91.89818181818183,109.08706755439448L92.53045454545455,105.24030423164376L92.70181818181818,96.82609658439962L92.83890909090908,101.67082792520532L92.93936363636364,92.09972889224696L93.03154545454547,83.63998826344815L93.06345454545455,82.42993822693833L93.08354545454546,84.04238046209025L93.67563636363637,99.52149436871218L93.73118181818182,100.46155150731413L93.87418181818182,94.10417473316201L94.11999999999999,100.40275649229693L94.15545454545455,100.25101672609655L94.757,111.70797691742587L94.7640909090909,108.16524571180352L94.79009090909092,107.96189453204481L94.89645454545453,100.16348730524389L95.10681818181818,131.39347628752398L95.96954545454545,104.29074263572701L96.05345454545454,108.2276877860229L96.24490909090909,96.67093079288809L96.53090909090909,92.62214249372491L97.07336363636364,99.1391057372094L97.16790909090909,97.90043181180963L97.51890909090909,82.70335715015736L97.55554545454545,81.8078383406004L97.942,95.50276667873072L98.11927272727273,104.1346927086513L98.35090909090908,98.31453880667695L98.59790909090908,97.16626774271337L98.69718181818182,95.86238881945619L98.88390909090909,99.91382952531187L99.11318181818181,116.21762087941178L99.38854545454545,104.79061078031866L99.53863636363636,103.73981566230464L99.88845454545455,90.14158965150523L100.08463636363636,103.67118463913607L100.32336363636364,110.63021566470472L100.74409090909091,108.57460047801344L100.79963636363637,109.4853706260523L101.16481818181818,105.39348071813592L101.21445454545454,104.69004035989451L101.69427272727273,137.91541279355692L101.98854545454546,100.88936260342606L102.56645454545455,120.17479063073802L102.75672727272728,111.5052888393403L102.78981818181819,113.44209830959646L102.843,110.08647229274122L103.33818181818182,105.162721335888L104.31081818181818,99.6828491091729L104.33209090909091,125.65101579825091L104.44672727272727,111.2936488886675L104.50699999999999,109.9234597980977L104.69727272727273,103.85187984506297L105.38390909090909,93.92646348476418L105.40045454545455,96.8990377684435L105.71954545454545,130.76286659638095L105.74436363636363,120.26176746686309L106.03154545454545,103.45810796817152L106.1249090909091,104.63820791244515L106.2631818181818,113.93268303076434L106.90963636363637,114.59534263610848L107.0490909090909,99.6433945596219L107.13890909090908,105.21720619002986L107.44500000000001,131.52675972382235L107.54072727272728,113.2364262739818L108.05127272727272,102.12925221522657L108.20018181818182,100.74624315897631L108.2309090909091,101.76963007450112L108.368,107.66802997390437L108.61618181818181,106.69117069244393L108.67645454545455,105.08679619431504L108.70245454545454,77.07992341121044L108.74145454545454,108.74557019273448L108.771,99.46413607398677L109.07827272727272,97.74073482553172L109.08063636363636,98.02531596024839L109.20118181818182,117.7312609652679L109.20472727272727,120.01398847500491L109.38672727272727,112.64195562402415L109.58172727272726,137.09438240528115L109.759,111.2005936205388L109.91972727272727,105.3109245598317L110.12063636363636,112.84453318516421L110.28490909090908,113.75441919763891L110.84745454545454,103.6739475627741L110.90299999999999,126.89632074038195L110.9739090909091,117.82431623339662L111.0010909090909,119.32193136215218L111.31190909090908,113.07551360130319L112.15572727272728,101.48803289731352L112.47481818181818,103.18988334139196L112.827,115.64127500851959L112.84827272727273,118.1248118082683L112.94281818181818,114.02463312943786L113.36945454545454,110.62480033437419L113.57154545454546,117.47994543115306L113.71218181818182,105.77609038352975L113.96390909090908,124.94746492306399L114.02418181818183,107.37615472078332L114.19436363636363,118.41226638356852L114.2499090909091,115.3629933396976L114.3881818181818,108.28847210605947L114.52527272727274,98.53203615546235L114.53354545454546,96.84156895677256L114.87036363636363,112.60924260814993L115.26272727272728,113.07871859272329L115.70118181818181,116.1651253302893L115.97772727272726,102.55584762493777L116.06400000000001,104.33240752418844L116.73409090909091,111.99366322159776L116.81445454545455,114.85218401749938L116.90545454545455,113.98783098657934L116.922,113.4890680114429L116.96809090909092,110.88462567329415L117.0059090909091,110.647456308206L117.494,96.8653301000596L117.70554545454546,117.0903731981914L118.15227272727272,107.88165922959654L118.21845454545453,113.50288262963304L118.22318181818183,113.6750680307548L118.3,111.97808033227929L118.37681818181818,121.02654472986865L118.64272727272729,118.18007028102883L118.66163636363636,119.2537424067657L118.83181818181818,100.58665668964395L118.86254545454545,104.62118830283491L118.90627272727272,101.25705248117455L119.3589090909091,118.88771028320002L119.38136363636363,119.5358921686809L119.5019090909091,122.18244146307319L119.81390909090909,97.63463855783152L119.94745454545455,109.15569857756304L119.98881818181817,107.77832588553437L120.48872727272727,112.68505723277735L121.41527272727272,172.11200814445823L121.45545454545454,119.95364622275042L121.54881818181818,106.44902806480734L121.81590909090909,116.16435171167063L121.87736363636364,91.902898212274L122.04281818181819,112.76175599296896L122.62781818181818,111.57325676083573L122.8180909090909,108.45402649044999L123.14190909090908,120.0149831275146L123.39245454545454,111.40726030866313L123.61936363636363,110.3811104695003L123.71981818181818,116.32614851991343L123.87581818181819,111.11140644550332L124.11454545454546,91.13148993253716L124.15236363636363,102.5801613529524L124.19609090909091,103.89542352159826L124.29063636363635,105.36198338866242L124.46909090909091,116.27674744526553L124.69127272727272,121.12799928585696L124.72790909090908,118.25522180398315L124.7669090909091,116.96029475331315L124.90163636363636,115.25258691112208L124.97609090909091,119.38790997862824L125.28927272727273,105.05695661902436L126.19454545454546,112.67212675015139L126.2099090909091,113.00511430700628L126.295,134.93244991699862L126.464,112.82309289773313L126.919,103.84127021829295L126.98636363636363,101.90059265494355L127.24163636363636,119.1669866045317L127.43427272727273,120.74118997653335L127.79827272727273,119.65900804599136L128.4329090909091,155.33387806018203L128.59954545454545,113.59958495696394L129.12781818181818,121.88194588820147L129.22827272727272,120.7977746526401L129.24718181818182,120.09101878603309L129.69863636363638,114.9899986485641L129.71872727272728,113.39324981967616L129.87236363636364,118.42121825615573L129.9680909090909,120.04272288084039L130.04136363636366,118.42177084088334L130.28009090909092,109.50857918461172L130.53181818181818,109.1066290537517L131.2929090909091,112.30631566047677L131.53636363636363,122.92036310831713L131.91927272727273,121.95322931806254L131.9429090909091,128.80472735563922L131.94645454545454,166.21957616011312L132.04690909090908,116.82082236806559L132.05045454545456,115.48367784420657L132.47472727272728,102.76151966055242L132.50545454545454,102.62713105479884L133.22518181818182,113.14955995480227L133.2949090909091,126.94152217110008L133.69436363636365,81.83988825480151L133.80900000000003,111.9781908492248L134.1020909090909,117.13789548476547L134.6102727272727,114.89362787206977L135.17636363636362,117.85747131705293L135.36072727272727,120.38388869166383L135.65381818181817,120.95360354582476L135.78027272727272,120.18341095248866L135.97645454545454,102.86872109770783L136.12654545454544,111.29696439703314L136.28845454545453,114.39784885446238L136.35463636363636,121.33234511812537L136.39245454545457,114.09381673733401L136.47636363636363,113.5751607120038L136.92545454545456,106.68409760793058L137.03063636363635,107.81081786751756L137.0578181818182,106.88479638099679L137.44663636363637,118.7661416431269L137.7231818181818,140.15470714370417L137.8,119.59059805671382L138.4570909090909,112.71224440137553L138.53981818181816,106.2286572754384L138.62254545454547,127.42879138390231L138.76436363636364,122.46348605553317L138.97709090909092,107.37991229693102L139.14963636363635,130.72650652130454L139.21345454545454,125.93029211958259L139.30800000000002,125.63134378194817L139.438,139.60499585668254L139.61881818181817,130.88786126176524L139.70509090909093,127.90887699524569L139.93200000000002,109.60439737637846L140.01472727272727,107.20861103137342L140.07263636363638,107.4900976916155L140.70136363636362,122.23051633437484L141.2343636363636,118.67043396830567L141.35963636363638,130.88167231281608L141.362,131.32805025577554L141.6810909090909,116.13064404328674L142.4870909090909,132.7621181408565L142.51427272727273,121.01980319619187L142.70572727272727,111.33498222629237L142.83218181818182,120.62603131930041L142.9019090909091,104.04550553361582L142.99645454545455,114.73934621612239L143.08509090909092,122.32942900061616L143.18318181818182,120.41527550419181L143.27654545454544,119.15516129136094L143.39590909090907,118.27213089664787L143.50936363636364,117.71623066067704L143.57672727272728,113.62699315945315L143.5897272727273,113.15619097153353L144.09081818181818,129.88900910814613L144.11445454545455,128.23379681507754L144.54463636363636,119.88799915711093L144.78336363636365,119.04619158307719L144.82118181818183,123.73454144597062L144.88500000000002,121.34660180409759L144.99136363636364,118.95833061138796L145.22181818181818,109.95385195811598L145.25845454545453,111.8289929727714L145.32345454545455,104.75778724749891L145.36481818181818,107.72207276026415L145.37663636363635,107.23314579327909L145.6070909090909,120.52048763632783L145.90963636363637,127.65269871552795L145.97463636363636,191.16380334893873L146.4828181818182,138.3550492028396L146.87163636363636,98.62464935580897L146.94018181818183,119.80466938018807L147.37745454545453,128.018178254366L147.50036363636363,132.43454591433215L147.51690909090908,132.64817517002433L147.5878181818182,129.76721943418192L147.60436363636364,128.07553654909142L147.6220909090909,127.68099105358132L147.63745454545455,124.92624566952395L147.68354545454545,123.54179989298194L147.83718181818182,122.47663757205018L148.2401818181818,136.60667112469682L148.44818181818184,118.45083679755538L148.55690909090907,120.1594287753106L148.642,136.36264970898637L148.65854545454545,139.72700656453776L149.15727272727273,125.0163169801236L149.22463636363636,123.01629181702941L149.37,122.02771773934373L149.578,129.0624528725943L149.6961818181818,127.98988591631263L149.8179090909091,126.1973010599614L150.21263636363636,125.09688383340844L150.9938181818182,125.21182145675033L151.0800909090909,117.05235536893218L151.29754545454546,122.28422756989806L151.80336363636366,140.35043265422195L151.96527272727275,133.89237494270014L152.74054545454547,119.62176383535075L152.74172727272727,119.35641264915475L152.81027272727272,120.910170386235L153.04663636363637,125.71047391494125L153.426,70.65126320719727L153.71081818181818,124.34105844299006L153.8620909090909,109.63909969727206L153.90109090909093,124.36702992518752L154.13036363636365,136.9013093014559L154.3289090909091,131.56787202755618L154.37145454545455,138.98831130067515L154.3939090909091,135.99529138207444L154.50736363636364,133.66824657718348L155.04745454545454,125.84618872404107L155.0959090909091,126.25742227832484L155.1999090909091,127.23527621229499L155.46227272727273,125.98212456703195L155.6430909090909,139.52210814754176L155.89954545454546,123.27357526620239L156.55545454545455,127.14575748642295L156.78472727272725,119.00983150800079L156.8308181818182,119.59932889541L157.066,130.8995760579905L157.56236363636364,124.55468769868224L157.8779090909091,130.33759739001601L158.05754545454545,131.97269559899974L158.34,140.18797274430602L158.7087272727273,125.55431347092002L158.90609090909092,127.62827447056779L159.33272727272728,134.65239997704833L159.6589090909091,139.4298264980317L159.72154545454543,137.6862006485463L160.14345454545455,132.6002108156682L160.15763636363639,135.51774766047805L160.44954545454544,127.842124760151L160.4578181818182,131.25345131754884L160.5830909090909,130.9275368452073L160.77336363636363,137.47157674034446L160.87972727272728,141.971384694179L161.26263636363637,124.62641319632539L161.52263636363637,127.25826373696336L161.56754545454544,126.13198554515847L161.65263636363636,123.90385340650886L161.69872727272727,127.01877351601928L161.83581818181818,126.50663799047479L161.928,129.3930090566477L161.94454545454548,131.02081314722705L161.96463636363634,130.68462059895205L162.09227272727273,129.69682013988503L162.65954545454545,114.01081851124772L162.8840909090909,118.61130740245193L163.02118181818182,125.96212099989265L163.2811818181818,127.76244204243034L163.31545454545454,124.04973577459663L163.86027272727273,141.4035486280919L164.164,121.66754301389068L164.19827272727272,118.5386977692446L164.27036363636364,123.39647010962176L164.62963636363637,139.03384428222984L164.8281818181818,150.75250860055297L165.42972727272726,104.42402607202538L165.79845454545455,116.18192390600848L166.4638181818182,132.5577723085881L166.86327272727274,141.61231513818115L166.86445454545455,141.27899603048968L167.02872727272725,124.63845954338717L167.06418181818182,109.93904268741616L167.11263636363637,112.60670071840295L167.24972727272726,122.26046642661103L167.62318181818182,136.46918804446864L167.67281818181817,138.01532011230796L168.06045454545455,125.54856658975291L168.09709090909092,126.14568964640307L168.5532727272727,132.58518051107734L168.56745454545452,131.73000038663554L168.69154545454543,134.93134474754342L169.08036363636364,141.50378749767947L169.71972727272728,136.0360721349717L169.7480909090909,137.25264267126727L169.7870909090909,126.92737600207337L170.30354545454546,136.42476023236918L170.38154545454546,137.76135217150062L170.41463636363636,135.4759722550711L170.81054545454546,132.09249596794456L171.08,141.4582545161248L171.09654545454546,140.74431504805892L171.14854545454546,136.58567290504783L171.41445454545453,143.3663295805455L171.70636363636365,131.73198969165492L173.07018181818182,120.83269800742477L173.35736363636363,140.10431141654658L173.65045454545455,145.73415513833373L173.7130909090909,140.39298167824754L173.8419090909091,138.05720603466042L173.9990909090909,140.6092633406322L174.21654545454547,137.1808066566786L174.3678181818182,134.8246958951156L174.43045454545455,136.43669606248545L174.4800909090909,107.9964863359929L174.61718181818182,128.9654189944268L174.655,125.86652384201693L174.69281818181818,129.4806489944459L174.7649090909091,131.4282891253631L174.7861818181818,131.3309236963591L175.04145454545454,125.06903356313714L175.26836363636363,130.04528006911286L175.39127272727274,143.21757377187419L175.916,139.15574447313952L176.26345454545455,125.55011382699021L176.3107272727273,122.53830602765092L176.46672727272727,128.47593944271415L176.57072727272728,132.64762258529672L176.5849090909091,131.40010730425524L176.59436363636362,131.0498791038991L176.6841818181818,129.38129426042246L176.73499999999999,140.97827942172694L176.88509090909093,129.7986062467099L177.1840909090909,126.34771462281554L177.35663636363637,137.73958033323296L177.64618181818182,142.99974487225222L178.10354545454544,141.524896234274L178.3670909090909,135.65578332543382L179.0348181818182,140.03999055425334L179.04781818181817,138.67002249757456L179.2581818181818,134.78391514221835L179.322,135.25869594017672L179.4898181818182,134.1541895866395L180.43527272727272,133.15334812800097L180.7189090909091,132.23859936992335L180.73781818181817,130.62858850757289L181.06163636363635,137.32182627916345L181.194,140.04352709651002L181.40436363636366,139.13651452461886L181.44218181818184,137.85650726159423L181.52727272727273,119.38901514808344L181.83454545454546,134.41920922199893L182.00827272727273,159.394712706407L182.44436363636365,136.329273591439L182.45972727272726,132.93507716059693L182.56018181818183,138.5777408480645L183.0069090909091,136.2067102988562L183.03645454545455,136.82593674461054L183.16172727272726,136.89401518305152L183.90863636363636,144.1180658439796L184.21236363636362,147.46893963217744L184.61063636363636,130.83580778042483L184.69454545454545,139.46253951390594L184.78672727272726,136.01275305946677L185.159,145.49941714604705L185.1649090909091,145.4588574270408L185.18263636363636,141.84053263068208L185.57263636363635,132.34469563762354L185.61045454545453,135.44900612036395L185.84327272727273,136.87942694624275L186.11509090909092,151.8433108528456L186.21318181818182,149.77222329378137L186.23563636363636,149.27180256446212L186.35736363636366,146.69090033570936L186.42472727272727,135.1361326475939L186.6870909090909,139.5449851552646L187.25199999999998,129.57823545734095L187.2850909090909,142.04929914077132L187.38672727272728,148.70352443059295L187.83700000000002,139.7818229695162L187.863,138.435947606961L188.214,150.637128909429L188.38536363636362,146.75875774025926L188.43972727272728,146.1758913695813L189.06136363636364,129.79827469587335L189.10863636363638,124.75361820062011L189.1180909090909,125.51618512471526L189.1440909090909,127.41541883349427L189.1559090909091,129.3693584303062L189.24572727272727,131.55251017212876L189.28590909090912,137.30989044904717L189.3887272727273,123.40730077028283L189.42536363636364,160.31100870172193L189.97727272727275,141.47383740544328L190.25972727272728,110.63883598645536L190.5350909090909,129.6609021325907L191.2808181818182,143.62825474143037L191.32336363636364,140.60130612055468L191.438,135.8552664120993L191.68618181818184,129.4330161909263L191.68736363636364,129.72677023212123L192.04072727272728,184.47940693298986L192.3420909090909,143.85138845443734L192.5087272727273,132.3019255797069L192.85618181818182,134.5656441748143L193.04054545454545,146.00945284962663L193.20954545454546,148.5640520453454L193.31118181818184,146.24021223187455L193.54281818181818,134.32361206412324L193.57236363636363,137.40968725085267L193.72127272727272,141.01088192065566L193.80399999999997,138.0701365172864L194.00372727272728,146.03199830651292L194.08527272727272,143.49618699153274L194.155,144.26803733905166L194.29563636363636,158.0466270049414L194.4421818181818,150.5251752436162L195.3309090909091,137.1890954275927L195.72327272727273,136.29180834690737L195.73627272727273,135.5316727956137L195.84027272727272,138.82342001795777L195.88636363636363,142.01747026046127L195.93481818181817,140.79272147019714L196.55054545454547,136.1788600285849L196.65336363636365,136.12570137778926L197.00436363636362,121.42926847934731L197.79618181818182,132.6202143828075L197.9439090909091,143.08970566590637L198.6199090909091,128.49583249290794L198.76881818181818,138.102296948433L198.8858181818182,139.59858587384232L199.04654545454545,150.2256743212542L199.19072727272726,140.00595133503288L199.25927272727273,138.09876040617632L199.34081818181818,139.4067284564178L199.34554545454543,140.86422593394923L199.4649090909091,149.33380257089942L199.56654545454543,138.23447521527618L200.24963636363634,145.3089964489143L200.3831818181818,127.60241350531587L200.53445454545454,138.98422217369088L200.5521818181818,139.3941295246284L200.77436363636366,7.6657771666845065L200.83463636363638,143.79115671912837L200.91618181818183,136.91247151295352L200.9209090909091,137.35851790507644L201.54372727272727,152.26537506779044L201.5661818181818,151.14970650275558L201.66072727272729,103.46927017966914L201.8049090909091,134.62477074066805L201.92899999999997,142.95167000095057L202.14054545454545,151.44754967093476L202.1570909090909,152.3060453037422L202.19963636363636,147.17783799767503L202.2480909090909,146.5045687655609L202.3591818181818,146.45549924174955L202.41709090909092,148.69203066825875L202.53172727272727,137.6568031410377L202.6298181818182,159.8570050895215L202.73263636363637,155.81948951880148L202.7539090909091,156.3428977727891L202.91345454545453,150.51699698964765L203.57527272727273,146.2387755115828L203.8908181818182,132.99762975176185L204.178,142.10577329993257L205.11163636363636,146.05796978871038L205.1908181818182,149.2838489115239L205.2629090909091,149.25986673434585L205.68836363636362,167.96331252654403L205.764,152.97732523083695L206.25209090909092,146.31945288181313L206.4210909090909,145.59136724472054L207.04154545454546,145.25031195084262L207.13372727272727,146.76704651117333L207.14436363636364,148.01953505476325L207.50836363636364,156.44932559132585L207.6690909090909,153.38491172591856L207.68681818181818,151.35040527582177L207.9657272727273,148.93837293982514L208.3651818181818,141.74062531193107L208.4632727272727,138.27127735813468L208.77054545454544,164.40378274520248L208.97618181818183,151.3573678433896L209.06245454545456,153.8002344071866L209.09081818181818,153.65744651357343L209.1451818181818,132.96734810868907L209.23499999999999,136.15985111395526L209.25745454545455,137.38714179396638L209.33545454545455,140.66098527113604L209.5257272727273,139.4866322080295L209.63327272727273,144.39082166552552L209.69,148.81337827444085L209.91809090909092,148.7173390487831L210.1379090909091,135.76464251677203L210.27736363636365,138.3233308394751L210.32936363636364,140.41453248262414L210.3577272727273,140.86953074733424L210.4120909090909,141.5464470386506L210.99,147.545417358478L211.18854545454548,147.7881125708422L211.3729090909091,146.29116054375976L211.52654545454547,148.59775971372932L211.71445454545454,148.2677561144035L212.02763636363636,148.18022669355085L212.16236363636364,148.10562775532415L212.4660909090909,156.42025963465383L212.50390909090908,155.2270081738632L212.966,149.19565638899812L213.0250909090909,148.60638003547996L213.22836363636364,142.4126788576445L213.2720909090909,138.83104568719872L213.564,135.57123786211022L213.85472727272727,150.58319664001473L213.9090909090909,152.7636959751448L214.097,153.11193487048158L214.1300909090909,155.9651508529982L214.33927272727274,155.41190302371987L215.03181818181818,151.43274040023496L215.05900000000003,150.48118949929884L215.25872727272727,160.76766472061485L215.2599090909091,156.13578901688268L215.33436363636363,167.77908077836045L215.43127272727273,163.83340478936842L215.5837272727273,164.79578635096559L215.6510909090909,160.08721188704183L215.77990909090911,157.09352886676797L215.86381818181817,158.9156217475733L216.02336363636365,152.6680988172691L216.424,155.72643425067275L216.62254545454545,134.91089911262202L217.40254545454545,156.3255466123423L217.5408181818182,156.2221027513346L218.18963636363637,148.49453688661268L218.42245454545457,138.66924887895593L218.46972727272728,136.52079945802697L218.61509090909092,136.12304897109675L219.18354545454545,150.36194171508163L219.3419090909091,152.41468346118936L219.34427272727274,153.46724685033172L219.5818181818182,148.4316527446112L219.81463636363637,157.0195930302144L220.17036363636365,160.33742225170144L220.19754545454546,159.2691654562951L220.41027272727274,151.53297926982253L220.42445454545455,151.73500424623498L220.84636363636363,158.04596390326827L220.93736363636364,158.60385344425848L221.17609090909093,153.91351427634567L221.27654545454544,152.97367817163476L221.40772727272727,123.54003162185359L221.468,135.56195443868646L221.7610909090909,146.4542835553488L222.22554545454545,148.33318214615196L222.39454545454544,150.96779561042794L222.64154545454545,154.00645902752885L222.8306363636364,156.61443790793427L223.03272727272727,152.49856582283982L223.20527272727273,137.1801435550055L223.21827272727273,135.37794372439393L223.37072727272727,143.41208359599122L223.39436363636364,146.20816231767347L223.74536363636363,146.386868218581L224.01836363636363,184.7497313817343L224.3268181818182,161.58250615994146L224.39536363636364,162.85963998238256L224.5017272727273,128.65630309780448L224.65654545454547,157.5627838174503L224.76763636363637,155.281271994114L225.13045454545454,154.54014535744994L225.97781818181818,161.55620312690743L226.46,159.77179652452477L226.50609090909091,159.1861672302088L226.51790909090911,158.2693186501663L227.1820909090909,150.40714314579972L227.4007272727273,163.98403938611358L228.0578181818182,145.6142442524434L228.20081818181816,149.66900046666473L228.29654545454545,150.38559234142312L228.31427272727274,150.95154961943635L228.43954545454545,165.27421420812615L228.49272727272728,149.4834425151349L228.64636363636365,150.47920019427946L228.74800000000002,150.55744619170835L228.852,156.32068386673936L228.97136363636363,153.9472219447296L229.762,158.91584278146436L230.03736363636364,161.2796897292138L230.36236363636363,150.82544978459686L230.58454545454546,152.2709009150665L230.65545454545455,148.86333193381637L230.77718181818182,154.61441274484008L230.90127272727273,157.23907968401917L231.10572727272728,151.92089374860137L231.7320909090909,157.4382312198481L231.81245454545456,153.97385652860015" style="fill: none;" fill="none"></path></g></g></g></g></g></g><g transform="translate(70, 178)" clip-path="url(#clip_1)"><clipPath id="clip_1"><rect width="260" height="22"></rect></clipPath><g><g><line x1="0" y1="0" x2="0" y2="5" style="visibility: inherit;" fill="rgb(0, 0, 0)" stroke="rgb(204, 204, 204)" stroke-width="1px"></line><line x1="23.636363636363637" y1="0" x2="23.636363636363637" y2="5" style="visibility: inherit;" fill="rgb(0, 0, 0)" stroke="rgb(204, 204, 204)" stroke-width="1px"></line><line x1="47.27272727272727" y1="0" x2="47.27272727272727" y2="5" style="visibility: inherit;" fill="rgb(0, 0, 0)" stroke="rgb(204, 204, 204)" stroke-width="1px"></line><line x1="70.9090909090909" y1="0" x2="70.9090909090909" y2="5" style="visibility: inherit;" fill="rgb(0, 0, 0)" stroke="rgb(204, 204, 204)" stroke-width="1px"></line><line x1="94.54545454545455" y1="0" x2="94.54545454545455" y2="5" style="visibility: inherit;" fill="rgb(0, 0, 0)" stroke="rgb(204, 204, 204)" stroke-width="1px"></line><line x1="118.18181818181817" y1="0" x2="118.18181818181817" y2="5" style="visibility: inherit;" fill="rgb(0, 0, 0)" stroke="rgb(204, 204, 204)" stroke-width="1px"></line><line x1="141.8181818181818" y1="0" x2="141.8181818181818" y2="5" style="visibility: inherit;" fill="rgb(0, 0, 0)" stroke="rgb(204, 204, 204)" stroke-width="1px"></line><line x1="165.45454545454544" y1="0" x2="165.45454545454544" y2="5" style="visibility: inherit;" fill="rgb(0, 0, 0)" stroke="rgb(204, 204, 204)" stroke-width="1px"></line><line x1="189.0909090909091" y1="0" x2="189.0909090909091" y2="5" style="visibility: inherit;" fill="rgb(0, 0, 0)" stroke="rgb(204, 204, 204)" stroke-width="1px"></line><line x1="212.72727272727275" y1="0" x2="212.72727272727275" y2="5" style="visibility: inherit;" fill="rgb(0, 0, 0)" stroke="rgb(204, 204, 204)" stroke-width="1px"></line><line x1="236.36363636363635" y1="0" x2="236.36363636363635" y2="5" style="visibility: inherit;" fill="rgb(0, 0, 0)" stroke="rgb(204, 204, 204)" stroke-width="1px"></line><line x1="260" y1="0" x2="260" y2="5" style="visibility: inherit;" fill="rgb(0, 0, 0)" stroke="rgb(204, 204, 204)" stroke-width="1px"></line></g><g transform="translate(0, 8)"><text x="0" y="0" dx="0em" dy="0.95em" style="text-anchor: middle; visibility: hidden; font-family: &quot;Helvetica Neue&quot;, sans-serif; font-size: 12px; font-weight: 200;" fill="rgb(50, 49, 63)" stroke="none" stroke-width="1px">-20k</text><text x="23.636363636363637" y="0" dx="0em" dy="0.95em" style="text-anchor: middle; visibility: inherit; font-family: &quot;Helvetica Neue&quot;, sans-serif; font-size: 12px; font-weight: 200;" fill="rgb(50, 49, 63)" stroke="none" stroke-width="1px">0</text><text x="47.27272727272727" y="0" dx="0em" dy="0.95em" style="text-anchor: middle; visibility: hidden; font-family: &quot;Helvetica Neue&quot;, sans-serif; font-size: 12px; font-weight: 200;" fill="rgb(50, 49, 63)" stroke="none" stroke-width="1px">20k</text><text x="70.9090909090909" y="0" dx="0em" dy="0.95em" style="text-anchor: middle; visibility: inherit; font-family: &quot;Helvetica Neue&quot;, sans-serif; font-size: 12px; font-weight: 200;" fill="rgb(50, 49, 63)" stroke="none" stroke-width="1px">40k</text><text x="94.54545454545455" y="0" dx="0em" dy="0.95em" style="text-anchor: middle; visibility: hidden; font-family: &quot;Helvetica Neue&quot;, sans-serif; font-size: 12px; font-weight: 200;" fill="rgb(50, 49, 63)" stroke="none" stroke-width="1px">60k</text><text x="118.18181818181817" y="0" dx="0em" dy="0.95em" style="text-anchor: middle; visibility: inherit; font-family: &quot;Helvetica Neue&quot;, sans-serif; font-size: 12px; font-weight: 200;" fill="rgb(50, 49, 63)" stroke="none" stroke-width="1px">80k</text><text x="141.8181818181818" y="0" dx="0em" dy="0.95em" style="text-anchor: middle; visibility: hidden; font-family: &quot;Helvetica Neue&quot;, sans-serif; font-size: 12px; font-weight: 200;" fill="rgb(50, 49, 63)" stroke="none" stroke-width="1px">100k</text><text x="165.45454545454544" y="0" dx="0em" dy="0.95em" style="text-anchor: middle; visibility: inherit; font-family: &quot;Helvetica Neue&quot;, sans-serif; font-size: 12px; font-weight: 200;" fill="rgb(50, 49, 63)" stroke="none" stroke-width="1px">120k</text><text x="189.0909090909091" y="0" dx="0em" dy="0.95em" style="text-anchor: middle; visibility: hidden; font-family: &quot;Helvetica Neue&quot;, sans-serif; font-size: 12px; font-weight: 200;" fill="rgb(50, 49, 63)" stroke="none" stroke-width="1px">140k</text><text x="212.72727272727275" y="0" dx="0em" dy="0.95em" style="text-anchor: middle; visibility: inherit; font-family: &quot;Helvetica Neue&quot;, sans-serif; font-size: 12px; font-weight: 200;" fill="rgb(50, 49, 63)" stroke="none" stroke-width="1px">160k</text><text x="236.36363636363635" y="0" dx="0em" dy="0.95em" style="text-anchor: middle; visibility: hidden; font-family: &quot;Helvetica Neue&quot;, sans-serif; font-size: 12px; font-weight: 200;" fill="rgb(50, 49, 63)" stroke="none" stroke-width="1px">180k</text><text x="260" y="0" dx="0em" dy="0.95em" style="text-anchor: middle; visibility: hidden; font-family: &quot;Helvetica Neue&quot;, sans-serif; font-size: 12px; font-weight: 200;" fill="rgb(50, 49, 63)" stroke="none" stroke-width="1px">200k</text></g><line x1="0" y1="0" x2="260" y2="0" fill="rgb(0, 0, 0)" stroke="rgb(204, 204, 204)" stroke-width="1px"></line></g></g></g></g></svg>